<svg id="Layer_1" data-name="Layer 1" xmlns="http://www.w3.org/2000/svg" viewBox="0 0 100 100"><defs><style>.cls-1,.cls-2{fill:#fff;}.cls-2{font-size:70.93px;font-family:AmaticSC-Bold, Amatic SC;font-weight:700;}</style></defs><title>Artboard 1</title><path class="cls-1" d="M87.47,50.28c0,.34.4.22.47.27C87.82,50,87.37,50.3,87.47,50.28Z"/><polygon class="cls-1" points="86.04 44.81 86.22 44.88 85.68 44.14 86.04 44.81"/><path class="cls-1" d="M84.9,39.78c-.55.67.58,1.77.57,2.73l-.12.18L86,43A15.66,15.66,0,0,1,84.9,39.78Z"/><path class="cls-1" d="M85.39,36.63c-.2.27-.43-.5.15.66,0-.08,0-.1,0-.14S85.47,36.89,85.39,36.63Z"/><path class="cls-1" d="M85.56,37.15c.22.52.09-.43,0,0Z"/><path class="cls-1" d="M84.4,34.81l.55.57c.08-.21-.17-.83,0-.65C84.53,34.09,84.46,34.3,84.4,34.81Z"/><path class="cls-1" d="M83.63,34.4l.26.3C83.92,34.61,83.9,34.51,83.63,34.4Z"/><path class="cls-1" d="M84.44,35.34l-.55-.64c-.06.15-.27.25.23.3C83.9,35,84.15,35.09,84.44,35.34Z"/><path class="cls-1" d="M84.54,35.79c0,.44.13,1-.37.39C84.75,37.44,85.18,37.06,84.54,35.79Z"/><path class="cls-1" d="M84.11,39.76a5.27,5.27,0,0,1,0,.56l.34.37C84.26,40.5,84.33,39.66,84.11,39.76Z"/><path class="cls-1" d="M82.51,30.55c-.15,0-.21.43-.35.58l.43.38C82.54,31.21,82.34,30.71,82.51,30.55Z"/><path class="cls-1" d="M82.16,31.13l-.64-.55C81.87,31.21,82,31.26,82.16,31.13Z"/><polygon class="cls-1" points="82.86 34.64 83.92 35.58 82.75 34.41 82.86 34.64"/><polygon class="cls-1" points="80.73 27.94 81.3 28.11 80.37 27.75 80.73 27.94"/><path class="cls-1" d="M79.4,26.32c.46.07.06-.68.44-.52A4.26,4.26,0,0,0,78.43,25,2.47,2.47,0,0,1,79.4,26.32Z"/><path class="cls-1" d="M77.7,24.71a4.11,4.11,0,0,0,.73.32A2.31,2.31,0,0,0,77.7,24.71Z"/><path class="cls-1" d="M80.81,29.39a.87.87,0,0,0,0-.77l-.15.51Z"/><path class="cls-1" d="M80.62,29.14h0l-.4-.57Z"/><path class="cls-1" d="M80.86,29.45l0-.06C80.8,29.44,80.8,29.46,80.86,29.45Z"/><path class="cls-1" d="M82.24,32.61c-.45-.29-1.17-1-1,0C81.66,32.75,81.56,32.18,82.24,32.61Z"/><path class="cls-1" d="M80.65,30.07c.15.25.25.52.37.77.09-.07.15-.3.37-.16C81.14,30.48,80.92,30.26,80.65,30.07Z"/><polygon class="cls-1" points="80.29 29.82 80.65 30.07 80.5 29.8 80.29 29.82"/><path class="cls-1" d="M78.41,26.09a3.31,3.31,0,0,1-1-.77,8.94,8.94,0,0,0,.9,1.18C78.45,26.47,78.78,26.47,78.41,26.09Z"/><path class="cls-1" d="M79.5,27.56l-.07,0C79.43,27.58,79.45,27.61,79.5,27.56Z"/><polygon class="cls-1" points="74.14 22.2 74.14 22.31 74.2 22.27 74.14 22.2"/><path class="cls-1" d="M78.3,26.62a1,1,0,0,0,.65.49,5.24,5.24,0,0,1-.65-.61C78.24,26.52,78.2,26.54,78.3,26.62Z"/><path class="cls-1" d="M76.67,23.93l.29.62C76.94,24.31,76.81,23.9,76.67,23.93Z"/><path class="cls-1" d="M79.45,27.34l0,0C79.49,27.22,79.47,27.26,79.45,27.34Z"/><path class="cls-1" d="M79.45,27.34a2,2,0,0,0-.5-.23,2.83,2.83,0,0,0,.48.4A1,1,0,0,1,79.45,27.34Z"/><path class="cls-1" d="M71.38,23.54c.27-.26,1.28-.05,1.57.83.76.3,1.26-1,1.19-2.06-.13.13-.21.22-1-.1.14.32,1.08,1.58.33,1.39-.93-.57-.6-.66-.88-1.16,0,.65-1.54-.25-1.77.48l.89.34C71.61,23.36,71.23,23.31,71.38,23.54Z"/><path class="cls-1" d="M75.31,23.43l.29.2a3.59,3.59,0,0,1-.54-1.22c-.56-.25-.74-.22-.86-.14l1.24,1.2Z"/><path class="cls-1" d="M76.74,24.7c-.47.08-1.23-.31-1.18.35.74.67.74.25,1.29.56-1.18-1.13.49.18-.13-.87a5.86,5.86,0,0,1,.68.58,8.46,8.46,0,0,1-.44-.77v.05h0c0,.09,0,.13,0,.05l0,0a.52.52,0,0,1-.16.06c-.26-.42,0-.14.16-.06l.06,0h0c-.42-.36-.92-.65-1.37-1A11,11,0,0,0,76.74,24.7Z"/><path class="cls-1" d="M80,32.37a.11.11,0,0,1,.06-.1C80,32.22,79.92,32.2,80,32.37Z"/><path class="cls-1" d="M79.89,31.68c.11.07.31.05.46.4s-.17.1-.28.19c.21.13.67.51.48-.2L80.44,32c-.2-.62-.19-1.63-.08-1.57A3.28,3.28,0,0,0,79.89,31.68Z"/><path class="cls-1" d="M78.41,28.18a8.59,8.59,0,0,0-1-.88l.17.74.15-.17C78.12,28.5,78.22,28.22,78.41,28.18Z"/><path class="cls-1" d="M74.16,21.93l.42-.22c-.33,0-.69,0-1,0Z"/><polygon class="cls-1" points="72.68 20.89 72.97 20.62 72.45 20.52 72.68 20.89"/><path class="cls-1" d="M22.9,66.91l.28.25A1.73,1.73,0,0,0,22.9,66.91Z"/><path class="cls-1" d="M21.71,64.65l-.21,0C21.65,64.74,21.74,64.75,21.71,64.65Z"/><path class="cls-1" d="M31.07,19.11c-.7,0-1.59-.13-1.28.2l.39.27A1.8,1.8,0,0,1,31.07,19.11Z"/><path class="cls-1" d="M16.78,43.78l.16-.13-.32-.45C16.67,43.38,16.71,43.57,16.78,43.78Z"/><path class="cls-1" d="M18.49,44.5l-.38.63A2.58,2.58,0,0,0,18.49,44.5Z"/><path class="cls-1" d="M32.62,76.68l.58-.13C32.68,76.2,32.79,76.53,32.62,76.68Z"/><path class="cls-1" d="M55.78,14.07a4.57,4.57,0,0,0-1.23-.45C55.13,14,55.57,14.4,55.78,14.07Z"/><path class="cls-1" d="M18.34,68.28c.2.17.33.22.41.16C18.55,68.26,18.41,68.18,18.34,68.28Z"/><path class="cls-1" d="M53.07,13.52a2.06,2.06,0,0,0,.26.12,3.53,3.53,0,0,1,1.22,0A1.52,1.52,0,0,0,53.07,13.52Z"/><path class="cls-1" d="M77.1,68.47l.1-.06S77.13,68.41,77.1,68.47Z"/><path class="cls-1" d="M86.6,55.4c0,.17,0,.43-.07.69A2.36,2.36,0,0,0,86.6,55.4Z"/><path class="cls-1" d="M66.57,17c.36.15.08,0,0,0Z"/><path class="cls-1" d="M67.44,19.3a.29.29,0,0,0-.24.12A.35.35,0,0,1,67.44,19.3Z"/><path class="cls-1" d="M49.35,16.16h0C49.42,16.24,49.41,16.22,49.35,16.16Z"/><path class="cls-1" d="M67,17.4a2.57,2.57,0,0,0-.38-.33A2.13,2.13,0,0,0,67,17.4Z"/><path class="cls-1" d="M67,17.18l.29.19C67.38,17.32,67.37,17.26,67,17.18Z"/><path class="cls-1" d="M66.08,16.76a4,4,0,0,1,.54.31c-.06-.06-.08-.09-.05-.1Z"/><path class="cls-1" d="M54.89,83.44l.08,0C55.28,83.24,55.14,83.29,54.89,83.44Z"/><path class="cls-1" d="M26.73,28.47s0,0,0,0l0,0Z"/><path class="cls-1" d="M26.16,29.57a1,1,0,0,1,.54-1.12l-1.2-.54C25.71,28.47,25.93,29,26.16,29.57Z"/><path class="cls-1" d="M26.6,71.77l-.27-.87c1.16.32,1.46,1,1.36,0-.53.4-1.14-.12-1.64-.74s-1-1.23-1.59-.88l-.1-.61c.09.14.17.11.25.24-.11-1.21-1.27-.08-1.85-1.39-.17-.47-.17-.86.14-.66L22,66.16c-.13-.29.11-.33.25,0-.31-.46-.55-1-.83-1.42h0A6,6,0,0,1,20.44,64c0-.46.22.14.33,0-.23-.23-.48-.46-.7-.71.1-.24.29-.22.49-.06a1.86,1.86,0,0,1,.54.73c.43-.66.27-.78,0-1a1.64,1.64,0,0,1-.55-1.55l.45.73c.53-.79.05-1.3.18-2.32C21,60.08,20.69,62,20,61.19a1.46,1.46,0,0,0-.52-1.08c.46-.15.22-.61,0-1.23l.63-.12c-.35-.62-.65-.49-1-.82-.14-.78.3-1,.69-1.29-.08-1.24-.65,1-1-.44a3.17,3.17,0,0,0-.18-1.42c-.15-.45-.41-.92-.61-1.54.19-.75.4.1.57-.18l-.54-.61c0-.16.16-.12.24-.1-.22-.54-.64,0-.86-.88-.35-.11-.14-.57.11-1.13a1.69,1.69,0,0,0,.17-1.75c.2-.26.39.15.64.08a21.5,21.5,0,0,0-.85-2.57l.57-1c-.59.69-1-.37-1.33-1.35a6.26,6.26,0,0,0-.62.59,9.41,9.41,0,0,1-.06-1.5c.14-.15.32.05.52.33a1.71,1.71,0,0,0-.08-.29c.36-.45.65-.1.91.33l-.51.41c.32.42.7.82,1.08.82a1.07,1.07,0,0,1-.1-.48c.09.11.17.18.24.15s-.06-.2-.15-.45l.77-.15-.26-.14.88-1.6c-.1-.35-.22-.71-.33-1.07s-.17-.73-.24-1.12a6.52,6.52,0,0,1,.1-2.72c.25.67.74.43,1.29.7-.82.27-.29,1.59-.77,2.51.25-.49.49-.28.54-.12L20.07,38c.45.23.47-.23.89-.58-1.07-.07,0-1.53.06-2.36.32.11.54.44.07,1.23,1.12-.56-.51-1.76.61-2.32-.11.2-.22.28-.12.44,0-.6.91-1.61,1-1.19l-.12.2c.23-.31.48-.71.74-1.14s.59-.86.83-1.29c.5-.86.79-1.69.56-2a6.53,6.53,0,0,1,.74,1c-.16-1.28-.24-2.59-.28-4,.37.68,2.23,1.22,1.69,2.43a2.59,2.59,0,0,0,1-1.15c-.25.09-1.19-.33-1-.61a7.64,7.64,0,0,0,2.09-.38c-.38.13-.84-1-.37-1.37,0,.19.77.83.69,1.06a14.73,14.73,0,0,1,.4-1.8c-.17.38.55.78,1,.84-.25-.08,1-.72,1.24-1l-.64.16c1.38-.85.43-2.24,1.91-3.09-.06.31.32,1.48,1.09,1.18a10.59,10.59,0,0,1,.21-2,4.49,4.49,0,0,1,1.18-2.3l.41.17a10.34,10.34,0,0,1,.94-.83c-.19.51-.55,1.46-.93,2.36s-.76,1.78-1,2.33c.66,0,.34.27,1.13-.15.42.14-.23.63-.45.75l1.93-.7c-.18-.29.1-.62.4-.93s.65-.55.51-.8a17.81,17.81,0,0,0-1.8,1.56,1.54,1.54,0,0,1,.23-1.43,2.73,2.73,0,0,1,1.68-1.34c.46.12.15,1.22.26,1.42.1-.28,1.19-.9,1.37-.8l-.48.56c.43,0,.67-.35,1-.64a1.09,1.09,0,0,1,1.2-.3c.36,0,1.21.59,1.17.19a5.12,5.12,0,0,1-1.18-3.54c.07,0,.6.06,1.16.15a4.44,4.44,0,0,1,1.4.44c.69.5-.62,1.54,0,2,0-.18.26-.45.38-.54.39.1,0,.58.72.38,0-.69,1.61-.19.29-.63.76-.29.84,0,1.76-.11-.35-.42.71-1.54,1.54-1.77,0,.17.15.39.25.49.41,0,.78,0,1.12,0s.66.12,1,.17a13.5,13.5,0,0,0,2,.27c.13.17.84.42.5.68a1.54,1.54,0,0,1,.92-.23c.81.72-1-.07-.45.74.1-.38,1.26-.36,2-.5-.1-.64-1.53-.35-2.21-.21.08-.84,1.36-1.54,3.12-1.66,1.36,0,.45.65.71.57a3.27,3.27,0,0,0,2.34,0,1.79,1.79,0,0,1,2,.34c.61.79-.31,1-.27,1.45a2.72,2.72,0,0,1-1.2-.53,3.4,3.4,0,0,0-1-.48l.79.47a2.14,2.14,0,0,1-1.43-.2c.54.56,3.94,1.24,5.43,2.48.37,0,1,.06.82-.26l-.57-.19c-.32-.63,1.28-.05.67-.56a12.33,12.33,0,0,1,1.41.15,3.64,3.64,0,0,1,.74.22,3.26,3.26,0,0,1,.68.48l-.12.65c.07-.17-.46-.71-.83-.71.55,0,1.08,1.62,2,1.21l-.48-.79c.85.18,2.16.13,2.87,1,0-.78-.22-.09-.44-1.11.07,1.07-2.31-1.46-1.9-.12-.25-1.09-.94-1-1.52-2.09-.07.19.14.5-.62,0a1.25,1.25,0,0,1-.26.07l0,0,0,0c-.05,0-.06,0,0,0a1,1,0,0,1,.27.47c-.61.22-1.86-.39-2.38-.38-.42-.31.29-.11.12-.44a7,7,0,0,0-.78.06c.11-.44-1-1.18.23-1l-1.05-.41a3.44,3.44,0,0,0-2-.87c-.49-.23-1.44.14-.9-.09l-1.78-.17v-.11a10.66,10.66,0,0,0-2.68-.25,7.76,7.76,0,0,1-2.81-.64,6,6,0,0,1-2.17,0l-.19-.4c-.75.09-2.29-.3-2.6.11a1.42,1.42,0,0,0-1-.43A3.92,3.92,0,0,0,46,13a19.1,19.1,0,0,1-2.69.53l0,.51a10.81,10.81,0,0,0-2.76,1l.19.41c-.84.54-2.45.44-3.88,1,0-.19.41-.28.71-.28a2.77,2.77,0,0,0-1.44.18,6.32,6.32,0,0,0-1.2.81,4.89,4.89,0,0,1-2.37,1.31,1.24,1.24,0,0,1-.86.51.19.19,0,0,0,.08-.07l-.15.08c-.2,0-.4,0-.62.1a2.11,2.11,0,0,0,.54-.05,6.69,6.69,0,0,0-1,.81l-.44-.29-.08.07c-.5.09-.2.38.22.55a1.77,1.77,0,0,0-.35.6c-.75-.41-.82.94-1.73.58,0,.26-.43.67-.81,1.12s-.65,1-.46,1.42c-.08-.07-.22,0,0-.19a2.28,2.28,0,0,0-1.07,1l-.59-.29a11.87,11.87,0,0,0-.21,1.37c-.72.25-1.08.32-1-.52-.58,1.73-.72,1.19-1.09,2.7l-.27-.31c-.29.41-.34,1.37-.78,1.41-1.38.4-3.2,4.49-5,6.87.66,0,.39.23.07.55s-.65.74-.25,1c-.31,0-.6.38-.66-.15-.24,1.5-1.24,2-.74,3.21-.3.09-.3-.42-.5-.32,0,.14.11.53-.09.64s-.16-.28-.22-.54a1.57,1.57,0,0,0,1.2,2.15,1.63,1.63,0,0,0-.46.83,1.37,1.37,0,0,0,.31.84c-.3.21-.63.6-.58-.34-.11.5-.88,3.13-.22,3.25-.17.15-.08.73,0,.87a17.82,17.82,0,0,0-.15,2.41l.12-.31c.72.45.16.94.3,1.86l-.08,0A2.72,2.72,0,0,0,15,53.39c.1.22.07.44-.07,1.51l.46-.17c1.06.05-.33,1.89.26,3l.2-.48c.42.56-.94,2.09-.9,2.82-.05.17-.2-.19-.32-.38-.13,1.91.67.07,1.14,1.31-.25.33-.93-.06-.72.83-.08.53,1.9,2.1,1.8,3.45.12-.35.24-.69.69-.22.49.78.19,2.76,1.35,3.1a.27.27,0,0,1-.09.24c.56.52,1.52,1.82,2.11,1.93-.52.74.34,1.52,1.12,2.21s1.57,1.23,1,1.72l1.54,1.58-.15.07a2.78,2.78,0,0,0,2.18,1.19c.17.29-.1.24-.18.28,1.29,1.64,1.6,1.66,3.4,2.08l-.15.51c.27,0,.74.64,1.47,1.24a6.14,6.14,0,0,0,2.67,1.54.36.36,0,0,1-.3.1c1.17.22,2.21,1.18,3.27,1.78s2,1,2.68.27a13.56,13.56,0,0,0,1.56,0c-1.8-.61.48-.68-.18-1.17.72.08,1.69,1,.79.87l-.11-.13c-.57.82,2.19.94,2,1.51a43.7,43.7,0,0,0,11.07,1c-.16-.23-.32-.44-.48-.68.41,0,.82-.09,1.23-.13.34.12.51.5-.38.6.52.34,1.44-.57,1.43-.73,1.77,0-.53.95,0,.88l.72-.16-.18-.06a2.77,2.77,0,0,1,1.57-.89c.69,0,.44.35.71.31,0,0,.1,0,.4-.08l1.56-.34-.77-.39c.59-.44,1.42-.36.54-.79.65.34,2-.1,3.37-.57a19.94,19.94,0,0,1,2.83-1.24,9,9,0,0,1,2.51-1.87c-.31,0-.8-.41.1-.86.2.65.69.56,1.25.27a2.93,2.93,0,0,1,1.82-.57c-.49,0,.07-.5.57-1s.85-1,.14-.94c.7-.49.36.35,1,.15a14.74,14.74,0,0,1,2.38-2.35,12.86,12.86,0,0,0,2.57-2.68c-.12-.14-.58,0-.47-.56l1.51-.55c.22-.47-.52-.92.45-1.36-.19,0-.48.07-.35-.25a18.38,18.38,0,0,0,3.55-6.57c.39-1.2.86-2.37,1.21-3.59a17.74,17.74,0,0,1,.7-1.78c.28-.59.47-1.2.78-1.79-.44.62-.4.16-.33-.35-.14.32-.43-.08-.68-.05.31-.65.67-1.31,1-2-.64-.44.07-2.26-.55-2.5l.08.66c-.7-.88-1.72,1.12-2.66.9a.85.85,0,0,1,.14.8,5.24,5.24,0,0,1-.48.89A2,2,0,0,0,83.12,57c-.24.28-.26-.34-.5-.21.37.45.31.91-.07,1.68l-.08-.11a9.27,9.27,0,0,1-.93,2.73l-.67,1.22A15.37,15.37,0,0,1,80,63.75l.52,0a2.2,2.2,0,0,1-.71.71c.36.9.72-1.41,1.19-.55-.61.15-1,1-1.48,1.9s-1,1.62-1.6,1.55c-.45.73.6.07.14.81l-.37,0,.21.4a.87.87,0,0,1-1.06.33,2.15,2.15,0,0,0,.24-.48c-.72.38-1.13,1.7-1.37,1.84l.64-.55a12.06,12.06,0,0,1-1,1.53l-1.29,1.43-.63.73c-.23.22-.45.45-.67.68a11.71,11.71,0,0,0-1.14,1.43l.28,0c-1.09,1.46-1.27.68-2.68,2l0-.08a2.17,2.17,0,0,1-1,1c.28-.47-1,0-.66-.53-1.39,1.35-.59.81-1.31,2.14l-.44-.2a1.86,1.86,0,0,1-1,1.18c.59-.64-.79-.25-.17-1a2.9,2.9,0,0,0-1.29.36,6,6,0,0,0-.89.54c-.52.36-.94.63-1.56.22-.55,1.3,1.83-.06,1.42.33.54.16-.47,1-1.12,1.11s-1.47-.93-3-.5c.15,0,.14-.12.3-.15-.64-.13-1.06.69-1.88.36-.3.67-1,.1-.94.9l1.45-.4c-.79.33-1.46,1.37-2.94,1.14a2.6,2.6,0,0,1,.76-.61c-.44-.18-.77.3-1.22.08,0-.76,1.78-.44,2.57-1.16-.47-.27-1.58.82-1.26-.09-.24.59-.64.61-1.09.62a1.77,1.77,0,0,0-1.49.32l.05-.47a2.12,2.12,0,0,1-.83.32l.54-.64c-.86.56-1.68-.34-2.49-.13.86,0,1,.18.93.36s-.18.43.19.59c-2.21.57-1.23-1.29-3.61-1.18.33,0,1.19.34.67.54a2.53,2.53,0,0,1-1.28-.66c-1.58-.15.18.52-.53.7-.46-.65-.81.12-1.56.19l.08-.47c-1.74-.65-.69.89-2.24.13l.84-.47-.87,0,.3-.49a2.48,2.48,0,0,1-2.08-.43c.09.39-.38.79-1.17.52-.43-.47.45-.33-.67-.66.36-.19.75-.45,1.07.14.1-.13.34-.2.44-.33-.44-.51-1.36-.58-1.75-.71a1.25,1.25,0,0,1,.38.25c-.3,0-.61,0-.9,0L37,80.22c-.17-.28.08-.32.33-.36a6.2,6.2,0,0,1-1.1-.18c.29-.29.44-.67,1.14-.54l-1.6-.28c0-.19-.5-.77-.25-.81-.59-.65-2.2-.42-3-1.32a.64.64,0,0,1-.46-.09c-.41-.36-.73-.78-1.12-1.15a4.19,4.19,0,0,0-.65-.51,2.88,2.88,0,0,0-.82-.43l-.06-1c-.85-.56.13,1.32-1.3.38-1.05-.66.08-.73-.07-1.16-.63-.18-1.88-.48-2.19-1.66C26.22,71.28,26.33,71.56,26.6,71.77ZM20,61.21c.18.2.63.54.43.81C19.86,62,20,61.65,20,61.21ZM18.16,42.1c.1.22,0,.48-.3.76A1.41,1.41,0,0,1,18.16,42.1ZM62.55,15.74h0C62,15.36,62.17,15.51,62.55,15.74Zm1.13.64c.15,0,.16-.08.14-.17-.13.09-.41,0-.7-.15C63.16,16.21,63.28,16.35,63.68,16.38ZM59.25,85.91,59,85.85C59.49,85.58,59.37,85.74,59.25,85.91Z"/><path class="cls-1" d="M18.29,44.41a.53.53,0,0,1-.27.06C18.08,44.58,18.18,44.6,18.29,44.41Z"/><path class="cls-1" d="M32.51,76.7l0,0,.08,0Z"/><path class="cls-1" d="M44.91,18.52a1,1,0,0,1-.5-.18C44.42,18.46,44.55,18.54,44.91,18.52Z"/><path class="cls-1" d="M70.17,18.69l-.78-.32a1.3,1.3,0,0,1,.56.52C70,18.79,70,18.56,70.17,18.69Z"/><path class="cls-1" d="M73.92,25.27c.12,0,.18.16.31.19l.13-.18C74,25,73.62,24.87,73.92,25.27Z"/><path class="cls-1" d="M70,20.44c-.18.39.35.49.83.78l-.08-.06C71.18,20.79,70.59,20.58,70,20.44Z"/><path class="cls-1" d="M70.91,21.29a1.79,1.79,0,0,1,.42.3C71.52,21.44,71.19,21.42,70.91,21.29Z"/><path class="cls-1" d="M65.3,16.73c.2.22.36-.4.44-.18C66.22,16.2,63.82,16.35,65.3,16.73Z"/><polygon class="cls-1" points="69.61 21.79 69.72 21.27 69.24 21.45 69.61 21.79"/><path class="cls-1" d="M66.07,19.35l.72.5c0-.08.15-.08.3-.05C66.61,19.55,66.12,19.21,66.07,19.35Z"/><path class="cls-1" d="M67.09,19.8a1.62,1.62,0,0,0,.64.28A2.77,2.77,0,0,0,67.09,19.8Z"/><polygon class="cls-1" points="68.53 21.31 68.36 21.09 67.86 20.74 68.53 21.31"/><path class="cls-1" d="M57.24,16.22h-1c-.13.15.11.3.47.28S57.35,16.41,57.24,16.22Z"/><path class="cls-1" d="M59.67,18.23c-.21-.16-.2-.28-.29-.47l-.19.59Z"/><path class="cls-1" d="M57,17.73c-.12.15-1.39.29-.25.42C56.92,18,57.84,18,57,17.73Z"/><polygon class="cls-1" points="43.19 17.1 43.42 17.04 43.18 16.05 43.19 17.1"/><path class="cls-1" d="M33.13,23.93c1-.33-.12-.66.84-.89.09-.33-.79.19-.68-.11C32.88,23.47,32.52,23.52,33.13,23.93Z"/><path class="cls-1" d="M33.29,22.93c.06-.09.13-.19.19-.3A1,1,0,0,0,33.29,22.93Z"/><polygon class="cls-1" points="87.4 52.67 87.65 51.91 87.28 52.39 87.4 52.67"/><path class="cls-1" d="M86.72,51.18l.65-.17-.56-.46C86.83,50.72,86.87,51.06,86.72,51.18Z"/><path class="cls-1" d="M20.72,59.08h-.16c-.14.14-.11.3-.06.6Z"/><polygon class="cls-1" points="23.87 67.3 23.8 67.16 23.46 67.72 23.87 67.3"/><path class="cls-1" d="M29.06,72.56a5.92,5.92,0,0,1-.72-.62C28.84,72.36,28.62,73.13,29.06,72.56Z"/><text class="cls-2" transform="translate(37.37 77.32)">G</text></svg>
