<svg id="Layer_1" data-name="Layer 1" xmlns="http://www.w3.org/2000/svg" viewBox="0 0 200 100"><defs><style>.cls-1{font-size:44.15px;font-family:AmaticSC-Bold, Amatic SC;font-weight:700;}.cls-1,.cls-3,.cls-4,.cls-5{fill:#fff;}.cls-2{font-size:54.45px;letter-spacing:0em;}.cls-4{font-size:14.13px;}.cls-4,.cls-5{font-family:Economica-Regular, Economica;}.cls-5{font-size:12px;}</style></defs><title>stortlogo</title><text class="cls-1" transform="translate(53.51 46.99)">AN<tspan class="cls-2" x="33.64" y="0">G</tspan><tspan x="54" y="0">ELO</tspan></text><path class="cls-3" d="M170.86,48.76c.21,0,.13-.19.17-.23C170.67,48.58,170.87,48.82,170.86,48.76Z"/><polygon class="cls-3" points="167.4 49.24 167.46 49.15 166.95 49.36 167.4 49.24"/><path class="cls-3" d="M164.16,49.23c.31.36,1.17,0,1.75.07l.09.08.27-.28A11.75,11.75,0,0,1,164.16,49.23Z"/><path class="cls-3" d="M162.43,48.46c.11.14-.37.12.41,0l-.08,0Z"/><path class="cls-3" d="M162.76,48.47c.34,0-.22-.12,0,0Z"/><path class="cls-3" d="M161.19,48.55l.45-.12c-.1-.09-.5-.1-.35-.16C160.83,48.33,160.93,48.41,161.19,48.55Z"/><path class="cls-3" d="M160.76,48.81l.24-.05S160.89,48.71,160.76,48.81Z"/><path class="cls-3" d="M161.49,48.65l-.49.11c.06.06.07.17.22,0C161.18,48.82,161.28,48.72,161.49,48.65Z"/><path class="cls-3" d="M161.77,48.7c.25.08.58.13.13.25C162.75,48.9,162.63,48.65,161.77,48.7Z"/><path class="cls-3" d="M164,49.6l.34.11.29-.12C164.48,49.65,164,49.49,164,49.6Z"/><path class="cls-3" d="M158.39,48.36c0,.08.15.21.19.3l.33-.08C158.74,48.53,158.41,48.48,158.39,48.36Z"/><path class="cls-3" d="M158.58,48.66l-.5.13C158.52,48.81,158.6,48.75,158.58,48.66Z"/><polygon class="cls-3" points="160.68 49.21 161.5 48.93 160.53 49.21 160.68 49.21"/><polygon class="cls-3" points="156.5 48.35 156.78 48.18 156.28 48.45 156.5 48.35"/><path class="cls-3" d="M155.24,48.39c.21-.15-.29-.25-.07-.34a2.9,2.9,0,0,0-.89.26A1.83,1.83,0,0,1,155.24,48.39Z"/><path class="cls-3" d="M153.84,48.48a3.57,3.57,0,0,0,.44-.17A1.82,1.82,0,0,0,153.84,48.48Z"/><path class="cls-3" d="M157.23,48.76a.5.5,0,0,0-.39-.22l.2.21Z"/><path class="cls-3" d="M157.05,48.76h-.43Z"/><path class="cls-3" d="M157.28,48.76h-.05S157.26,48.79,157.28,48.76Z"/><path class="cls-3" d="M159.38,49c-.29.12-.9.25-.31.43C159.28,49.3,158.94,49.19,159.38,49Z"/><path class="cls-3" d="M157.53,49l.52,0s-.1-.13,0-.19Z"/><polygon class="cls-3" points="157.27 49.09 157.53 49.02 157.33 49.01 157.27 49.09"/><path class="cls-3" d="M154.74,48.68a2.29,2.29,0,0,1-.76.11,5.58,5.58,0,0,0,.91.07C154.93,48.79,155.06,48.67,154.74,48.68Z"/><path class="cls-3" d="M155.86,48.74h-.05S155.87,48.77,155.86,48.74Z"/><path class="cls-3" d="M151.21,48.79l0,0a.08.08,0,0,1,0,0Z"/><path class="cls-3" d="M154.94,48.9a.67.67,0,0,0,.49-.08,4.56,4.56,0,0,1-.54,0S154.87,48.91,154.94,48.9Z"/><path class="cls-3" d="M153.06,48.58l.4.11C153.34,48.63,153.11,48.52,153.06,48.58Z"/><path class="cls-3" d="M155.73,48.69h0C155.69,48.63,155.7,48.66,155.73,48.69Z"/><path class="cls-3" d="M155.73,48.69a1.36,1.36,0,0,0-.3.13l.38-.07Z"/><path class="cls-3" d="M150.37,50.16c0-.19.64-.38,1.15-.17.51-.14.18-.8-.26-1.16,0,.09,0,.17-.54.28.18.11,1.15.26.72.44-.69.1-.57-.07-.91-.18.29.25-.87.36-.72.72l.6-.12C150.42,50,150.2,50.11,150.37,50.16Z"/><path class="cls-3" d="M152.25,48.85l.21,0a2.71,2.71,0,0,1-.74-.27c-.36.09-.43.17-.45.23l1,0Z"/><path class="cls-3" d="M153.43,48.83c-.17.21-.69.3-.37.54.63,0,.44-.18.81-.28-1,.06.3-.12-.44-.24a3.84,3.84,0,0,1,.55-.06,4,4,0,0,1-.52-.1l0,0h0c.05,0,.06,0,0,0h0a.2.2,0,0,1,0,.08c-.3,0-.05,0,0-.08s0,0,0,0h0l-1,.12A6,6,0,0,0,153.43,48.83Z"/><path class="cls-3" d="M158.53,49.91a.05.05,0,0,1,0,0C158.43,49.88,158.41,49.9,158.53,49.91Z"/><path class="cls-3" d="M158.11,49.78a.53.53,0,0,1,.38-.1c.2.07,0,.11,0,.18s.5-.16.05-.26l-.07,0c-.41-.08-.94-.35-.87-.38A1.53,1.53,0,0,0,158.11,49.78Z"/><path class="cls-3" d="M155.74,49.36l-.85.1.43.19,0-.11C155.78,49.58,155.68,49.44,155.74,49.36Z"/><polygon class="cls-3" points="151.11 48.69 151.23 48.46 150.74 48.78 151.11 48.69"/><polygon class="cls-3" points="150.01 48.71 150.05 48.51 149.76 48.63 150.01 48.71"/><path class="cls-3" d="M87.91,51.17l-.25,0A.89.89,0,0,0,87.91,51.17Z"/><path class="cls-3" d="M89.71,51.18l.05-.1C89.68,51.14,89.64,51.18,89.71,51.18Z"/><path class="cls-3" d="M123,48.73c-.37-.18-.77-.47-.73-.24l.11.21A1.52,1.52,0,0,1,123,48.73Z"/><path class="cls-3" d="M104.48,50l.1.06.25-.2Z"/><path class="cls-3" d="M104.22,50.93l-.48-.14A2.64,2.64,0,0,0,104.22,50.93Z"/><path class="cls-3" d="M78.07,51.4l-.29.22C78.24,51.62,78,51.51,78.07,51.4Z"/><path class="cls-3" d="M138.74,48.79a3.82,3.82,0,0,0-.78-.13C138.34,48.79,138.64,49,138.74,48.79Z"/><path class="cls-3" d="M88.62,48.86c-.15,0-.22.09-.21.14C88.57,49,88.65,48.92,88.62,48.86Z"/><path class="cls-3" d="M137.06,48.66l.16.05a4.24,4.24,0,0,1,.74-.05A1.17,1.17,0,0,0,137.06,48.66Z"/><path class="cls-3" d="M42.39,51.22l-.08,0S42.34,51.22,42.39,51.22Z"/><path class="cls-3" d="M32,49a2.62,2.62,0,0,1,.42,0A1.67,1.67,0,0,0,32,49Z"/><path class="cls-3" d="M145.59,48.62c.23,0,0,0,0,0Z"/><path class="cls-3" d="M146.72,49.48c-.05,0-.09.05-.09.1A.18.18,0,0,1,146.72,49.48Z"/><path class="cls-3" d="M134.73,50h0C134.78,50.05,134.77,50.05,134.73,50Z"/><path class="cls-3" d="M145.94,48.72l-.3-.07Z"/><path class="cls-3" d="M145.89,48.61l.2,0S146.1,48.58,145.89,48.61Z"/><path class="cls-3" d="M145.26,48.63l.38,0s-.07,0,0,0Z"/><path class="cls-3" d="M61.51,50.64l0,0C61.23,50.71,61.33,50.69,61.51,50.64Z"/><path class="cls-3" d="M116.91,51h0Z"/><path class="cls-3" d="M116.07,51.15a.84.84,0,0,1,.83-.18l-.27-.63Z"/><path class="cls-3" d="M83.6,51.23l.59.19c-.71.33-1.23.21-.67.49.08-.68,2.28-.07,2.37-.75l.38.14c-.11,0-.12,0-.23,0,.75.33.56-.49,1.53-.39.34.05.57.15.34.23l.76-.17c.22,0,.16.13,0,.12l1.15-.06v0a5.93,5.93,0,0,1,.72-.34c.29.1-.15.07-.07.16l.63-.17c.26.18-.27.35-.71.33.6.67.53-.18,1.82.22l-.6.09c.38.38.85.24,1.54.48-.17-.12-1.37-.6-.68-.77a1.38,1.38,0,0,0,.83-.06c0,.24.37.18.82.17l0,.32c.5-.1.46-.26.75-.4a.82.82,0,0,1,.79.48c.88,0-.61-.39.43-.45a5.2,5.2,0,0,0,2.13-.2c.51.11-.09.19.09.28l.46-.25c.11,0,.07.08,0,.12.39-.1,0-.32.64-.4.16-.36,1.23.51,2,.11.18.09-.09.2,0,.32a7.58,7.58,0,0,0,1.72-.54l.71.21c-.52-.24.15-.53.74-.76a4.67,4.67,0,0,0-.46-.27l.94-.17c.12,0,0,.16-.13.3l.17-.08c.33.12.16.3-.08.48l-.34-.2c-.23.2-.45.41-.4.6a.73.73,0,0,1,.31-.08c-.06,0-.1.1-.07.13s.13,0,.28-.12l.21.36.06-.15,1.22.23a9.44,9.44,0,0,1,3-1c-.35.26-.08.43-.09.74-.38-.33-1.08.14-1.81.07.38,0,.3.18.2.24l1.29-.3c0,.25.27.19.61.29-.25-.5,1-.33,1.48-.49,0,.17-.09.34-.73.3.71.38.91-.58,1.61-.26-.16,0-.24,0-.31.06.37-.15,1.26,0,1,.12h-.16c1,.06,3.16,0,3.31-.42a2.06,2.06,0,0,1-.19.6l1.85-1.44c-.17.37.46,1.24-.4,1.45A2.14,2.14,0,0,0,118,51c-.17-.05-.42-.53-.19-.56A4.77,4.77,0,0,0,119,51c-.25-.08,0-.65.42-.63-.06.09,0,.57-.11.62l1-.56c-.25.1,0,.48.17.64-.1-.11.86,0,1.13-.05l-.42-.13c1.12.09,1.1-.79,2.21-.76-.13.12-.33.72.24.79a4.78,4.78,0,0,1,2.13-1.61l.19.16.75-.18a15.47,15.47,0,0,1-2.51,1.7c.42.13.12.19.75.18.22.15-.34.23-.53.24l1.46.1c-.06-.34,1.12-.34,1.07-.62l-1.59.35c-.07-.34.92-1,1.95-.89.26.13-.2.59-.17.71a2,2,0,0,1,1.07-.14l-.44.18c.58.12.95-.45,1.64-.13.24,0,.71.43.76.24a1.92,1.92,0,0,1-.21-1.86,9.44,9.44,0,0,1,1.53.55c.39.3-.59.72-.26,1,0-.09.23-.21.32-.24.26.08-.1.28.45.24.09-.34,1.11,0,.25-.29.54-.1.57.07,1.2.06-.2-.22.56-.75,1.1-.85,0,.09.09.2.14.25,1.1,0,1.69.19,2.71.19.09.08.58.18.37.33a1.25,1.25,0,0,1,.6-.18c.61.29-.7,0-.24.4,0-.2.82-.28,1.27-.4-.14-.31-1-.06-1.49.06,0-.42.78-.86,1.85-1.06.85-.1.37.28.51.22,1.59.07,1.36-.74,2.68-.44.53.27,0,.54.14.73-.69.1-1.06-.17-1.53-.16l.58.13a1.72,1.72,0,0,1-.93.08c.44.24,2.69.05,3.92.27.22-.09.59-.18.41-.29l-.38,0c-.36-.22.73-.3.23-.41a4,4,0,0,1,1.85-.27l.13.31c0-.09-.48-.18-.68-.09.3-.13,1.12.42,1.46,0l-.52-.22a4.33,4.33,0,0,1,1.82-.38c-.29-.3-.15,0-.61-.32.4.44-1.66,0-1,.45-.47-.42-.82-.18-1.44-.53,0,.1.22.19-.33.14a.38.38,0,0,1-.12.09h0s0,0,0,0a.71.71,0,0,1,.28.16c-.27.23-1.14.22-1.44.34-.32,0,.14-.12,0-.22l-.44.18c0-.23-.86-.38-.09-.51h-.69a2.82,2.82,0,0,0-1.31-.08c-.32-.05-.82.25-.53.07l-1.08.14v0c-1.06,0-2.19.37-3.41,0a4.07,4.07,0,0,1-1.32.06l-.12-.19c-.46.07-1.38-.19-1.58,0-.49-.52-2.23-.12-3-.21l0,.26a9.85,9.85,0,0,0-1.78.15l0,.23a14.43,14.43,0,0,1-2.47-.14c.07-.08.3-.06.47,0-1.12-.51-2.37.37-3.39,0a1,1,0,0,1-.62,0h0l-.35-.12a1,1,0,0,0,.29.12,7.2,7.2,0,0,0-.78.09l-.13-.24h-.06c-.29-.09-.23.11-.08.29a1.76,1.76,0,0,0-.39.15c-.23-.39-.76.13-1.08-.28-.2.2-1.46.15-1.62.57,0,0-.1-.08.06-.08a1.76,1.76,0,0,0-.94,0l-.14-.31-.71.42c-.43-.19-.61-.3-.18-.53-1,.36-.84.13-1.72.49l0-.2c-.31,0-.81.28-1,.11-.7-.37-3.48,0-5.29-.4.35.58-.83-.26-.91.19-.1-.14-.35-.21-.06-.33-.92.13-1.38-.22-2,.16-.11-.14.2-.2.1-.29s-.29.12-.39,0,.14-.11.29-.17c-1,0-1,.44-1.11.84a.9.9,0,0,0-1.06.1c-.16-.13-.44-.26.14-.31-.33,0-2-.19-2,.13a.86.86,0,0,0-.55,0c-.73,0-.8,0-1.52,0l.2,0c-.29.39-.6.09-1.19.14l0,0c-1.34-.28-.58.13-1.9-.19l.07.24c-.12.52-1.17-.3-1.94-.1l.28.13c-.42.18-1.17-.7-1.59-.76-.1-.05.14-.07.27-.11-1.1-.3-.14.32-1,.39-.16-.17.19-.43-.36-.46-.28-.14-1.6.55-2.36.22.17.13.33.26,0,.36-.58,0-1.58-.49-2.11-.08-.07,0-.1-.07-.1-.1a6.22,6.22,0,0,0-1.72.4c-.41-.83-2.78.4-2.77-.36l-1.37,0,0-.08a2.19,2.19,0,0,0-1.49.31c-.21-.05-.06-.12,0-.16a3.9,3.9,0,0,0-2.49.26l-.11-.25c-.29.15-1.86-.39-3.11-.1,0,0,0-.07.13-.11-1.41.29-3.39-.69-3.91.22l-.93.22c1.21.07-.18.39.32.54-.48,0-1.23-.27-.65-.32l.09,0c.22-.47-1.5-.17-1.47-.49-2.37,0-4.69-.24-6.92-.26l.26.37-.78,0c-.21-.09-.28-.29.28-.27-.29-.21-.93.17-.95.25-1.08-.15.43-.43.09-.44l-.45,0,.1,0a1.66,1.66,0,0,1-1.06.29c-.42-.07-.22-.22-.38-.24,0,0-.06,0-.26,0l-1,0,.39.29c-.43.14-.92,0-.47.31-.66-.5-3.65-.18-4.06-.33a5.3,5.3,0,0,1-1.95.18c.19.06.3.38-.34.34.23-.67-1.18-.29-1.7-.77.47.32-1.82.08-1.09.53-.54,0,0-.25-.44-.41-1.27.26-2.81-.17-4.38-.08,0,.09.24.22-.1.36l-.83-.44c-.31,0-.29.5-.85.2.08.07.2.18,0,.21-3.09-.43-6.3.35-9.43-.45.42.17.14.19-.19.19.21,0,0,.22,0,.34L31.15,49c-.24.33-1.41,0-1.54.34L30,49.3c-.55.37.77.83.69,1.31.62-.43,1.63.63,2.65,0,.22.1-.19.15-.07.26a1.35,1.35,0,0,1,1.14-.15l-.07,0a32.54,32.54,0,0,1,4.13.29l-.13-.24A1.81,1.81,0,0,1,39,51c.45-.36-1.1,0-.69-.41.52.48,2.75,0,3.1.55.6,0-.17-.27.43-.27L42,51l.15-.19c.39,0,.59.22.61.34a2.47,2.47,0,0,0-.38,0,7,7,0,0,0,1.62,0l-.58-.09c1.64-.14,3.64.06,5.22-.24l-.12-.11c1.21-.21,1,.12,2.3,0l0,0a2.46,2.46,0,0,1,1-.16c-.33.14.63.26.19.4,1.31-.22.65-.17,1.52-.59l.2.19a1.47,1.47,0,0,1,1-.3c-.55.15.42.28-.19.49,1.39.4,2.07-.41,2.71.18.63-.51-1.21-.28-.85-.39-.3-.17.53-.39,1-.33S58,51,59.16,51c-.12,0-.12,0-.23,0,.41.13.82-.18,1.33,0,.29-.31.67,0,.75-.38l-1,.1c.58-.11,1.13-.57,2.09-.35a1.85,1.85,0,0,1-.56.25c.28.11.54-.08.83,0-.08.4-1.25.09-1.87.39.3.16,1.18-.29.87.14.45-.55,1.1.07,1.85-.35l0,.24a1.7,1.7,0,0,1,.59-.14l-.4.3c.62-.26,1.19.23,1.77.09-1.23,0-.27-.29-.79-.46,1.51-.32.87.62,2.57.51-.23,0-.87-.14-.51-.25a2.83,2.83,0,0,1,.95.26c1.13,0-.17-.24.31-.39.38.29.55-.12,1.05-.21v.24c1.28.16.34-.5,1.5-.31l-.49.33.6-.09-.13.28a2.78,2.78,0,0,1,1.51-.08c-.15-.17.08-.43.65-.44.39.14-.22.23.59.19-.19.15-.38.34-.74.12,0,.08-.17.15-.21.23a3.62,3.62,0,0,0,1.34,0,1.3,1.3,0,0,1-.32-.06l1.17-.33c.18.09,0,.16-.11.23a5.93,5.93,0,0,1,.75-.16c-.09.2-.07.4-.56.49l1.11-.21c.08.08.58.23.43.3.62.12,1.51-.38,2.33-.23a.75.75,0,0,1,.3-.1,5.83,5.83,0,0,0,2.36,0l.52.35c.71-.08-.7-.44.49-.58.84-.11.31.3.61.4a2.49,2.49,0,0,1,1.91-.25A4.05,4.05,0,0,1,83.6,51.23Zm8.8-.16c-.17,0-.51.21-.64.07C92,50.86,92.11,51,92.4,51.07Zm13.37-.58a.63.63,0,0,1-.54-.05A1.3,1.3,0,0,1,105.77,50.49ZM143,48.81l0,0C142.63,48.73,142.76,48.77,143,48.81Zm.79.11c.08,0,.07-.07,0-.1s-.23.06-.44,0C143.48,48.93,143.58,49,143.82,48.92ZM59,49l.15.07C58.82,49.15,58.92,49.08,59,49Z"/><path class="cls-3" d="M104.26,50.82a.2.2,0,0,1-.08-.13C104.12,50.73,104.11,50.78,104.26,50.82Z"/><path class="cls-3" d="M78.13,51.36h0l0,0Z"/><path class="cls-3" d="M131.59,51a.78.78,0,0,1-.32-.12C131.26,50.9,131.34,51,131.59,51Z"/><path class="cls-3" d="M148,48.51l-.5.06a1,1,0,0,1,.45.08C147.94,48.59,147.84,48.51,148,48.51Z"/><path class="cls-3" d="M152.39,50c.08,0,.16,0,.23,0l0-.11C152.29,49.86,152.07,50,152.39,50Z"/><path class="cls-3" d="M148.47,49.31c0,.2.36.13.71.1h-.06C149.22,49.12,148.85,49.22,148.47,49.31Z"/><path class="cls-3" d="M149.26,49.4a1.82,1.82,0,0,1,.33,0C149.63,49.28,149.46,49.37,149.26,49.4Z"/><path class="cls-3" d="M144.82,48.78c.17.06.1-.26.2-.17C145.21,48.35,143.9,48.92,144.82,48.78Z"/><polygon class="cls-3" points="148.76 49.98 148.63 49.73 148.43 49.93 148.76 49.98"/><path class="cls-3" d="M146,49.79l.57.07s.06-.06.15-.08C146.33,49.77,146,49.72,146,49.79Z"/><path class="cls-3" d="M146.68,49.78a1.44,1.44,0,0,0,.45,0A2.57,2.57,0,0,0,146.68,49.78Z"/><polygon class="cls-3" points="147.98 50.05 147.82 50 147.42 49.98 147.98 50.05"/><path class="cls-3" d="M139.87,49.75l-.61.07c-.07.08.1.14.33.1S140,49.83,139.87,49.75Z"/><path class="cls-3" d="M141.74,50.43c-.17,0-.18-.11-.27-.19l0,.31Z"/><path class="cls-3" d="M139.94,50.5c-.06.09-.9.25-.11.23C139.89,50.65,140.51,50.58,139.94,50.5Z"/><polygon class="cls-3" points="130.63 50.11 130.79 50.11 130.76 49.6 130.63 50.11"/><path class="cls-3" d="M122.42,51.33c.74.12.18-.31.84-.16.17-.12-.54-.13-.36-.23C122.45,51.07,122.22,51,122.42,51.33Z"/><path class="cls-3" d="M122.9,50.94a1.19,1.19,0,0,0,.22-.08A.67.67,0,0,0,122.9,50.94Z"/><polygon class="cls-3" points="30.27 48.76 29.8 48.65 30.11 48.82 30.27 48.76"/><path class="cls-3" d="M29.37,49.13l-.11-.32L29,49.1C29.08,49.09,29.29,49.06,29.37,49.13Z"/><path class="cls-3" d="M93.71,51.73l0-.08c-.07-.09-.18-.09-.4-.1Z"/><polygon class="cls-3" points="87.32 51.48 87.43 51.49 87.22 51.2 87.32 51.48"/><path class="cls-3" d="M82,51.86c.22,0,.48,0,.7,0C82.18,51.87,81.9,51.49,82,51.86Z"/><path class="cls-3" d="M170.86,67.55c.21,0,.13-.2.17-.23C170.67,67.36,170.87,67.6,170.86,67.55Z"/><polygon class="cls-3" points="167.4 68.02 167.46 67.94 166.95 68.14 167.4 68.02"/><path class="cls-3" d="M164.16,68c.31.35,1.17-.06,1.75.07l.09.08.27-.29A11,11,0,0,1,164.16,68Z"/><path class="cls-3" d="M162.43,67.25c.11.13-.37.11.41,0l-.08,0A1.73,1.73,0,0,1,162.43,67.25Z"/><path class="cls-3" d="M162.76,67.25c.34,0-.22-.11,0,0Z"/><path class="cls-3" d="M161.19,67.33l.45-.12c-.1-.08-.5-.1-.35-.16C160.83,67.12,160.93,67.2,161.19,67.33Z"/><path class="cls-3" d="M160.76,67.59l.24,0S160.89,67.49,160.76,67.59Z"/><path class="cls-3" d="M161.49,67.43l-.49.11c.06.06.07.17.22,0C161.18,67.61,161.28,67.51,161.49,67.43Z"/><path class="cls-3" d="M161.77,67.48c.25.08.58.13.13.25C162.75,67.69,162.63,67.43,161.77,67.48Z"/><path class="cls-3" d="M164,68.39l.34.1.29-.12C164.48,68.43,164,68.27,164,68.39Z"/><path class="cls-3" d="M158.39,67.15c0,.07.15.2.19.3l.33-.09C158.74,67.31,158.41,67.26,158.39,67.15Z"/><path class="cls-3" d="M158.58,67.45l-.5.13C158.52,67.59,158.6,67.53,158.58,67.45Z"/><polygon class="cls-3" points="160.68 67.99 161.5 67.72 160.53 67.99 160.68 67.99"/><polygon class="cls-3" points="156.5 67.14 156.78 66.96 156.28 67.23 156.5 67.14"/><path class="cls-3" d="M155.24,67.17c.21-.15-.29-.25-.07-.34a2.65,2.65,0,0,0-.89.27A1.72,1.72,0,0,1,155.24,67.17Z"/><path class="cls-3" d="M153.84,67.26a3.42,3.42,0,0,0,.44-.16A1.46,1.46,0,0,0,153.84,67.26Z"/><path class="cls-3" d="M157.23,67.54a.5.5,0,0,0-.39-.22l.2.22Z"/><path class="cls-3" d="M157.05,67.54h0Z"/><path class="cls-3" d="M157.28,67.54h-.05S157.26,67.57,157.28,67.54Z"/><path class="cls-3" d="M159.38,67.8c-.29.12-.9.24-.31.43C159.28,68.08,158.94,68,159.38,67.8Z"/><path class="cls-3" d="M157.53,67.81l.52,0c0-.06-.1-.14,0-.2Z"/><polygon class="cls-3" points="157.27 67.88 157.53 67.81 157.33 67.79 157.27 67.88"/><path class="cls-3" d="M154.74,67.46a2.58,2.58,0,0,1-.76.12,7,7,0,0,0,.91.06C154.93,67.57,155.06,67.45,154.74,67.46Z"/><path class="cls-3" d="M155.86,67.52h-.05S155.87,67.56,155.86,67.52Z"/><path class="cls-3" d="M151.21,67.58l0,0a0,0,0,0,1,0,0Z"/><path class="cls-3" d="M154.94,67.68a.67.67,0,0,0,.49-.08,3.12,3.12,0,0,1-.54,0S154.87,67.69,154.94,67.68Z"/><path class="cls-3" d="M153.06,67.36a3.79,3.79,0,0,0,.4.12C153.34,67.41,153.11,67.31,153.06,67.36Z"/><path class="cls-3" d="M155.73,67.47h0C155.69,67.42,155.7,67.44,155.73,67.47Z"/><path class="cls-3" d="M155.73,67.47a2.08,2.08,0,0,0-.3.13,2,2,0,0,0,.38-.07A.24.24,0,0,1,155.73,67.47Z"/><path class="cls-3" d="M150.37,69c0-.2.64-.38,1.15-.17.51-.15.18-.8-.26-1.17,0,.09,0,.17-.54.29.18.11,1.15.25.72.43-.69.1-.57-.07-.91-.18.29.25-.87.36-.72.73l.6-.13C150.42,68.81,150.2,68.9,150.37,69Z"/><path class="cls-3" d="M152.25,67.63l.21,0a2.17,2.17,0,0,1-.74-.27c-.36.1-.43.17-.45.24l1,0Z"/><path class="cls-3" d="M153.43,67.61c-.17.21-.69.31-.37.54.63,0,.44-.18.81-.27-1,.05.3-.12-.44-.25.2,0,.38,0,.55,0l-.52-.1h0c.05,0,.06.05,0,0h0a.3.3,0,0,1,0,.08c-.3,0-.05-.06,0-.08s0,0,0,0h0l-1,.12A6,6,0,0,0,153.43,67.61Z"/><path class="cls-3" d="M158.53,68.69s0,0,0,0S158.41,68.68,158.53,68.69Z"/><path class="cls-3" d="M158.11,68.56a.5.5,0,0,1,.38-.09c.2.06,0,.1,0,.17s.5-.15.05-.26l-.07,0c-.41-.07-.94-.34-.87-.37A1.61,1.61,0,0,0,158.11,68.56Z"/><path class="cls-3" d="M155.74,68.14l-.85.1.43.19,0-.11C155.78,68.36,155.68,68.23,155.74,68.14Z"/><polygon class="cls-3" points="151.11 67.47 151.23 67.24 150.74 67.56 151.11 67.47"/><polygon class="cls-3" points="150.01 67.5 150.05 67.3 149.76 67.42 150.01 67.5"/><path class="cls-3" d="M87.91,70l-.25.06Z"/><path class="cls-3" d="M89.71,70l.05-.09C89.68,69.92,89.64,70,89.71,70Z"/><path class="cls-3" d="M123,67.52c-.37-.19-.77-.47-.73-.25l.11.22A1.37,1.37,0,0,1,123,67.52Z"/><path class="cls-3" d="M104.48,68.81l.1.07.25-.21Z"/><path class="cls-3" d="M104.22,69.71l-.48-.14A2,2,0,0,0,104.22,69.71Z"/><path class="cls-3" d="M78.07,70.18l-.29.22C78.24,70.4,78,70.29,78.07,70.18Z"/><path class="cls-3" d="M138.74,67.58a3.31,3.31,0,0,0-.78-.14C138.34,67.57,138.64,67.76,138.74,67.58Z"/><path class="cls-3" d="M88.62,67.65c-.15,0-.22.08-.21.13C88.57,67.74,88.65,67.7,88.62,67.65Z"/><path class="cls-3" d="M137.06,67.45l.16,0a3.41,3.41,0,0,1,.74-.06A1.13,1.13,0,0,0,137.06,67.45Z"/><path class="cls-3" d="M42.39,70l-.08,0S42.34,70,42.39,70Z"/><path class="cls-3" d="M32,67.81h.42A1.19,1.19,0,0,0,32,67.81Z"/><path class="cls-3" d="M145.59,67.4c.23,0,0,0,0,0Z"/><path class="cls-3" d="M146.72,68.26c-.05,0-.09,0-.09.1A.18.18,0,0,1,146.72,68.26Z"/><path class="cls-3" d="M134.73,68.8h0C134.78,68.84,134.77,68.83,134.73,68.8Z"/><path class="cls-3" d="M145.94,67.5l-.3-.07Z"/><path class="cls-3" d="M145.89,67.4l.2,0S146.1,67.36,145.89,67.4Z"/><path class="cls-3" d="M145.26,67.41l.38,0s-.07,0,0,0Z"/><path class="cls-3" d="M61.51,69.42l0,0C61.23,69.49,61.33,69.48,61.51,69.42Z"/><path class="cls-3" d="M116.91,69.77h0Z"/><path class="cls-3" d="M116.07,69.93a.84.84,0,0,1,.83-.18l-.27-.62Z"/><path class="cls-3" d="M83.6,70l.59.2c-.71.32-1.23.21-.67.48.08-.68,2.28-.07,2.37-.75l.38.15c-.11,0-.12,0-.23,0,.75.33.56-.49,1.53-.39.34,0,.57.15.34.23l.76-.17c.22,0,.16.13,0,.12l1.15-.05v0a4.74,4.74,0,0,1,.72-.34c.29.09-.15.07-.07.15l.63-.16c.26.17-.27.34-.71.32.6.68.53-.17,1.82.22l-.6.09c.38.39.85.25,1.54.49-.17-.13-1.37-.61-.68-.78a1.3,1.3,0,0,0,.83-.06c0,.24.37.18.82.17l0,.32c.5-.09.46-.26.75-.4a.81.81,0,0,1,.79.49c.88.05-.61-.4.43-.46a5.2,5.2,0,0,0,2.13-.2c.51.11-.09.2.09.29l.46-.26c.11,0,.07.09,0,.13.39-.1,0-.32.64-.41.16-.35,1.23.51,2,.11.18.1-.09.2,0,.32a7.58,7.58,0,0,0,1.72-.54l.71.21c-.52-.24.15-.52.74-.76-.19-.11-.35-.21-.46-.26l.94-.17c.12.05,0,.16-.13.29l.17-.08c.33.12.16.31-.08.49l-.34-.2c-.23.19-.45.41-.4.6a.89.89,0,0,1,.31-.09c-.06,0-.1.1-.07.13s.13,0,.28-.12l.21.36.06-.14,1.22.22a9.22,9.22,0,0,1,3-1c-.35.26-.08.42-.09.73-.38-.33-1.08.14-1.81.08.38,0,.3.18.2.23l1.29-.3c0,.25.27.19.61.3-.25-.51,1-.34,1.48-.49,0,.17-.09.34-.73.3.71.37.91-.59,1.61-.27-.16,0-.24,0-.31.06.37-.15,1.26,0,1,.12h-.16c1,.06,3.16,0,3.31-.42a2,2,0,0,1-.19.6l1.85-1.43c-.17.36.46,1.23-.4,1.44a2.14,2.14,0,0,0,1.07,0c-.17,0-.42-.52-.19-.56a5.13,5.13,0,0,0,1.22.57c-.25-.08,0-.65.42-.64-.06.09,0,.57-.11.63l1-.56c-.25.1,0,.47.17.63-.1-.11.86,0,1.13,0l-.42-.13c1.12.08,1.1-.79,2.21-.77-.13.12-.33.72.24.79a4.85,4.85,0,0,1,2.13-1.61l.19.17.75-.19a14.85,14.85,0,0,1-2.51,1.7c.42.13.12.19.75.18.22.15-.34.23-.53.24l1.46.1c-.06-.33,1.12-.33,1.07-.61L125.4,70c-.07-.33.92-1,1.95-.89.26.13-.2.6-.17.71a2,2,0,0,1,1.07-.14l-.44.18c.58.13.95-.45,1.64-.12.24,0,.71.43.76.23a1.92,1.92,0,0,1-.21-1.86,10.74,10.74,0,0,1,1.53.56c.39.3-.59.71-.26,1,0-.09.23-.2.32-.24.26.08-.1.29.45.24.09-.34,1.11,0,.25-.28.54-.1.57.07,1.2,0-.2-.22.56-.75,1.1-.85,0,.09.09.2.14.26,1.1,0,1.69.18,2.71.18.09.09.58.19.37.33a1.37,1.37,0,0,1,.6-.18c.61.29-.7,0-.24.4,0-.2.82-.27,1.27-.4-.14-.3-1-.06-1.49.07,0-.43.78-.87,1.85-1.06.85-.11.37.27.51.21,1.59.07,1.36-.74,2.68-.43.53.27,0,.53.14.73-.69.1-1.06-.17-1.53-.16l.58.12a1.72,1.72,0,0,1-.93.08c.44.24,2.69,0,3.92.27.22-.09.59-.18.41-.29l-.38,0c-.36-.22.73-.3.23-.4a4,4,0,0,1,1.85-.27l.13.3c0-.08-.48-.18-.68-.08.3-.14,1.12.41,1.46,0l-.52-.21a4.33,4.33,0,0,1,1.82-.39c-.29-.3-.15,0-.61-.32.4.45-1.66,0-1,.45-.47-.41-.82-.18-1.44-.53,0,.11.22.2-.33.15a.62.62,0,0,1-.12.09h0s0,0,0,0a.61.61,0,0,1,.28.15c-.27.23-1.14.22-1.44.34-.32,0,.14-.11,0-.22l-.44.18c0-.22-.86-.37-.09-.5h-.69a2.7,2.7,0,0,0-1.31-.09c-.32,0-.82.25-.53.08l-1.08.14v-.06c-1.06,0-2.19.37-3.41,0a4.73,4.73,0,0,1-1.32.06l-.12-.2c-.46.07-1.38-.19-1.58,0-.49-.52-2.23-.11-3-.2l0,.25a9.93,9.93,0,0,0-1.78.16l0,.22a14.28,14.28,0,0,1-2.47-.13c.07-.09.3-.07.47,0-1.12-.5-2.37.37-3.39,0a.87.87,0,0,1-.62,0h0a3.59,3.59,0,0,0-.35-.12,1.38,1.38,0,0,0,.29.12,4.23,4.23,0,0,0-.78.09l-.13-.24h-.06c-.29-.09-.23.12-.08.3a1.77,1.77,0,0,0-.39.14c-.23-.39-.76.13-1.08-.28-.2.2-1.46.15-1.62.58,0-.06-.1-.09.06-.09a1.76,1.76,0,0,0-.94,0l-.14-.3-.71.41c-.43-.19-.61-.3-.18-.53-1,.36-.84.14-1.72.49l0-.19c-.31,0-.81.27-1,.11-.7-.38-3.48-.06-5.29-.41.35.59-.83-.26-.91.19-.1-.13-.35-.21-.06-.33-.92.13-1.38-.22-2,.16-.11-.14.2-.2.1-.28s-.29.12-.39,0,.14-.12.29-.18c-1,0-1,.45-1.11.85a.89.89,0,0,0-1.06.1c-.16-.13-.44-.27.14-.32-.33,0-2-.19-2,.13-.1-.08-.46,0-.55,0-.73,0-.8,0-1.52,0l.2.05c-.29.38-.6.08-1.19.13l0,0c-1.34-.28-.58.13-1.9-.18l.07.24c-.12.51-1.17-.31-1.94-.11l.28.14c-.42.17-1.17-.7-1.59-.77-.1,0,.14-.07.27-.1-1.1-.31-.14.31-1,.38-.16-.17.19-.43-.36-.46-.28-.14-1.6.55-2.36.23.17.13.33.26,0,.35-.58.05-1.58-.49-2.11-.08-.07,0-.1-.07-.1-.1a7,7,0,0,0-1.72.4c-.41-.83-2.78.4-2.77-.36l-1.37,0,0-.08a2.12,2.12,0,0,0-1.49.32c-.21,0-.06-.13,0-.17a3.9,3.9,0,0,0-2.49.26L78.45,68c-.29.14-1.86-.39-3.11-.1,0,0,0-.08.13-.12-1.41.3-3.39-.68-3.91.22l-.93.22c1.21.07-.18.39.32.54-.48.06-1.23-.27-.65-.31l.09,0c.22-.47-1.5-.17-1.47-.49-2.37,0-4.69-.23-6.92-.25l.26.36-.78,0c-.21-.08-.28-.29.28-.27-.29-.21-.93.17-.95.25-1.08-.15.43-.42.09-.43l-.45,0,.1,0a1.66,1.66,0,0,1-1.06.29c-.42-.08-.22-.23-.38-.24,0,0-.06,0-.26,0l-1,0,.39.28c-.43.15-.92,0-.47.32-.66-.51-3.65-.18-4.06-.34a5.09,5.09,0,0,1-1.95.18c.19.06.3.39-.34.35.23-.67-1.18-.3-1.7-.78.47.32-1.82.08-1.09.54-.54-.06,0-.26-.44-.41-1.27.26-2.81-.17-4.38-.08,0,.08.24.22-.1.35l-.83-.44c-.31,0-.29.51-.85.2.08.08.2.19,0,.22-3.09-.43-6.3.35-9.43-.46.42.17.14.19-.19.2.21,0,0,.21,0,.33l-1.31-.33c-.24.33-1.41,0-1.54.34l.41-.06c-.55.38.77.83.69,1.31.62-.42,1.63.63,2.65,0,.22.1-.19.16-.07.27.25-.21.56-.25,1.14-.16l-.07,0a32.54,32.54,0,0,1,4.13.29l-.13-.24a1.76,1.76,0,0,1,.65.17c.45-.36-1.1,0-.69-.42.52.48,2.75,0,3.1.56.6,0-.17-.28.43-.27l.16.14.15-.19c.39,0,.59.22.61.34a2.47,2.47,0,0,0-.38,0A7.14,7.14,0,0,0,44,70l-.58-.09c1.64-.14,3.64,0,5.22-.25l-.12-.11c1.21-.21,1,.12,2.3,0l0,0a2.47,2.47,0,0,1,1-.15c-.33.13.63.25.19.4,1.31-.22.65-.18,1.52-.59l.2.18a1.59,1.59,0,0,1,1-.3c-.55.16.42.28-.19.49,1.39.41,2.07-.41,2.71.19.63-.52-1.21-.29-.85-.4-.3-.17.53-.38,1-.33s.76.66,1.88.65c-.12,0-.12,0-.23,0,.41.13.82-.18,1.33,0,.29-.32.67,0,.75-.38l-1,.09c.58-.1,1.13-.57,2.09-.34a1.87,1.87,0,0,1-.56.24c.28.12.54-.08.83,0-.08.4-1.25.09-1.87.39.3.17,1.18-.29.87.14.45-.54,1.1.07,1.85-.34l0,.23a2,2,0,0,1,.59-.14l-.4.31c.62-.27,1.19.23,1.77.08-1.23,0-.27-.28-.79-.46,1.51-.31.87.63,2.57.51-.23,0-.87-.14-.51-.25a3.09,3.09,0,0,1,.95.26c1.13,0-.17-.24.31-.39.38.29.55-.11,1.05-.21v.24c1.28.16.34-.5,1.5-.31l-.49.33.6-.08-.13.27A2.78,2.78,0,0,1,71.67,70c-.15-.17.08-.44.65-.45.39.15-.22.23.59.2-.19.15-.38.34-.74.12,0,.07-.17.15-.21.22a3.62,3.62,0,0,0,1.34,0A1,1,0,0,1,73,70l1.17-.33c.18.09,0,.16-.11.23.24,0,.4-.13.75-.15-.09.19-.07.39-.56.49l1.11-.22c.08.08.58.23.43.31.62.11,1.51-.39,2.33-.23a.59.59,0,0,1,.3-.11,5.83,5.83,0,0,0,2.36,0l.52.35c.71-.08-.7-.44.49-.57.84-.12.31.3.61.39A2.58,2.58,0,0,1,84.29,70,3.24,3.24,0,0,1,83.6,70Zm8.8-.15c-.17,0-.51.2-.64.06C92,69.65,92.11,69.78,92.4,69.86Zm13.37-.58a.63.63,0,0,1-.54,0A1.15,1.15,0,0,1,105.77,69.28ZM143,67.6h0C142.63,67.51,142.76,67.55,143,67.6Zm.79.1c.08,0,.07-.07,0-.1a.66.66,0,0,1-.44.05C143.48,67.71,143.58,67.76,143.82,67.7ZM59,67.8l.15.06C58.82,67.93,58.92,67.87,59,67.8Z"/><path class="cls-3" d="M104.26,69.61a.23.23,0,0,1-.08-.13C104.12,69.52,104.11,69.56,104.26,69.61Z"/><path class="cls-3" d="M78.13,70.14h0l0,0Z"/><path class="cls-3" d="M131.59,69.75a.76.76,0,0,1-.32-.13C131.26,69.68,131.34,69.73,131.59,69.75Z"/><path class="cls-3" d="M148,67.29l-.5.06a1.13,1.13,0,0,1,.45.08C147.94,67.38,147.84,67.3,148,67.29Z"/><path class="cls-3" d="M152.39,68.78c.08,0,.16,0,.23,0l0-.11C152.29,68.65,152.07,68.74,152.39,68.78Z"/><path class="cls-3" d="M148.47,68.09c0,.21.36.14.71.1h-.06C149.22,67.91,148.85,68,148.47,68.09Z"/><path class="cls-3" d="M149.26,68.18a1.82,1.82,0,0,1,.33,0C149.63,68.06,149.46,68.15,149.26,68.18Z"/><path class="cls-3" d="M144.82,67.57c.17.05.1-.26.2-.18C145.21,67.13,143.9,67.7,144.82,67.57Z"/><polygon class="cls-3" points="148.76 68.76 148.63 68.51 148.43 68.71 148.76 68.76"/><path class="cls-3" d="M146,68.58l.57.07s.06-.07.15-.09C146.33,68.55,146,68.5,146,68.58Z"/><path class="cls-3" d="M146.68,68.56a1.19,1.19,0,0,0,.45,0A2.57,2.57,0,0,0,146.68,68.56Z"/><polygon class="cls-3" points="147.98 68.84 147.82 68.78 147.42 68.77 147.98 68.84"/><path class="cls-3" d="M139.87,68.53l-.61.07c-.07.09.1.14.33.11S140,68.61,139.87,68.53Z"/><path class="cls-3" d="M141.74,69.22a.59.59,0,0,1-.27-.19l0,.31Z"/><path class="cls-3" d="M139.94,69.29c-.06.08-.9.25-.11.23C139.89,69.43,140.51,69.36,139.94,69.29Z"/><polygon class="cls-3" points="130.63 68.89 130.79 68.89 130.76 68.38 130.63 68.89"/><path class="cls-3" d="M122.42,70.11c.74.13.18-.31.84-.16.17-.12-.54-.12-.36-.23C122.45,69.85,122.22,69.78,122.42,70.11Z"/><path class="cls-3" d="M122.9,69.72l.22-.07A.77.77,0,0,0,122.9,69.72Z"/><polygon class="cls-3" points="30.27 67.54 29.8 67.43 30.11 67.6 30.27 67.54"/><path class="cls-3" d="M29.37,67.92l-.11-.33-.29.3C29.08,67.87,29.29,67.84,29.37,67.92Z"/><path class="cls-3" d="M93.71,70.51l0-.08c-.07-.08-.18-.09-.4-.1Z"/><polygon class="cls-3" points="87.32 70.27 87.43 70.28 87.22 69.98 87.32 70.27"/><path class="cls-3" d="M82,70.64c.22,0,.48,0,.7,0C82.18,70.65,81.9,70.28,82,70.64Z"/><text class="cls-4" transform="translate(63.02 64.72)">GUSTO ITALIANO</text><path class="cls-3" d="M30.44,76l.14.13c1,.44,2.07.91,3.13,1.3a16.73,16.73,0,0,0,2.42.69,5.31,5.31,0,0,0,2.38.22,4.15,4.15,0,0,0,2.12-.9.36.36,0,0,1,.24-.07,41.56,41.56,0,0,1,9.18.63,45.83,45.83,0,0,1,7,1.77A46.53,46.53,0,0,1,68.3,85.18a42.92,42.92,0,0,1,6.57,5.22,16,16,0,0,1,3.87,5.09.65.65,0,0,0,.68.36c.2,0,.32-.12.26-.33a12,12,0,0,0-.46-1.58,12.7,12.7,0,0,0-2.8-3.74,40.32,40.32,0,0,0-5.79-4.7,52,52,0,0,0-12.8-6.35c-1.22-.43-2.48-.76-3.74-1.07a39.68,39.68,0,0,0-6-1,49.27,49.27,0,0,0-6.87-.17c-.3,0-.6.06-.84-.2a.75.75,0,0,0-.31-.15,12.11,12.11,0,0,0-4-.71c-1.62,0-3.24.06-4.85.1A6,6,0,0,0,30.44,76Z"/><path class="cls-3" d="M53,83.07l0,.12.25.06c1.14.26,2.29.49,3.42.77a11,11,0,0,0,6.4-.46,3.25,3.25,0,0,0,.33-.19,2,2,0,0,0-.29-.25c-.36-.18-.72-.36-1.09-.51a10.42,10.42,0,0,0-2.25-.8,9,9,0,0,0-4.82.44Z"/><path class="cls-3" d="M64.39,81.28l.1-.06c-.11-.26-.2-.52-.32-.78A10.5,10.5,0,0,1,63.52,79a6.44,6.44,0,0,0-1.29-2.44A7.43,7.43,0,0,0,60.61,75c-1.25-.81-2.56-1.52-3.85-2.27a.71.71,0,0,0-.21,0,2.13,2.13,0,0,0,.12.29c.39.68.79,1.36,1.17,2a7.44,7.44,0,0,0,1.78,2.24c.77.63,1.56,1.23,2.32,1.86a10.84,10.84,0,0,1,1.25,1.19A4.67,4.67,0,0,0,64.39,81.28Z"/><path class="cls-3" d="M51.66,77.11l0-.12a4,4,0,0,1-1.23-1.46,6,6,0,0,0-1.83-2A23.73,23.73,0,0,0,44,71c-.2-.08-.41-.13-.61-.19l0,.07c.4.67.79,1.35,1.22,2a6.43,6.43,0,0,0,1.68,1.69,23.7,23.7,0,0,0,4,2.15A10.5,10.5,0,0,0,51.66,77.11Z"/><path class="cls-3" d="M75.23,83.07l-.11,0a5.06,5.06,0,0,0,0,.55c.12.69.26,1.37.39,2a12.58,12.58,0,0,0,.29,1.51,6.33,6.33,0,0,0,1.78,3.12c.44.39.82.85,1.22,1.28l.24.27.1,0c0-.4.15-.81.16-1.22a7.31,7.31,0,0,0-1.09-3.54,19.12,19.12,0,0,0-2.69-3.7Z"/><path class="cls-3" d="M39.22,80.35c.06,0,.08.07.12.08.64.2,1.27.42,1.92.61a4.46,4.46,0,0,0,4.15-1,10.16,10.16,0,0,1,2-1.41,3.09,3.09,0,0,0,.55-.42l0-.14c-.37,0-.75,0-1.12,0-.65,0-1.3.14-2,.13a5.79,5.79,0,0,0-2.88.46c-.88.47-1.74,1-2.61,1.46A.92.92,0,0,0,39.22,80.35Z"/><path class="cls-3" d="M57.61,78.65a1,1,0,0,0,.09-.44,4,4,0,0,0-.32-1.1,7.48,7.48,0,0,0-1.78-2.06,22.43,22.43,0,0,0-4.2-2.9,2,2,0,0,0-.28-.11,3.78,3.78,0,0,0,.18.5L52.74,75A7.56,7.56,0,0,0,57.61,78.65Z"/><path class="cls-3" d="M65.79,77.62l-.09.07a4.32,4.32,0,0,0,.3.61c.12.22.29.42.4.64l1.34,2.62a9.57,9.57,0,0,0,2.78,3.25,4.37,4.37,0,0,0,1,.53c.3.11.49,0,.45-.37a3.35,3.35,0,0,0-.21-.87,8,8,0,0,0-1.66-2.67c-.75-.78-1.55-1.51-2.36-2.23C67.14,78.64,66.46,78.15,65.79,77.62Z"/><path class="cls-3" d="M61.43,85.64v.08c.19.11.37.24.56.34a28.19,28.19,0,0,0,4.42,1.7,6.11,6.11,0,0,0,3.12.14,6,6,0,0,1,1.27,0H71a1.78,1.78,0,0,0-.46-.45c-.54-.37-1.08-.71-1.61-1.07a4.66,4.66,0,0,0-2.5-.9c-1.18,0-2.36,0-3.53,0A14,14,0,0,0,61.43,85.64Z"/><path class="cls-3" d="M46.2,82.55c.09,0,.1.07.12.07h.26a14.61,14.61,0,0,0,3.66-.56,12.35,12.35,0,0,0,1.89-.74,4.05,4.05,0,0,0,1.58-1.44c.33-.51.17-.84-.45-.92h-.17a5.37,5.37,0,0,0-2.84.66c-.58.34-1.09.8-1.64,1.2L46.93,82Z"/><path class="cls-3" d="M66.48,89.92V90l.3.15c.85.32,1.69.67,2.55,1a17.14,17.14,0,0,0,4,.92A4.83,4.83,0,0,0,74.79,92a.48.48,0,0,0,.17-.86,3,3,0,0,0-.4-.3,8,8,0,0,0-4.68-1.22c-1,.06-2,.15-3,.24A1.73,1.73,0,0,0,66.48,89.92Z"/><path class="cls-3" d="M45.18,75.67c-.47-.36-1-.67-1.4-1.07a7.09,7.09,0,0,0-3.64-1.72c-.93-.16-1.85-.41-2.77-.61a1.46,1.46,0,0,0-.22,0c0,.05,0,.07,0,.08A7.4,7.4,0,0,0,40.71,75a30.3,30.3,0,0,0,3.1.73A2.46,2.46,0,0,0,45.18,75.67Z"/><path class="cls-3" d="M30.44,76a6,6,0,0,1,.75-.09c1.61,0,3.23-.1,4.85-.1a12.11,12.11,0,0,1,4,.71.75.75,0,0,1,.31.15c.24.26.54.21.84.2a49.27,49.27,0,0,1,6.87.17,39.68,39.68,0,0,1,6,1c1.26.31,2.52.64,3.74,1.07a52,52,0,0,1,12.8,6.35,40.32,40.32,0,0,1,5.79,4.7,12.7,12.7,0,0,1,2.8,3.74,12,12,0,0,1,.46,1.58c.06.21-.06.3-.26.33a.65.65,0,0,1-.68-.36,16,16,0,0,0-3.87-5.09,42.92,42.92,0,0,0-6.57-5.22,46.53,46.53,0,0,0-11.24-5.39,45.83,45.83,0,0,0-7-1.77,41.56,41.56,0,0,0-9.18-.63.36.36,0,0,0-.24.07,4.15,4.15,0,0,1-2.12.9,5.31,5.31,0,0,1-2.38-.22,16.73,16.73,0,0,1-2.42-.69c-1.06-.39-2.09-.86-3.13-1.3Z"/><path class="cls-3" d="M53,83.07l2-.82a9,9,0,0,1,4.82-.44,10.42,10.42,0,0,1,2.25.8c.37.15.73.33,1.09.51a2,2,0,0,1,.29.25,3.25,3.25,0,0,1-.33.19,11,11,0,0,1-6.4.46c-1.13-.28-2.28-.51-3.42-.77l-.25-.06Z"/><path class="cls-3" d="M64.39,81.28a4.67,4.67,0,0,1-1.2-.93,10.84,10.84,0,0,0-1.25-1.19c-.76-.63-1.55-1.23-2.32-1.86a7.44,7.44,0,0,1-1.78-2.24c-.38-.69-.78-1.37-1.17-2a2.13,2.13,0,0,1-.12-.29.71.71,0,0,1,.21,0c1.29.75,2.6,1.46,3.85,2.27a7.43,7.43,0,0,1,1.62,1.5A6.44,6.44,0,0,1,63.52,79a10.5,10.5,0,0,0,.65,1.46c.12.26.21.52.32.78Z"/><path class="cls-3" d="M51.66,77.11a10.5,10.5,0,0,1-1.36-.37,23.7,23.7,0,0,1-4-2.15,6.43,6.43,0,0,1-1.68-1.69c-.43-.65-.82-1.33-1.22-2l0-.07c.2.06.41.11.61.19a23.73,23.73,0,0,1,4.62,2.51,6,6,0,0,1,1.83,2A4,4,0,0,0,51.7,77Z"/><path class="cls-3" d="M75.23,83.07l.31.33a19.12,19.12,0,0,1,2.69,3.7,7.31,7.31,0,0,1,1.09,3.54c0,.41-.11.82-.16,1.22l-.1,0-.24-.27c-.4-.43-.78-.89-1.22-1.28a6.33,6.33,0,0,1-1.78-3.12,12.58,12.58,0,0,1-.29-1.51c-.13-.68-.27-1.36-.39-2a5.06,5.06,0,0,1,0-.55Z"/><path class="cls-3" d="M39.22,80.35a.92.92,0,0,1,.15-.14c.87-.49,1.73-1,2.61-1.46a5.79,5.79,0,0,1,2.88-.46c.65,0,1.3-.09,2-.13.37,0,.75,0,1.12,0l0,.14a3.09,3.09,0,0,1-.55.42,10.16,10.16,0,0,0-2,1.41,4.46,4.46,0,0,1-4.15,1c-.65-.19-1.28-.41-1.92-.61C39.3,80.42,39.28,80.39,39.22,80.35Z"/><path class="cls-3" d="M57.61,78.65A7.56,7.56,0,0,1,52.74,75L51.3,72.54a3.78,3.78,0,0,1-.18-.5,2,2,0,0,1,.28.11,22.43,22.43,0,0,1,4.2,2.9,7.48,7.48,0,0,1,1.78,2.06,4,4,0,0,1,.32,1.1A1,1,0,0,1,57.61,78.65Z"/><path class="cls-3" d="M65.79,77.62c.67.53,1.35,1,2,1.58.81.72,1.61,1.45,2.36,2.23a8,8,0,0,1,1.66,2.67A3.35,3.35,0,0,1,72,85c0,.32-.15.48-.45.37a4.37,4.37,0,0,1-1-.53,9.57,9.57,0,0,1-2.78-3.25L66.4,78.94c-.11-.22-.28-.42-.4-.64a4.32,4.32,0,0,1-.3-.61Z"/><path class="cls-3" d="M61.43,85.64a14,14,0,0,1,1.42-.16c1.17,0,2.35,0,3.53,0a4.66,4.66,0,0,1,2.5.9c.53.36,1.07.7,1.61,1.07a1.78,1.78,0,0,1,.46.45h-.16a6,6,0,0,0-1.27,0,6.11,6.11,0,0,1-3.12-.14A28.19,28.19,0,0,1,62,86.06c-.19-.1-.37-.23-.56-.34Z"/><path class="cls-3" d="M46.2,82.55l.73-.53,1.68-1.21c.55-.4,1.06-.86,1.64-1.2A5.37,5.37,0,0,1,53.09,79h.17c.62.08.78.41.45.92a4.05,4.05,0,0,1-1.58,1.44,12.35,12.35,0,0,1-1.89.74,14.61,14.61,0,0,1-3.66.56h-.26S46.29,82.6,46.2,82.55Z"/><path class="cls-3" d="M66.48,89.92a1.73,1.73,0,0,1,.37-.11c1-.09,2-.18,3-.24a8,8,0,0,1,4.68,1.22,3,3,0,0,1,.4.3.48.48,0,0,1-.17.86,4.83,4.83,0,0,1-1.42.09,17.14,17.14,0,0,1-4-.92c-.86-.28-1.7-.63-2.55-1l-.3-.15Z"/><path class="cls-3" d="M45.18,75.67a2.46,2.46,0,0,1-1.37.08,30.3,30.3,0,0,1-3.1-.73,7.4,7.4,0,0,1-3.55-2.7s0,0,0-.08a1.46,1.46,0,0,1,.22,0c.92.2,1.84.45,2.77.61a7.09,7.09,0,0,1,3.64,1.72C44.21,75,44.71,75.31,45.18,75.67Z"/><path class="cls-3" d="M168.81,76c-1.61,0-3.23-.09-4.85-.1a12.12,12.12,0,0,0-4,.72.89.89,0,0,0-.31.14.92.92,0,0,1-.84.2,50.85,50.85,0,0,0-6.87.17,39.7,39.7,0,0,0-6,1,37.12,37.12,0,0,0-3.74,1.07,51.63,51.63,0,0,0-12.8,6.34,39.72,39.72,0,0,0-5.79,4.71,12.65,12.65,0,0,0-2.8,3.73,12,12,0,0,0-.46,1.58c-.06.21.06.31.26.33a.66.66,0,0,0,.68-.35,16.09,16.09,0,0,1,3.87-5.1,43.54,43.54,0,0,1,6.57-5.22,46.53,46.53,0,0,1,11.24-5.39,47,47,0,0,1,7-1.77,42.18,42.18,0,0,1,9.18-.63.43.43,0,0,1,.24.07,4.15,4.15,0,0,0,2.12.9,5.17,5.17,0,0,0,2.38-.22,16.69,16.69,0,0,0,2.42-.68c1.06-.39,2.09-.87,3.13-1.3l.14-.13A6.25,6.25,0,0,0,168.81,76Z"/><path class="cls-3" d="M145,82.3a9.12,9.12,0,0,0-4.82-.44,11,11,0,0,0-2.25.81,11.94,11.94,0,0,0-1.09.51c-.1,0-.17.14-.29.24a2,2,0,0,0,.33.19,11,11,0,0,0,6.4.46c1.13-.28,2.28-.51,3.42-.77a1.83,1.83,0,0,0,.25-.06l0-.12Z"/><path class="cls-3" d="M136.81,80.4a10,10,0,0,1,1.25-1.18c.76-.64,1.55-1.24,2.32-1.87a7.44,7.44,0,0,0,1.78-2.24c.38-.69.78-1.36,1.17-2a2.13,2.13,0,0,0,.12-.29l-.21,0c-1.29.75-2.6,1.46-3.85,2.27a7.69,7.69,0,0,0-1.62,1.5A6.56,6.56,0,0,0,136.48,79a10.38,10.38,0,0,1-.65,1.45c-.12.26-.21.53-.32.79l.1,0A4.67,4.67,0,0,0,136.81,80.4Z"/><path class="cls-3" d="M149.7,76.79a23.7,23.7,0,0,0,4-2.15A6.28,6.28,0,0,0,155.42,73c.43-.65.82-1.33,1.22-2l0-.07c-.2.06-.41.12-.61.2a23.69,23.69,0,0,0-4.62,2.5,6,6,0,0,0-1.83,2,4.06,4.06,0,0,1-1.23,1.47l0,.12A9.14,9.14,0,0,0,149.7,76.79Z"/><path class="cls-3" d="M124.46,83.45a19.12,19.12,0,0,0-2.69,3.7,7.31,7.31,0,0,0-1.09,3.55c0,.41.11.81.16,1.22h.1l.24-.26c.4-.43.78-.9,1.22-1.29a6.3,6.3,0,0,0,1.78-3.11,13,13,0,0,0,.29-1.51c.13-.69.27-1.37.39-2.06a5.06,5.06,0,0,0,0-.55l-.11,0Z"/><path class="cls-3" d="M160.63,80.26c-.87-.49-1.73-1-2.61-1.45a5.68,5.68,0,0,0-2.88-.47c-.65,0-1.3-.09-1.95-.13-.37,0-.75,0-1.12,0l0,.13a2.68,2.68,0,0,0,.55.42,10.59,10.59,0,0,1,2,1.41,4.47,4.47,0,0,0,4.15,1c.65-.19,1.28-.41,1.92-.62,0,0,.06,0,.12-.08A1.79,1.79,0,0,0,160.63,80.26Z"/><path class="cls-3" d="M147.26,75l1.44-2.42a4.4,4.4,0,0,0,.18-.5l-.28.1a22.92,22.92,0,0,0-4.2,2.9,7.48,7.48,0,0,0-1.78,2.06,4.1,4.1,0,0,0-.32,1.1,1.13,1.13,0,0,0,.09.45A7.54,7.54,0,0,0,147.26,75Z"/><path class="cls-3" d="M132.23,79.26c-.81.71-1.61,1.45-2.36,2.22a8.09,8.09,0,0,0-1.66,2.68A3.18,3.18,0,0,0,128,85c0,.32.15.48.45.37a4,4,0,0,0,1-.52,9.6,9.6,0,0,0,2.78-3.26c.45-.87.89-1.75,1.34-2.61.11-.23.28-.42.4-.64a5.73,5.73,0,0,0,.3-.61l-.09-.07C133.54,78.2,132.86,78.7,132.23,79.26Z"/><path class="cls-3" d="M137.15,85.53c-1.17,0-2.35,0-3.53,0a4.75,4.75,0,0,0-2.5.9l-1.61,1.07a2,2,0,0,0-.46.45h.16a6,6,0,0,1,1.27,0,6.22,6.22,0,0,0,3.12-.13A29.26,29.26,0,0,0,138,86.11c.19-.1.37-.23.56-.34v-.08C138.09,85.64,137.62,85.54,137.15,85.53Z"/><path class="cls-3" d="M153.07,82.07l-1.68-1.21c-.55-.4-1.06-.86-1.64-1.2a5.37,5.37,0,0,0-2.84-.66l-.17,0c-.62.07-.78.4-.45.92a4,4,0,0,0,1.58,1.43,11.4,11.4,0,0,0,1.89.74,14.61,14.61,0,0,0,3.66.56,1.13,1.13,0,0,0,.26,0s0,0,.12-.07Z"/><path class="cls-3" d="M133.15,89.86c-1-.08-2-.18-3-.24a8.05,8.05,0,0,0-4.68,1.23,2.27,2.27,0,0,0-.4.29.49.49,0,0,0,.17.87,4.83,4.83,0,0,0,1.42.09,17.67,17.67,0,0,0,4-.93c.86-.28,1.7-.62,2.55-1,.1,0,.2-.1.3-.15V90A2.59,2.59,0,0,0,133.15,89.86Z"/><path class="cls-3" d="M156.19,75.81a30.3,30.3,0,0,0,3.1-.73,7.52,7.52,0,0,0,3.55-2.7s0,0,0-.09l-.22,0c-.92.21-1.84.45-2.77.62a6.93,6.93,0,0,0-3.64,1.72c-.43.39-.93.71-1.4,1.07A2.55,2.55,0,0,0,156.19,75.81Z"/><path class="cls-3" d="M169.56,76.08a6.25,6.25,0,0,0-.75-.1c-1.61,0-3.23-.09-4.85-.1a12.12,12.12,0,0,0-4,.72.89.89,0,0,0-.31.14.92.92,0,0,1-.84.2,50.85,50.85,0,0,0-6.87.17,39.7,39.7,0,0,0-6,1,37.12,37.12,0,0,0-3.74,1.07,51.63,51.63,0,0,0-12.8,6.34,39.72,39.72,0,0,0-5.79,4.71,12.65,12.65,0,0,0-2.8,3.73,12,12,0,0,0-.46,1.58c-.06.21.06.31.26.33a.66.66,0,0,0,.68-.35,16.09,16.09,0,0,1,3.87-5.1,43.54,43.54,0,0,1,6.57-5.22,46.53,46.53,0,0,1,11.24-5.39,47,47,0,0,1,7-1.77,42.18,42.18,0,0,1,9.18-.63.43.43,0,0,1,.24.07,4.15,4.15,0,0,0,2.12.9,5.17,5.17,0,0,0,2.38-.22,16.69,16.69,0,0,0,2.42-.68c1.06-.39,2.09-.87,3.13-1.3Z"/><path class="cls-3" d="M147,83.12l-2-.82a9.12,9.12,0,0,0-4.82-.44,11,11,0,0,0-2.25.81,11.94,11.94,0,0,0-1.09.51c-.1,0-.17.14-.29.24a2,2,0,0,0,.33.19,11,11,0,0,0,6.4.46c1.13-.28,2.28-.51,3.42-.77a1.83,1.83,0,0,0,.25-.06Z"/><path class="cls-3" d="M135.61,81.33a4.67,4.67,0,0,0,1.2-.93,10,10,0,0,1,1.25-1.18c.76-.64,1.55-1.24,2.32-1.87a7.44,7.44,0,0,0,1.78-2.24c.38-.69.78-1.36,1.17-2a2.13,2.13,0,0,0,.12-.29l-.21,0c-1.29.75-2.6,1.46-3.85,2.27a7.69,7.69,0,0,0-1.62,1.5A6.56,6.56,0,0,0,136.48,79a10.38,10.38,0,0,1-.65,1.45c-.12.26-.21.53-.32.79Z"/><path class="cls-3" d="M148.34,77.17a9.14,9.14,0,0,0,1.36-.38,23.7,23.7,0,0,0,4-2.15A6.28,6.28,0,0,0,155.42,73c.43-.65.82-1.33,1.22-2l0-.07c-.2.06-.41.12-.61.2a23.69,23.69,0,0,0-4.62,2.5,6,6,0,0,0-1.83,2,4.06,4.06,0,0,1-1.23,1.47Z"/><path class="cls-3" d="M124.77,83.12l-.31.33a19.12,19.12,0,0,0-2.69,3.7,7.31,7.31,0,0,0-1.09,3.55c0,.41.11.81.16,1.22h.1l.24-.26c.4-.43.78-.9,1.22-1.29a6.3,6.3,0,0,0,1.78-3.11,13,13,0,0,0,.29-1.51c.13-.69.27-1.37.39-2.06a5.06,5.06,0,0,0,0-.55Z"/><path class="cls-3" d="M160.78,80.4a1.79,1.79,0,0,0-.15-.14c-.87-.49-1.73-1-2.61-1.45a5.68,5.68,0,0,0-2.88-.47c-.65,0-1.3-.09-1.95-.13-.37,0-.75,0-1.12,0l0,.13a2.68,2.68,0,0,0,.55.42,10.59,10.59,0,0,1,2,1.41,4.47,4.47,0,0,0,4.15,1c.65-.19,1.28-.41,1.92-.62C160.7,80.47,160.72,80.44,160.78,80.4Z"/><path class="cls-3" d="M142.39,78.71A7.54,7.54,0,0,0,147.26,75l1.44-2.42a4.4,4.4,0,0,0,.18-.5l-.28.1a22.92,22.92,0,0,0-4.2,2.9,7.48,7.48,0,0,0-1.78,2.06,4.1,4.1,0,0,0-.32,1.1A1.13,1.13,0,0,0,142.39,78.71Z"/><path class="cls-3" d="M134.21,77.68c-.67.52-1.35,1-2,1.58-.81.71-1.61,1.45-2.36,2.22a8.09,8.09,0,0,0-1.66,2.68A3.18,3.18,0,0,0,128,85c0,.32.15.48.45.37a4,4,0,0,0,1-.52,9.6,9.6,0,0,0,2.78-3.26c.45-.87.89-1.75,1.34-2.61.11-.23.28-.42.4-.64a5.73,5.73,0,0,0,.3-.61Z"/><path class="cls-3" d="M138.57,85.69c-.48,0-.95-.15-1.42-.16-1.17,0-2.35,0-3.53,0a4.75,4.75,0,0,0-2.5.9l-1.61,1.07a2,2,0,0,0-.46.45h.16a6,6,0,0,1,1.27,0,6.22,6.22,0,0,0,3.12-.13A29.26,29.26,0,0,0,138,86.11c.19-.1.37-.23.56-.34Z"/><path class="cls-3" d="M153.8,82.6l-.73-.53-1.68-1.21c-.55-.4-1.06-.86-1.64-1.2a5.37,5.37,0,0,0-2.84-.66l-.17,0c-.62.07-.78.4-.45.92a4,4,0,0,0,1.58,1.43,11.4,11.4,0,0,0,1.89.74,14.61,14.61,0,0,0,3.66.56,1.13,1.13,0,0,0,.26,0S153.71,82.66,153.8,82.6Z"/><path class="cls-3" d="M133.52,90a2.59,2.59,0,0,0-.37-.11c-1-.08-2-.18-3-.24a8.05,8.05,0,0,0-4.68,1.23,2.27,2.27,0,0,0-.4.29.49.49,0,0,0,.17.87,4.83,4.83,0,0,0,1.42.09,17.67,17.67,0,0,0,4-.93c.86-.28,1.7-.62,2.55-1,.1,0,.2-.1.3-.15Z"/><path class="cls-3" d="M154.82,75.73a2.55,2.55,0,0,0,1.37.08,30.3,30.3,0,0,0,3.1-.73,7.52,7.52,0,0,0,3.55-2.7s0,0,0-.09l-.22,0c-.92.21-1.84.45-2.77.62a6.93,6.93,0,0,0-3.64,1.72C155.79,75.05,155.29,75.37,154.82,75.73Z"/><text class="cls-5" transform="translate(82.86 82.12)">Est. 2018</text></svg>
