<svg id="Layer_1" data-name="Layer 1" xmlns="http://www.w3.org/2000/svg" viewBox="0 0 200 100"><defs><style>.cls-1{font-size:44.15px;font-family:AmaticSC-Bold, Amatic SC;font-weight:700;}.cls-1,.cls-3,.cls-4{fill:#fff;}.cls-2{font-size:54.45px;letter-spacing:0em;}.cls-4{font-size:14.13px;font-family:Economica-Regular, Economica;}</style></defs><title>stortlogo</title><text class="cls-1" transform="translate(54.45 46.99)">AN<tspan class="cls-2" x="33.64" y="0">G</tspan><tspan x="54" y="0">ELO</tspan></text><path class="cls-3" d="M173.11,48.76c.21,0,.13-.19.16-.23C172.92,48.58,173.12,48.82,173.11,48.76Z"/><polygon class="cls-3" points="169.65 49.24 169.71 49.15 169.2 49.36 169.65 49.24"/><path class="cls-3" d="M166.41,49.23c.3.36,1.17,0,1.75.07l.09.08.26-.28A11.59,11.59,0,0,1,166.41,49.23Z"/><path class="cls-3" d="M164.68,48.46c.11.14-.37.12.4,0l-.07,0Z"/><path class="cls-3" d="M165,48.47c.34,0-.22-.12,0,0Z"/><path class="cls-3" d="M163.44,48.55l.45-.12c-.1-.09-.5-.1-.35-.16C163.08,48.33,163.18,48.41,163.44,48.55Z"/><path class="cls-3" d="M163,48.81l.23-.05S163.14,48.71,163,48.81Z"/><path class="cls-3" d="M163.74,48.65l-.5.11c.07.06.08.17.23,0C163.43,48.82,163.53,48.72,163.74,48.65Z"/><path class="cls-3" d="M164,48.7c.25.08.57.13.12.25C165,48.9,164.88,48.65,164,48.7Z"/><path class="cls-3" d="M166.24,49.6l.34.11.29-.12C166.73,49.65,166.22,49.49,166.24,49.6Z"/><path class="cls-3" d="M160.64,48.36c0,.08.15.21.18.3l.34-.08C161,48.53,160.66,48.48,160.64,48.36Z"/><path class="cls-3" d="M160.82,48.66l-.49.13C160.77,48.81,160.85,48.75,160.82,48.66Z"/><polygon class="cls-3" points="162.93 49.21 163.75 48.93 162.77 49.21 162.93 49.21"/><polygon class="cls-3" points="158.74 48.35 159.03 48.18 158.52 48.45 158.74 48.35"/><path class="cls-3" d="M157.49,48.39c.21-.15-.29-.25-.07-.34a2.9,2.9,0,0,0-.89.26A1.84,1.84,0,0,1,157.49,48.39Z"/><path class="cls-3" d="M156.08,48.48a3.67,3.67,0,0,0,.45-.17A2.07,2.07,0,0,0,156.08,48.48Z"/><path class="cls-3" d="M159.48,48.76a.53.53,0,0,0-.39-.22l.2.21Z"/><path class="cls-3" d="M159.29,48.76h-.42Z"/><path class="cls-3" d="M159.53,48.76h-.05S159.51,48.79,159.53,48.76Z"/><path class="cls-3" d="M161.63,49c-.29.12-.9.25-.31.43C161.53,49.3,161.19,49.19,161.63,49Z"/><path class="cls-3" d="M159.77,49l.53,0s-.1-.13,0-.19Z"/><polygon class="cls-3" points="159.52 49.09 159.77 49.02 159.58 49.01 159.52 49.09"/><path class="cls-3" d="M157,48.68a2.29,2.29,0,0,1-.76.11,5.58,5.58,0,0,0,.91.07C157.18,48.79,157.31,48.67,157,48.68Z"/><path class="cls-3" d="M158.11,48.74h-.05S158.11,48.77,158.11,48.74Z"/><path class="cls-3" d="M153.46,48.79l0,0s0,0,0,0Z"/><path class="cls-3" d="M157.19,48.9a.67.67,0,0,0,.49-.08,4.56,4.56,0,0,1-.54,0S157.12,48.91,157.19,48.9Z"/><path class="cls-3" d="M155.31,48.58l.39.11C155.59,48.63,155.35,48.52,155.31,48.58Z"/><path class="cls-3" d="M158,48.69h0C157.94,48.63,158,48.66,158,48.69Z"/><path class="cls-3" d="M158,48.69a1.18,1.18,0,0,0-.3.13l.38-.07Z"/><path class="cls-3" d="M152.62,50.16c0-.19.64-.38,1.15-.17.51-.14.18-.8-.27-1.16,0,.09,0,.17-.53.28.18.11,1.15.26.71.44-.69.1-.56-.07-.9-.18.29.25-.88.36-.72.72l.6-.12C152.67,50,152.45,50.11,152.62,50.16Z"/><path class="cls-3" d="M154.5,48.85l.21,0a2.71,2.71,0,0,1-.74-.27c-.36.09-.43.17-.46.23l1.06,0Z"/><path class="cls-3" d="M155.67,48.83c-.16.21-.68.3-.36.54.63,0,.44-.18.81-.28-1,.06.29-.12-.44-.24a3.84,3.84,0,0,1,.55-.06,4.51,4.51,0,0,1-.53-.1l0,0h0c.05,0,.06,0,0,0h0a.22.22,0,0,1-.05.08c-.29,0,0,0,.05-.08s0,0,0,0h0l-1,.12A5.92,5.92,0,0,0,155.67,48.83Z"/><path class="cls-3" d="M160.78,49.91s0,0,0,0S160.65,49.9,160.78,49.91Z"/><path class="cls-3" d="M160.36,49.78a.5.5,0,0,1,.37-.1c.21.07,0,.11,0,.18s.51-.16.06-.26l-.07,0c-.41-.08-.94-.35-.87-.38A1.53,1.53,0,0,0,160.36,49.78Z"/><path class="cls-3" d="M158,49.36l-.85.1.43.19,0-.11C158,49.58,157.93,49.44,158,49.36Z"/><polygon class="cls-3" points="153.36 48.69 153.47 48.46 152.99 48.78 153.36 48.69"/><polygon class="cls-3" points="152.26 48.71 152.3 48.51 152.01 48.63 152.26 48.71"/><path class="cls-3" d="M90.16,51.17l-.25,0A.89.89,0,0,0,90.16,51.17Z"/><path class="cls-3" d="M92,51.18l.05-.1C91.92,51.14,91.89,51.18,92,51.18Z"/><path class="cls-3" d="M125.23,48.73c-.36-.18-.76-.47-.72-.24l.11.21A1.46,1.46,0,0,1,125.23,48.73Z"/><path class="cls-3" d="M106.72,50l.11.06.25-.2Z"/><path class="cls-3" d="M106.47,50.93l-.48-.14A2.64,2.64,0,0,0,106.47,50.93Z"/><path class="cls-3" d="M80.32,51.4l-.29.22C80.49,51.62,80.29,51.51,80.32,51.4Z"/><path class="cls-3" d="M141,48.79a3.82,3.82,0,0,0-.78-.13C140.59,48.79,140.89,49,141,48.79Z"/><path class="cls-3" d="M90.87,48.86c-.15,0-.22.09-.21.14S90.9,48.92,90.87,48.86Z"/><path class="cls-3" d="M139.31,48.66l.16.05a4.24,4.24,0,0,1,.74-.05A1.17,1.17,0,0,0,139.31,48.66Z"/><path class="cls-3" d="M44.64,51.22l-.08,0S44.59,51.22,44.64,51.22Z"/><path class="cls-3" d="M34.25,49a2.56,2.56,0,0,1,.42,0A1.67,1.67,0,0,0,34.25,49Z"/><path class="cls-3" d="M147.83,48.62c.24,0,0,0,0,0Z"/><path class="cls-3" d="M149,49.48c-.05,0-.09.05-.09.1A.18.18,0,0,1,149,49.48Z"/><path class="cls-3" d="M137,50h0C137,50.05,137,50.05,137,50Z"/><path class="cls-3" d="M148.19,48.72l-.3-.07Z"/><path class="cls-3" d="M148.14,48.61l.2,0S148.35,48.58,148.14,48.61Z"/><path class="cls-3" d="M147.51,48.63l.38,0s-.07,0-.06,0Z"/><path class="cls-3" d="M63.76,50.64l0,0C63.47,50.71,63.58,50.69,63.76,50.64Z"/><path class="cls-3" d="M119.16,51h0Z"/><path class="cls-3" d="M118.32,51.15a.84.84,0,0,1,.83-.18l-.27-.63Z"/><path class="cls-3" d="M85.85,51.23l.59.19c-.71.33-1.23.21-.67.49.08-.68,2.28-.07,2.37-.75l.38.14c-.11,0-.13,0-.24,0,.76.33.56-.49,1.54-.39.34.05.57.15.34.23l.76-.17c.22,0,.16.13-.06.12L92,51.06v0a5.3,5.3,0,0,1,.72-.34c.29.1-.15.07-.08.16l.64-.17c.26.18-.27.35-.71.33.6.67.53-.18,1.82.22l-.61.09c.39.38.86.24,1.54.48-.16-.12-1.36-.6-.67-.77a1.38,1.38,0,0,0,.83-.06c0,.24.37.18.82.17l0,.32c.49-.1.46-.26.75-.4a.82.82,0,0,1,.79.48c.88,0-.61-.39.43-.45a5.2,5.2,0,0,0,2.13-.2c.51.11-.09.19.09.28l.45-.25c.12,0,.08.08.06.12.38-.1,0-.32.63-.4.17-.36,1.24.51,2,.11.19.09-.08.2,0,.32a7.75,7.75,0,0,0,1.72-.54l.71.21c-.52-.24.15-.53.73-.76a3.76,3.76,0,0,0-.45-.27l.94-.17c.11,0,0,.16-.13.3l.17-.08c.33.12.16.3-.08.48a3.79,3.79,0,0,1-.34-.2c-.23.2-.45.41-.4.6a.73.73,0,0,1,.31-.08c-.06,0-.1.1-.07.13s.13,0,.28-.12l.21.36.06-.15,1.22.23a9.35,9.35,0,0,1,3-1c-.35.26-.08.43-.1.74-.38-.33-1.08.14-1.8.07.38,0,.3.18.2.24l1.29-.3c0,.25.27.19.61.29-.26-.5,1-.33,1.48-.49,0,.17-.09.34-.73.3.71.38.91-.58,1.6-.26-.15,0-.24,0-.3.06.37-.15,1.26,0,1,.12h-.16c1,.06,3.16,0,3.31-.42a2.11,2.11,0,0,1-.2.6l1.85-1.44c-.16.37.47,1.24-.39,1.45a2.13,2.13,0,0,0,1.07,0c-.17-.05-.42-.53-.19-.56a4.77,4.77,0,0,0,1.22.56c-.26-.08,0-.65.42-.63-.06.09,0,.57-.11.62l1-.56c-.24.1,0,.48.18.64-.1-.11.86,0,1.12-.05l-.42-.13c1.12.09,1.11-.79,2.22-.76-.13.12-.33.72.24.79a4.72,4.72,0,0,1,2.13-1.61l.19.16.75-.18a15.47,15.47,0,0,1-2.51,1.7c.42.13.12.19.75.18.22.15-.35.23-.53.24l1.46.1c-.06-.34,1.12-.34,1.06-.62l-1.58.35c-.07-.34.91-1,1.95-.89.26.13-.2.59-.18.71a2,2,0,0,1,1.08-.14l-.44.18c.58.12.94-.45,1.64-.13.24,0,.71.43.75.24a2,2,0,0,1-.2-1.86,9.44,9.44,0,0,1,1.53.55c.39.3-.59.72-.26,1,0-.09.23-.21.32-.24.25.08-.1.28.45.24.09-.34,1.11,0,.25-.29.54-.1.57.07,1.2.06-.2-.22.56-.75,1.1-.85,0,.09.08.2.14.25,1.1,0,1.69.19,2.71.19.09.08.58.18.37.33a1.21,1.21,0,0,1,.6-.18c.61.29-.7,0-.24.4,0-.2.82-.28,1.26-.4-.13-.31-1-.06-1.48.06,0-.42.78-.86,1.85-1.06.84-.1.36.28.51.22,1.59.07,1.36-.74,2.68-.44.52.27,0,.54.14.73-.69.1-1.06-.17-1.53-.16l.58.13a1.72,1.72,0,0,1-.93.08c.44.24,2.69.05,3.92.27.21-.09.59-.18.41-.29l-.39,0c-.35-.22.74-.3.24-.41a3.91,3.91,0,0,1,1.84-.27l.14.31c0-.09-.48-.18-.68-.09.3-.13,1.12.42,1.46,0l-.52-.22a4.33,4.33,0,0,1,1.82-.38c-.29-.3-.15,0-.61-.32.4.44-1.66,0-1,.45-.47-.42-.82-.18-1.44-.53,0,.1.22.19-.33.14a.38.38,0,0,1-.12.09h0s0,0,0,0a.71.71,0,0,1,.28.16c-.28.23-1.14.22-1.44.34-.32,0,.14-.12,0-.22l-.44.18c0-.23-.86-.38-.1-.51h-.68a2.82,2.82,0,0,0-1.31-.08c-.32-.05-.82.25-.53.07l-1.08.14v0c-1.07,0-2.19.37-3.41,0a4.11,4.11,0,0,1-1.32.06l-.12-.19c-.46.07-1.38-.19-1.58,0-.49-.52-2.23-.12-3-.21l0,.26a9.78,9.78,0,0,0-1.78.15l0,.23a14.43,14.43,0,0,1-2.47-.14c.06-.08.3-.06.47,0-1.12-.51-2.37.37-3.39,0a1,1,0,0,1-.62,0h0l-.36-.12a1.17,1.17,0,0,0,.3.12,7.2,7.2,0,0,0-.78.09l-.13-.24h-.06c-.29-.09-.23.11-.08.29a1.76,1.76,0,0,0-.39.15c-.23-.39-.76.13-1.08-.28-.2.2-1.47.15-1.62.57,0,0-.1-.08.06-.08a1.76,1.76,0,0,0-.94,0l-.14-.31-.71.42c-.43-.19-.61-.3-.18-.53-1,.36-.84.13-1.72.49l0-.2c-.31,0-.81.28-1,.11-.71-.37-3.48,0-5.29-.4.35.58-.84-.26-.91.19-.1-.14-.35-.21-.06-.33-.92.13-1.39-.22-2,.16-.11-.14.2-.2.1-.29s-.29.12-.39,0,.14-.11.28-.17c-.94,0-1,.44-1.1.84a.9.9,0,0,0-1.06.1c-.17-.13-.44-.26.14-.31-.33,0-2-.19-2,.13a.86.86,0,0,0-.55,0c-.74,0-.8,0-1.52,0l.2,0c-.29.39-.61.09-1.19.14l0,0c-1.34-.28-.58.13-1.9-.19l.07.24c-.13.52-1.17-.3-1.94-.1l.28.13c-.42.18-1.17-.7-1.59-.76-.1-.05.14-.07.27-.11-1.1-.3-.14.32-1,.39-.15-.17.2-.43-.35-.46-.28-.14-1.61.55-2.36.22.17.13.33.26,0,.36-.58,0-1.58-.49-2.11-.08-.07,0-.1-.07-.1-.1a6.22,6.22,0,0,0-1.72.4c-.42-.83-2.78.4-2.77-.36l-1.37,0,0-.08a2.22,2.22,0,0,0-1.5.31c-.2-.05,0-.12,0-.16a3.9,3.9,0,0,0-2.49.26l-.11-.25c-.29.15-1.86-.39-3.12-.1a.24.24,0,0,1,.14-.11c-1.41.29-3.39-.69-3.91.22l-.93.22c1.21.07-.18.39.32.54-.48,0-1.23-.27-.65-.32l.09,0c.22-.47-1.5-.17-1.47-.49-2.38,0-4.69-.24-6.92-.26l.25.37-.77,0c-.21-.09-.28-.29.28-.27-.29-.21-.93.17-1,.25-1.08-.15.43-.43.09-.44l-.45,0,.1,0a1.66,1.66,0,0,1-1.06.29c-.43-.07-.22-.22-.39-.24,0,0-.05,0-.25,0l-1,0,.39.29c-.43.14-.92,0-.47.31-.66-.5-3.65-.18-4.06-.33a5.34,5.34,0,0,1-1.95.18c.19.06.3.38-.34.34.23-.67-1.18-.29-1.7-.77.47.32-1.82.08-1.09.53-.54,0,0-.25-.44-.41-1.27.26-2.81-.17-4.38-.08,0,.09.24.22-.1.36l-.83-.44c-.31,0-.29.5-.85.2.08.07.2.18,0,.21-3.09-.43-6.3.35-9.44-.45.43.17.15.19-.18.19.21,0,0,.22,0,.34L33.4,49c-.24.33-1.41,0-1.54.34l.41-.06c-.55.37.77.83.69,1.31.62-.43,1.63.63,2.65,0,.22.1-.19.15-.07.26a1.35,1.35,0,0,1,1.14-.15l-.07,0a32.54,32.54,0,0,1,4.13.29l-.14-.24a1.88,1.88,0,0,1,.66.16c.45-.36-1.1,0-.69-.41.52.48,2.75,0,3.1.55.6,0-.17-.27.43-.27l.16.15.15-.19c.39,0,.59.22.6.34a2.52,2.52,0,0,0-.37,0,7,7,0,0,0,1.62,0l-.58-.09c1.64-.14,3.64.06,5.22-.24l-.12-.11c1.21-.21,1,.12,2.29,0l0,0a2.46,2.46,0,0,1,1-.16c-.34.14.63.26.19.4,1.31-.22.65-.17,1.51-.59l.2.19a1.51,1.51,0,0,1,1-.3c-.55.15.42.28-.19.49,1.39.4,2.07-.41,2.7.18.64-.51-1.2-.28-.84-.39-.3-.17.53-.39,1-.33s.76.65,1.87.64c-.11,0-.11,0-.23,0,.42.13.82-.18,1.34,0,.28-.31.66,0,.75-.38l-1,.1c.58-.11,1.13-.57,2.08-.35a1.67,1.67,0,0,1-.55.25c.28.11.54-.08.83,0-.08.4-1.25.09-1.87.39.3.16,1.18-.29.87.14.45-.55,1.1.07,1.85-.35l0,.24A1.7,1.7,0,0,1,66,51l-.4.3c.62-.26,1.18.23,1.77.09-1.23,0-.27-.29-.79-.46,1.51-.32.87.62,2.57.51-.23,0-.87-.14-.51-.25a2.9,2.9,0,0,1,.95.26c1.13,0-.17-.24.31-.39.38.29.55-.12,1.05-.21v.24c1.28.16.34-.5,1.49-.31l-.48.33.6-.09-.13.28a2.75,2.75,0,0,1,1.5-.08c-.14-.17.09-.43.66-.44.38.14-.22.23.58.19-.18.15-.38.34-.73.12,0,.08-.18.15-.21.23a3.62,3.62,0,0,0,1.34,0,1.3,1.3,0,0,1-.32-.06l1.17-.33c.18.09,0,.16-.11.23A5.93,5.93,0,0,1,77,51c-.09.2-.07.4-.56.49l1.11-.21c.08.08.57.23.43.3.62.12,1.51-.38,2.33-.23a.75.75,0,0,1,.3-.1,5.83,5.83,0,0,0,2.36,0l.52.35c.71-.08-.7-.44.49-.58.84-.11.31.3.61.4a2.48,2.48,0,0,1,1.91-.25A4.05,4.05,0,0,1,85.85,51.23Zm8.8-.16c-.17,0-.51.21-.64.07C94.21,50.86,94.36,51,94.65,51.07ZM108,50.49a.63.63,0,0,1-.54-.05A1.3,1.3,0,0,1,108,50.49Zm37.26-1.68,0,0C144.88,48.73,145,48.77,145.28,48.81Zm.79.11c.08,0,.07-.07,0-.1s-.24.06-.44,0C145.73,48.93,145.83,49,146.07,48.92ZM61.27,49l.15.07C61.07,49.15,61.17,49.08,61.27,49Z"/><path class="cls-3" d="M106.5,50.82a.24.24,0,0,1-.07-.13C106.36,50.73,106.36,50.78,106.5,50.82Z"/><path class="cls-3" d="M80.38,51.36h0l0,0Z"/><path class="cls-3" d="M133.83,51a.79.79,0,0,1-.31-.12C133.51,50.9,133.59,51,133.83,51Z"/><path class="cls-3" d="M150.25,48.51l-.51.06a1,1,0,0,1,.46.08C150.19,48.59,150.09,48.51,150.25,48.51Z"/><path class="cls-3" d="M154.64,50c.07,0,.16,0,.23,0l0-.11C154.54,49.86,154.31,50,154.64,50Z"/><path class="cls-3" d="M150.72,49.31c0,.2.36.13.71.1h-.06C151.47,49.12,151.09,49.22,150.72,49.31Z"/><path class="cls-3" d="M151.51,49.4a1.82,1.82,0,0,1,.33,0C151.88,49.28,151.71,49.37,151.51,49.4Z"/><path class="cls-3" d="M147.07,48.78c.17.06.1-.26.2-.17C147.46,48.35,146.15,48.92,147.07,48.78Z"/><polygon class="cls-3" points="151 49.98 150.88 49.73 150.68 49.93 151 49.98"/><path class="cls-3" d="M148.21,49.79l.56.07s.07-.06.16-.08C148.58,49.77,148.19,49.72,148.21,49.79Z"/><path class="cls-3" d="M148.93,49.78a1.44,1.44,0,0,0,.45,0A2.57,2.57,0,0,0,148.93,49.78Z"/><polygon class="cls-3" points="150.23 50.05 150.06 50 149.66 49.98 150.23 50.05"/><path class="cls-3" d="M142.12,49.75l-.62.07c-.06.08.11.14.34.1S142.22,49.83,142.12,49.75Z"/><path class="cls-3" d="M144,50.43c-.17,0-.18-.11-.27-.19l0,.31Z"/><path class="cls-3" d="M142.19,50.5c-.06.09-.9.25-.11.23C142.14,50.65,142.76,50.58,142.19,50.5Z"/><polygon class="cls-3" points="132.88 50.11 133.04 50.11 133.01 49.6 132.88 50.11"/><path class="cls-3" d="M124.67,51.33c.74.12.18-.31.84-.16.17-.12-.54-.13-.37-.23C124.7,51.07,124.47,51,124.67,51.33Z"/><path class="cls-3" d="M125.14,50.94a1.27,1.27,0,0,0,.23-.08A.91.91,0,0,0,125.14,50.94Z"/><polygon class="cls-3" points="32.52 48.76 32.05 48.65 32.35 48.82 32.52 48.76"/><path class="cls-3" d="M31.62,49.13l-.11-.32-.29.29C31.33,49.09,31.54,49.06,31.62,49.13Z"/><path class="cls-3" d="M96,51.73l0-.08c-.07-.09-.18-.09-.4-.1Z"/><polygon class="cls-3" points="89.57 51.48 89.68 51.49 89.47 51.2 89.57 51.48"/><path class="cls-3" d="M84.21,51.86c.22,0,.48,0,.69,0C84.43,51.87,84.15,51.49,84.21,51.86Z"/><path class="cls-3" d="M173.11,67.55c.21,0,.13-.2.16-.23C172.92,67.36,173.12,67.6,173.11,67.55Z"/><polygon class="cls-3" points="169.65 68.02 169.71 67.94 169.2 68.14 169.65 68.02"/><path class="cls-3" d="M166.41,68c.3.35,1.17-.06,1.75.07l.09.08.26-.29A10.84,10.84,0,0,1,166.41,68Z"/><path class="cls-3" d="M164.68,67.25c.11.13-.37.11.4,0l-.07,0A1.73,1.73,0,0,1,164.68,67.25Z"/><path class="cls-3" d="M165,67.25c.34,0-.22-.11,0,0Z"/><path class="cls-3" d="M163.44,67.33l.45-.12c-.1-.08-.5-.1-.35-.16C163.08,67.12,163.18,67.2,163.44,67.33Z"/><path class="cls-3" d="M163,67.59l.23,0S163.14,67.49,163,67.59Z"/><path class="cls-3" d="M163.74,67.43l-.5.11c.07.06.08.17.23,0C163.43,67.61,163.53,67.51,163.74,67.43Z"/><path class="cls-3" d="M164,67.48c.25.08.57.13.12.25C165,67.69,164.88,67.43,164,67.48Z"/><path class="cls-3" d="M166.24,68.39l.34.1.29-.12C166.73,68.43,166.22,68.27,166.24,68.39Z"/><path class="cls-3" d="M160.64,67.15c0,.07.15.2.18.3l.34-.09C161,67.31,160.66,67.26,160.64,67.15Z"/><path class="cls-3" d="M160.82,67.45l-.49.13C160.77,67.59,160.85,67.53,160.82,67.45Z"/><polygon class="cls-3" points="162.93 67.99 163.75 67.72 162.77 67.99 162.93 67.99"/><polygon class="cls-3" points="158.74 67.14 159.03 66.96 158.52 67.23 158.74 67.14"/><path class="cls-3" d="M157.49,67.17c.21-.15-.29-.25-.07-.34a2.65,2.65,0,0,0-.89.27A1.72,1.72,0,0,1,157.49,67.17Z"/><path class="cls-3" d="M156.08,67.26a3.52,3.52,0,0,0,.45-.16A1.62,1.62,0,0,0,156.08,67.26Z"/><path class="cls-3" d="M159.48,67.54a.53.53,0,0,0-.39-.22l.2.22Z"/><path class="cls-3" d="M159.29,67.54Z"/><path class="cls-3" d="M159.53,67.54h-.05S159.51,67.57,159.53,67.54Z"/><path class="cls-3" d="M161.63,67.8c-.29.12-.9.24-.31.43C161.53,68.08,161.19,68,161.63,67.8Z"/><path class="cls-3" d="M159.77,67.81l.53,0c0-.06-.1-.14,0-.2Z"/><polygon class="cls-3" points="159.52 67.88 159.77 67.81 159.58 67.79 159.52 67.88"/><path class="cls-3" d="M157,67.46a2.58,2.58,0,0,1-.76.12,7,7,0,0,0,.91.06C157.18,67.57,157.31,67.45,157,67.46Z"/><path class="cls-3" d="M158.11,67.52h-.05S158.11,67.56,158.11,67.52Z"/><path class="cls-3" d="M153.46,67.58l0,0a0,0,0,0,0,0,0Z"/><path class="cls-3" d="M157.19,67.68a.67.67,0,0,0,.49-.08,3.12,3.12,0,0,1-.54,0S157.12,67.69,157.19,67.68Z"/><path class="cls-3" d="M155.31,67.36a3.59,3.59,0,0,0,.39.12C155.59,67.41,155.35,67.31,155.31,67.36Z"/><path class="cls-3" d="M158,67.47h0C157.94,67.42,158,67.44,158,67.47Z"/><path class="cls-3" d="M158,67.47a1.69,1.69,0,0,0-.3.13,2,2,0,0,0,.38-.07A.24.24,0,0,1,158,67.47Z"/><path class="cls-3" d="M152.62,69c0-.2.64-.38,1.15-.17.51-.15.18-.8-.27-1.17,0,.09,0,.17-.53.29.18.11,1.15.25.71.43-.69.1-.56-.07-.9-.18.29.25-.88.36-.72.73l.6-.13C152.67,68.81,152.45,68.9,152.62,69Z"/><path class="cls-3" d="M154.5,67.63l.21,0a2.17,2.17,0,0,1-.74-.27c-.36.1-.43.17-.46.24l1.06,0Z"/><path class="cls-3" d="M155.67,67.61c-.16.21-.68.31-.36.54.63,0,.44-.18.81-.27-1,.05.29-.12-.44-.25.2,0,.38,0,.55,0l-.53-.1h0c.05,0,.06.05,0,0h0a.35.35,0,0,1-.05.08c-.29,0,0-.06.05-.08s0,0,0,0h0l-1,.12A5.92,5.92,0,0,0,155.67,67.61Z"/><path class="cls-3" d="M160.78,68.69a.09.09,0,0,1,0,0C160.68,68.67,160.65,68.68,160.78,68.69Z"/><path class="cls-3" d="M160.36,68.56a.47.47,0,0,1,.37-.09c.21.06,0,.1,0,.17s.51-.15.06-.26l-.07,0c-.41-.07-.94-.34-.87-.37A1.61,1.61,0,0,0,160.36,68.56Z"/><path class="cls-3" d="M158,68.14l-.85.1.43.19,0-.11C158,68.36,157.93,68.23,158,68.14Z"/><polygon class="cls-3" points="153.36 67.47 153.47 67.24 152.99 67.56 153.36 67.47"/><polygon class="cls-3" points="152.26 67.5 152.3 67.3 152.01 67.42 152.26 67.5"/><path class="cls-3" d="M90.16,70l-.25.06Z"/><path class="cls-3" d="M92,70l.05-.09C91.92,69.92,91.89,70,92,70Z"/><path class="cls-3" d="M125.23,67.52c-.36-.19-.76-.47-.72-.25l.11.22A1.31,1.31,0,0,1,125.23,67.52Z"/><path class="cls-3" d="M106.72,68.81l.11.07.25-.21Z"/><path class="cls-3" d="M106.47,69.71l-.48-.14A2,2,0,0,0,106.47,69.71Z"/><path class="cls-3" d="M80.32,70.18,80,70.4C80.49,70.4,80.29,70.29,80.32,70.18Z"/><path class="cls-3" d="M141,67.58a3.31,3.31,0,0,0-.78-.14C140.59,67.57,140.89,67.76,141,67.58Z"/><path class="cls-3" d="M90.87,67.65c-.15,0-.22.08-.21.13S90.9,67.7,90.87,67.65Z"/><path class="cls-3" d="M139.31,67.45l.16,0a3.41,3.41,0,0,1,.74-.06A1.13,1.13,0,0,0,139.31,67.45Z"/><path class="cls-3" d="M44.64,70s-.06,0-.08,0S44.59,70,44.64,70Z"/><path class="cls-3" d="M34.25,67.81h.42A1.19,1.19,0,0,0,34.25,67.81Z"/><path class="cls-3" d="M147.83,67.4c.24,0,0,0,0,0Z"/><path class="cls-3" d="M149,68.26c-.05,0-.09,0-.09.1A.18.18,0,0,1,149,68.26Z"/><path class="cls-3" d="M137,68.8h0C137,68.84,137,68.83,137,68.8Z"/><path class="cls-3" d="M148.19,67.5l-.3-.07Z"/><path class="cls-3" d="M148.14,67.4l.2,0S148.35,67.36,148.14,67.4Z"/><path class="cls-3" d="M147.51,67.41l.38,0s-.07,0-.06,0Z"/><path class="cls-3" d="M63.76,69.42l0,0C63.47,69.49,63.58,69.48,63.76,69.42Z"/><path class="cls-3" d="M119.16,69.77h0Z"/><path class="cls-3" d="M118.32,69.93a.84.84,0,0,1,.83-.18l-.27-.62Z"/><path class="cls-3" d="M85.85,70l.59.2c-.71.32-1.23.21-.67.48.08-.68,2.28-.07,2.37-.75l.38.15c-.11,0-.13,0-.24,0,.76.33.56-.49,1.54-.39.34,0,.57.15.34.23l.76-.17c.22,0,.16.13-.06.12L92,69.85v0a4.32,4.32,0,0,1,.72-.34c.29.09-.15.07-.08.15l.64-.16c.26.17-.27.34-.71.32.6.68.53-.17,1.82.22l-.61.09c.39.39.86.25,1.54.49-.16-.13-1.36-.61-.67-.78a1.3,1.3,0,0,0,.83-.06c0,.24.37.18.82.17l0,.32c.49-.09.46-.26.75-.4a.81.81,0,0,1,.79.49c.88.05-.61-.4.43-.46a5.2,5.2,0,0,0,2.13-.2c.51.11-.09.2.09.29l.45-.26c.12,0,.08.09.06.13.38-.1,0-.32.63-.41.17-.35,1.24.51,2,.11.19.1-.08.2,0,.32a7.75,7.75,0,0,0,1.72-.54l.71.21c-.52-.24.15-.52.73-.76-.18-.11-.34-.21-.45-.26l.94-.17c.11.05,0,.16-.13.29l.17-.08c.33.12.16.31-.08.49l-.34-.2c-.23.19-.45.41-.4.6a.89.89,0,0,1,.31-.09c-.06,0-.1.1-.07.13s.13,0,.28-.12l.21.36.06-.14,1.22.22a9.13,9.13,0,0,1,3-1c-.35.26-.08.42-.1.73-.38-.33-1.08.14-1.8.08.38,0,.3.18.2.23l1.29-.3c0,.25.27.19.61.3-.26-.51,1-.34,1.48-.49,0,.17-.09.34-.73.3.71.37.91-.59,1.6-.27-.15,0-.24,0-.3.06.37-.15,1.26,0,1,.12h-.16c1,.06,3.16,0,3.31-.42a2,2,0,0,1-.2.6l1.85-1.43c-.16.36.47,1.23-.39,1.44a2.13,2.13,0,0,0,1.07,0c-.17,0-.42-.52-.19-.56a5.13,5.13,0,0,0,1.22.57c-.26-.08,0-.65.42-.64-.06.09,0,.57-.11.63l1-.56c-.24.1,0,.47.18.63-.1-.11.86,0,1.12,0l-.42-.13c1.12.08,1.11-.79,2.22-.77-.13.12-.33.72.24.79a4.79,4.79,0,0,1,2.13-1.61l.19.17L129,68a14.85,14.85,0,0,1-2.51,1.7c.42.13.12.19.75.18.22.15-.35.23-.53.24l1.46.1c-.06-.33,1.12-.33,1.06-.61l-1.58.34c-.07-.33.91-1,1.95-.89.26.13-.2.6-.18.71a2.09,2.09,0,0,1,1.08-.14l-.44.18c.58.13.94-.45,1.64-.12.24,0,.71.43.75.23a2,2,0,0,1-.2-1.86,10.74,10.74,0,0,1,1.53.56c.39.3-.59.71-.26,1,0-.09.23-.2.32-.24.25.08-.1.29.45.24.09-.34,1.11,0,.25-.28.54-.1.57.07,1.2,0-.2-.22.56-.75,1.1-.85,0,.09.08.2.14.26,1.1,0,1.69.18,2.71.18.09.09.58.19.37.33a1.33,1.33,0,0,1,.6-.18c.61.29-.7,0-.24.4,0-.2.82-.27,1.26-.4-.13-.3-1-.06-1.48.07,0-.43.78-.87,1.85-1.06.84-.11.36.27.51.21,1.59.07,1.36-.74,2.68-.43.52.27,0,.53.14.73-.69.1-1.06-.17-1.53-.16l.58.12a1.72,1.72,0,0,1-.93.08c.44.24,2.69,0,3.92.27.21-.09.59-.18.41-.29l-.39,0c-.35-.22.74-.3.24-.4a3.91,3.91,0,0,1,1.84-.27l.14.3c0-.08-.48-.18-.68-.08.3-.14,1.12.41,1.46,0l-.52-.21a4.33,4.33,0,0,1,1.82-.39c-.29-.3-.15,0-.61-.32.4.45-1.66,0-1,.45-.47-.41-.82-.18-1.44-.53,0,.11.22.2-.33.15a.62.62,0,0,1-.12.09h0s0,0,0,0a.61.61,0,0,1,.28.15c-.28.23-1.14.22-1.44.34-.32,0,.14-.11,0-.22l-.44.18c0-.22-.86-.37-.1-.5h-.68a2.7,2.7,0,0,0-1.31-.09c-.32,0-.82.25-.53.08l-1.08.14v-.06c-1.07,0-2.19.37-3.41,0a4.78,4.78,0,0,1-1.32.06l-.12-.2c-.46.07-1.38-.19-1.58,0-.49-.52-2.23-.11-3-.2l0,.25a9.86,9.86,0,0,0-1.78.16l0,.22a14.28,14.28,0,0,1-2.47-.13c.06-.09.3-.07.47,0-1.12-.5-2.37.37-3.39,0a.87.87,0,0,1-.62,0h0a3,3,0,0,0-.36-.12,1.7,1.7,0,0,0,.3.12,4.23,4.23,0,0,0-.78.09l-.13-.24h-.06c-.29-.09-.23.12-.08.3a1.77,1.77,0,0,0-.39.14c-.23-.39-.76.13-1.08-.28-.2.2-1.47.15-1.62.58,0-.06-.1-.09.06-.09a1.76,1.76,0,0,0-.94,0l-.14-.3-.71.41c-.43-.19-.61-.3-.18-.53-1,.36-.84.14-1.72.49l0-.19c-.31,0-.81.27-1,.11-.71-.38-3.48-.06-5.29-.41.35.59-.84-.26-.91.19-.1-.13-.35-.21-.06-.33-.92.13-1.39-.22-2,.16-.11-.14.2-.2.1-.28s-.29.12-.39,0,.14-.12.28-.18c-.94,0-1,.45-1.1.85a.89.89,0,0,0-1.06.1c-.17-.13-.44-.27.14-.32-.33,0-2-.19-2,.13-.1-.08-.46,0-.55,0-.74,0-.8,0-1.52,0l.2.05c-.29.38-.61.08-1.19.13l0,0c-1.34-.28-.58.13-1.9-.18l.07.24c-.13.51-1.17-.31-1.94-.11l.28.14c-.42.17-1.17-.7-1.59-.77-.1,0,.14-.07.27-.1-1.1-.31-.14.31-1,.38-.15-.17.2-.43-.35-.46-.28-.14-1.61.55-2.36.23.17.13.33.26,0,.35-.58.05-1.58-.49-2.11-.08-.07,0-.1-.07-.1-.1a7,7,0,0,0-1.72.4c-.42-.83-2.78.4-2.77-.36l-1.37,0,0-.08a2.16,2.16,0,0,0-1.5.32c-.2,0,0-.13,0-.17a3.9,3.9,0,0,0-2.49.26L80.7,68c-.29.14-1.86-.39-3.12-.1a.25.25,0,0,1,.14-.12c-1.41.3-3.39-.68-3.91.22l-.93.22c1.21.07-.18.39.32.54-.48.06-1.23-.27-.65-.31l.09,0c.22-.47-1.5-.17-1.47-.49-2.38,0-4.69-.23-6.92-.25l.25.36-.77,0c-.21-.08-.28-.29.28-.27-.29-.21-.93.17-1,.25-1.08-.15.43-.42.09-.43l-.45,0,.1,0a1.66,1.66,0,0,1-1.06.29c-.43-.08-.22-.23-.39-.24,0,0-.05,0-.25,0l-1,0,.39.28c-.43.15-.92,0-.47.32-.66-.51-3.65-.18-4.06-.34a5.13,5.13,0,0,1-1.95.18c.19.06.3.39-.34.35.23-.67-1.18-.3-1.7-.78.47.32-1.82.08-1.09.54-.54-.06,0-.26-.44-.41-1.27.26-2.81-.17-4.38-.08,0,.08.24.22-.1.35l-.83-.44c-.31,0-.29.51-.85.2.08.08.2.19,0,.22-3.09-.43-6.3.35-9.44-.46.43.17.15.19-.18.2.21,0,0,.21,0,.33L33.4,67.8c-.24.33-1.41,0-1.54.34l.41-.06c-.55.38.77.83.69,1.31.62-.42,1.63.63,2.65,0,.22.1-.19.16-.07.27.25-.21.56-.25,1.14-.16l-.07,0a32.54,32.54,0,0,1,4.13.29l-.14-.24a1.83,1.83,0,0,1,.66.17c.45-.36-1.1,0-.69-.42.52.48,2.75,0,3.1.56.6,0-.17-.28.43-.27l.16.14.15-.19c.39,0,.59.22.6.34a2.52,2.52,0,0,0-.37,0,7.14,7.14,0,0,0,1.62,0l-.58-.09c1.64-.14,3.64,0,5.22-.25l-.12-.11c1.21-.21,1,.12,2.29,0l0,0a2.47,2.47,0,0,1,1-.15c-.34.13.63.25.19.4,1.31-.22.65-.18,1.51-.59l.2.18a1.63,1.63,0,0,1,1-.3c-.55.16.42.28-.19.49,1.39.41,2.07-.41,2.7.19.64-.52-1.2-.29-.84-.4-.3-.17.53-.38,1-.33s.76.66,1.87.65c-.11,0-.11,0-.23,0,.42.13.82-.18,1.34,0,.28-.32.66,0,.75-.38l-1,.09c.58-.1,1.13-.57,2.08-.34a1.69,1.69,0,0,1-.55.24c.28.12.54-.08.83,0-.08.4-1.25.09-1.87.39.3.17,1.18-.29.87.14.45-.54,1.1.07,1.85-.34l0,.23a2,2,0,0,1,.59-.14l-.4.31c.62-.27,1.18.23,1.77.08-1.23,0-.27-.28-.79-.46,1.51-.31.87.63,2.57.51-.23,0-.87-.14-.51-.25a3.17,3.17,0,0,1,.95.26c1.13,0-.17-.24.31-.39.38.29.55-.11,1.05-.21v.24c1.28.16.34-.5,1.49-.31l-.48.33.6-.08-.13.27a2.75,2.75,0,0,1,1.5-.07c-.14-.17.09-.44.66-.45.38.15-.22.23.58.2-.18.15-.38.34-.73.12,0,.07-.18.15-.21.22a3.62,3.62,0,0,0,1.34,0,1,1,0,0,1-.32-.06l1.17-.33c.18.09,0,.16-.11.23.24,0,.4-.13.75-.15-.09.19-.07.39-.56.49l1.11-.22c.08.08.57.23.43.31.62.11,1.51-.39,2.33-.23a.59.59,0,0,1,.3-.11,5.83,5.83,0,0,0,2.36,0l.52.35c.71-.08-.7-.44.49-.57.84-.12.31.3.61.39A2.57,2.57,0,0,1,86.54,70,3.24,3.24,0,0,1,85.85,70Zm8.8-.15c-.17,0-.51.2-.64.06C94.21,69.65,94.36,69.78,94.65,69.86ZM108,69.28a.63.63,0,0,1-.54,0A1.15,1.15,0,0,1,108,69.28Zm37.26-1.68s0,0,0,0C144.88,67.51,145,67.55,145.28,67.6Zm.79.1c.08,0,.07-.07,0-.1a.67.67,0,0,1-.44.05C145.73,67.71,145.83,67.76,146.07,67.7Zm-84.8.1.15.06C61.07,67.93,61.17,67.87,61.27,67.8Z"/><path class="cls-3" d="M106.5,69.61a.28.28,0,0,1-.07-.13C106.36,69.52,106.36,69.56,106.5,69.61Z"/><path class="cls-3" d="M80.38,70.14h0l0,0Z"/><path class="cls-3" d="M133.83,69.75a.77.77,0,0,1-.31-.13C133.51,69.68,133.59,69.73,133.83,69.75Z"/><path class="cls-3" d="M150.25,67.29l-.51.06a1.15,1.15,0,0,1,.46.08C150.19,67.38,150.09,67.3,150.25,67.29Z"/><path class="cls-3" d="M154.64,68.78c.07,0,.16,0,.23,0l0-.11C154.54,68.65,154.31,68.74,154.64,68.78Z"/><path class="cls-3" d="M150.72,68.09c0,.21.36.14.71.1h-.06C151.47,67.91,151.09,68,150.72,68.09Z"/><path class="cls-3" d="M151.51,68.18a1.82,1.82,0,0,1,.33,0C151.88,68.06,151.71,68.15,151.51,68.18Z"/><path class="cls-3" d="M147.07,67.57c.17.05.1-.26.2-.18C147.46,67.13,146.15,67.7,147.07,67.57Z"/><polygon class="cls-3" points="151 68.76 150.88 68.51 150.68 68.71 151 68.76"/><path class="cls-3" d="M148.21,68.58l.56.07s.07-.07.16-.09C148.58,68.55,148.19,68.5,148.21,68.58Z"/><path class="cls-3" d="M148.93,68.56a1.19,1.19,0,0,0,.45,0A2.57,2.57,0,0,0,148.93,68.56Z"/><polygon class="cls-3" points="150.23 68.84 150.06 68.78 149.66 68.77 150.23 68.84"/><path class="cls-3" d="M142.12,68.53l-.62.07c-.06.09.11.14.34.11S142.22,68.61,142.12,68.53Z"/><path class="cls-3" d="M144,69.22a.59.59,0,0,1-.27-.19l0,.31Z"/><path class="cls-3" d="M142.19,69.29c-.06.08-.9.25-.11.23C142.14,69.43,142.76,69.36,142.19,69.29Z"/><polygon class="cls-3" points="132.88 68.89 133.04 68.89 133.01 68.38 132.88 68.89"/><path class="cls-3" d="M124.67,70.11c.74.13.18-.31.84-.16.17-.12-.54-.12-.37-.23C124.7,69.85,124.47,69.78,124.67,70.11Z"/><path class="cls-3" d="M125.14,69.72l.23-.07Z"/><polygon class="cls-3" points="32.52 67.54 32.05 67.43 32.35 67.6 32.52 67.54"/><path class="cls-3" d="M31.62,67.92l-.11-.33-.29.3C31.33,67.87,31.54,67.84,31.62,67.92Z"/><path class="cls-3" d="M96,70.51l0-.08c-.07-.08-.18-.09-.4-.1Z"/><polygon class="cls-3" points="89.57 70.27 89.68 70.28 89.47 69.98 89.57 70.27"/><path class="cls-3" d="M84.21,70.64c.22,0,.48,0,.69,0C84.43,70.65,84.15,70.28,84.21,70.64Z"/><text class="cls-4" transform="translate(65.27 64.72)">GUSTO ITALIANO</text><path class="cls-3" d="M32.16,76l.14.13c1,.44,2.07.91,3.13,1.3a17.1,17.1,0,0,0,2.42.69,5.36,5.36,0,0,0,2.39.22,4.12,4.12,0,0,0,2.11-.9.38.38,0,0,1,.24-.07,41.56,41.56,0,0,1,9.18.63,45.83,45.83,0,0,1,7,1.77A46.35,46.35,0,0,1,70,85.18a42.92,42.92,0,0,1,6.57,5.22,16,16,0,0,1,3.87,5.09.66.66,0,0,0,.68.36c.2,0,.32-.12.26-.33a10.61,10.61,0,0,0-.46-1.58,12.49,12.49,0,0,0-2.79-3.74,41.44,41.44,0,0,0-5.79-4.7,52.36,52.36,0,0,0-12.8-6.35c-1.22-.43-2.48-.76-3.74-1.07a39.81,39.81,0,0,0-6-1,49.23,49.23,0,0,0-6.87-.17c-.3,0-.59.06-.83-.2a.86.86,0,0,0-.32-.15,12.06,12.06,0,0,0-4-.71c-1.62,0-3.23.06-4.85.1A6,6,0,0,0,32.16,76Z"/><path class="cls-3" d="M54.76,83.07l0,.12.24.06c1.14.26,2.29.49,3.43.77a11,11,0,0,0,6.39-.46,2,2,0,0,0,.33-.19,2,2,0,0,0-.29-.25c-.36-.18-.71-.36-1.08-.51a10.81,10.81,0,0,0-2.25-.8,9,9,0,0,0-4.82.44Z"/><path class="cls-3" d="M66.11,81.28l.1-.06c-.1-.26-.2-.52-.32-.78A10.43,10.43,0,0,1,65.25,79,6.46,6.46,0,0,0,64,76.54,7.43,7.43,0,0,0,62.33,75c-1.24-.81-2.56-1.52-3.85-2.27a.71.71,0,0,0-.21,0c0,.12.08.21.12.29.39.68.79,1.36,1.17,2a7.6,7.6,0,0,0,1.78,2.24c.77.63,1.57,1.23,2.33,1.86a10.75,10.75,0,0,1,1.24,1.19A4.84,4.84,0,0,0,66.11,81.28Z"/><path class="cls-3" d="M53.39,77.11l0-.12a4,4,0,0,1-1.23-1.46,6,6,0,0,0-1.83-2A23.37,23.37,0,0,0,45.75,71a6.36,6.36,0,0,0-.62-.19l-.05.07c.41.67.79,1.35,1.22,2A6.58,6.58,0,0,0,48,74.59,23.42,23.42,0,0,0,52,76.74,9.69,9.69,0,0,0,53.39,77.11Z"/><path class="cls-3" d="M77,83.07l-.12,0a5.07,5.07,0,0,0,0,.55c.12.69.25,1.37.38,2,.1.51.15,1,.29,1.51a6.28,6.28,0,0,0,1.79,3.12c.44.39.81.85,1.21,1.28l.24.27.1,0A9.93,9.93,0,0,0,81,90.64,7.41,7.41,0,0,0,80,87.1a19.12,19.12,0,0,0-2.69-3.7Z"/><path class="cls-3" d="M41,80.35a.48.48,0,0,0,.11.08c.64.2,1.28.42,1.92.61a4.45,4.45,0,0,0,4.15-1,10.77,10.77,0,0,1,2-1.41,2.77,2.77,0,0,0,.55-.42l-.05-.14c-.37,0-.74,0-1.12,0-.65,0-1.3.14-1.94.13a5.77,5.77,0,0,0-2.88.46c-.88.47-1.75,1-2.62,1.46A.62.62,0,0,0,41,80.35Z"/><path class="cls-3" d="M59.33,78.65a1,1,0,0,0,.09-.44,4,4,0,0,0-.32-1.1,7.48,7.48,0,0,0-1.78-2.06,22.43,22.43,0,0,0-4.2-2.9,2,2,0,0,0-.28-.11,2.65,2.65,0,0,0,.19.5c.47.82,1,1.62,1.43,2.43A7.58,7.58,0,0,0,59.33,78.65Z"/><path class="cls-3" d="M67.52,77.62l-.1.07c.1.21.19.42.3.61s.29.42.41.64c.45.87.89,1.75,1.33,2.62a9.49,9.49,0,0,0,2.79,3.25,4.18,4.18,0,0,0,1,.53c.3.11.49,0,.45-.37a3.83,3.83,0,0,0-.22-.87,7.79,7.79,0,0,0-1.66-2.67c-.75-.78-1.54-1.51-2.35-2.23C68.87,78.64,68.18,78.15,67.52,77.62Z"/><path class="cls-3" d="M63.16,85.64l0,.08c.19.11.37.24.57.34a27.71,27.71,0,0,0,4.41,1.7,6.11,6.11,0,0,0,3.12.14,6,6,0,0,1,1.27,0h.16a1.64,1.64,0,0,0-.46-.45c-.53-.37-1.07-.71-1.61-1.07a4.63,4.63,0,0,0-2.5-.9c-1.17,0-2.35,0-3.53,0A13.52,13.52,0,0,0,63.16,85.64Z"/><path class="cls-3" d="M47.93,82.55l.11.07h.26A14.47,14.47,0,0,0,52,82.06a12.35,12.35,0,0,0,1.89-.74,4.05,4.05,0,0,0,1.58-1.44c.33-.51.17-.84-.44-.92h-.18a5.37,5.37,0,0,0-2.84.66c-.58.34-1.09.8-1.64,1.2L48.66,82Z"/><path class="cls-3" d="M68.2,89.92V90a3,3,0,0,0,.31.15c.85.32,1.69.67,2.55,1a16.92,16.92,0,0,0,4,.92A4.77,4.77,0,0,0,76.51,92a.48.48,0,0,0,.17-.86,2.88,2.88,0,0,0-.39-.3,8.08,8.08,0,0,0-4.69-1.22c-1,.06-2,.15-3,.24A1.82,1.82,0,0,0,68.2,89.92Z"/><path class="cls-3" d="M46.9,75.67c-.47-.36-1-.67-1.39-1.07a7.12,7.12,0,0,0-3.65-1.72c-.93-.16-1.85-.41-2.77-.61a1.46,1.46,0,0,0-.22,0c0,.05,0,.07,0,.08A7.38,7.38,0,0,0,42.44,75a29.11,29.11,0,0,0,3.1.73A2.42,2.42,0,0,0,46.9,75.67Z"/><path class="cls-3" d="M32.16,76a6,6,0,0,1,.75-.09c1.62,0,3.23-.1,4.85-.1a12.06,12.06,0,0,1,4,.71.86.86,0,0,1,.32.15c.24.26.53.21.83.2a49.23,49.23,0,0,1,6.87.17,39.81,39.81,0,0,1,6,1c1.26.31,2.52.64,3.74,1.07a52.36,52.36,0,0,1,12.8,6.35,41.44,41.44,0,0,1,5.79,4.7,12.49,12.49,0,0,1,2.79,3.74,10.61,10.61,0,0,1,.46,1.58c.06.21-.06.3-.26.33a.66.66,0,0,1-.68-.36,16,16,0,0,0-3.87-5.09A42.92,42.92,0,0,0,70,85.18a46.35,46.35,0,0,0-11.24-5.39,45.83,45.83,0,0,0-7-1.77,41.56,41.56,0,0,0-9.18-.63.38.38,0,0,0-.24.07,4.12,4.12,0,0,1-2.11.9,5.36,5.36,0,0,1-2.39-.22,17.1,17.1,0,0,1-2.42-.69c-1.06-.39-2.09-.86-3.13-1.3Z"/><path class="cls-3" d="M54.76,83.07l2-.82a9,9,0,0,1,4.82-.44,10.81,10.81,0,0,1,2.25.8c.37.15.72.33,1.08.51a2,2,0,0,1,.29.25,2,2,0,0,1-.33.19,11,11,0,0,1-6.39.46c-1.14-.28-2.29-.51-3.43-.77l-.24-.06Z"/><path class="cls-3" d="M66.11,81.28a4.84,4.84,0,0,1-1.2-.93,10.75,10.75,0,0,0-1.24-1.19c-.76-.63-1.56-1.23-2.33-1.86a7.6,7.6,0,0,1-1.78-2.24c-.38-.69-.78-1.37-1.17-2,0-.08-.07-.17-.12-.29a.71.71,0,0,1,.21,0c1.29.75,2.61,1.46,3.85,2.27A7.43,7.43,0,0,1,64,76.54,6.46,6.46,0,0,1,65.25,79a10.43,10.43,0,0,0,.64,1.46c.12.26.22.52.32.78Z"/><path class="cls-3" d="M53.39,77.11A9.69,9.69,0,0,1,52,76.74,23.42,23.42,0,0,1,48,74.59,6.58,6.58,0,0,1,46.3,72.9c-.43-.65-.81-1.33-1.22-2l.05-.07a6.36,6.36,0,0,1,.62.19,23.37,23.37,0,0,1,4.61,2.51,6,6,0,0,1,1.83,2A4,4,0,0,0,53.42,77Z"/><path class="cls-3" d="M77,83.07l.31.33A19.12,19.12,0,0,1,80,87.1,7.41,7.41,0,0,1,81,90.64a9.93,9.93,0,0,1-.16,1.22l-.1,0-.24-.27c-.4-.43-.77-.89-1.21-1.28a6.28,6.28,0,0,1-1.79-3.12c-.14-.49-.19-1-.29-1.51-.13-.68-.26-1.36-.38-2a5.07,5.07,0,0,1,0-.55Z"/><path class="cls-3" d="M41,80.35a.62.62,0,0,1,.14-.14c.87-.49,1.74-1,2.62-1.46a5.77,5.77,0,0,1,2.88-.46c.64,0,1.29-.09,1.94-.13.38,0,.75,0,1.12,0l.05.14a2.77,2.77,0,0,1-.55.42,10.77,10.77,0,0,0-2,1.41A4.45,4.45,0,0,1,43,81c-.64-.19-1.28-.41-1.92-.61A.48.48,0,0,1,41,80.35Z"/><path class="cls-3" d="M59.33,78.65A7.58,7.58,0,0,1,54.46,75c-.47-.81-1-1.61-1.43-2.43a2.65,2.65,0,0,1-.19-.5,2,2,0,0,1,.28.11,22.43,22.43,0,0,1,4.2,2.9,7.48,7.48,0,0,1,1.78,2.06,4,4,0,0,1,.32,1.1A1,1,0,0,1,59.33,78.65Z"/><path class="cls-3" d="M67.52,77.62c.66.53,1.35,1,2,1.58.81.72,1.6,1.45,2.35,2.23a7.79,7.79,0,0,1,1.66,2.67,3.83,3.83,0,0,1,.22.87c0,.32-.15.48-.45.37a4.18,4.18,0,0,1-1-.53,9.49,9.49,0,0,1-2.79-3.25c-.44-.87-.88-1.75-1.33-2.62-.12-.22-.29-.42-.41-.64s-.2-.4-.3-.61Z"/><path class="cls-3" d="M63.16,85.64a13.52,13.52,0,0,1,1.41-.16c1.18,0,2.36,0,3.53,0a4.63,4.63,0,0,1,2.5.9c.54.36,1.08.7,1.61,1.07a1.64,1.64,0,0,1,.46.45h-.16a6,6,0,0,0-1.27,0,6.11,6.11,0,0,1-3.12-.14,27.71,27.71,0,0,1-4.41-1.7c-.2-.1-.38-.23-.57-.34Z"/><path class="cls-3" d="M47.93,82.55l.73-.53,1.67-1.21c.55-.4,1.06-.86,1.64-1.2A5.37,5.37,0,0,1,54.81,79H55c.61.08.77.41.44.92a4.05,4.05,0,0,1-1.58,1.44,12.35,12.35,0,0,1-1.89.74,14.47,14.47,0,0,1-3.66.56H48Z"/><path class="cls-3" d="M68.2,89.92a1.82,1.82,0,0,1,.38-.11c1-.09,2-.18,3-.24a8.08,8.08,0,0,1,4.69,1.22,2.88,2.88,0,0,1,.39.3.48.48,0,0,1-.17.86A4.77,4.77,0,0,1,75.1,92a16.92,16.92,0,0,1-4-.92c-.86-.28-1.7-.63-2.55-1A3,3,0,0,1,68.2,90Z"/><path class="cls-3" d="M46.9,75.67a2.42,2.42,0,0,1-1.36.08,29.11,29.11,0,0,1-3.1-.73,7.38,7.38,0,0,1-3.56-2.7s0,0,0-.08a1.46,1.46,0,0,1,.22,0c.92.2,1.84.45,2.77.61a7.12,7.12,0,0,1,3.65,1.72C45.94,75,46.43,75.31,46.9,75.67Z"/><path class="cls-3" d="M170.54,76c-1.62,0-3.24-.09-4.86-.1a12.06,12.06,0,0,0-4,.72,1,1,0,0,0-.32.14c-.24.26-.53.22-.84.2a50.71,50.71,0,0,0-6.86.17,39.83,39.83,0,0,0-6.05,1,37.12,37.12,0,0,0-3.74,1.07,51.8,51.8,0,0,0-12.8,6.34,40.81,40.81,0,0,0-5.79,4.71A12.65,12.65,0,0,0,122.5,94a13.69,13.69,0,0,0-.46,1.58c-.05.21.07.31.26.33a.67.67,0,0,0,.69-.35,16.2,16.2,0,0,1,3.86-5.1,44,44,0,0,1,6.57-5.22,49.49,49.49,0,0,1,18.26-7.16,42.09,42.09,0,0,1,9.18-.63.45.45,0,0,1,.24.07,4.08,4.08,0,0,0,2.11.9,5.22,5.22,0,0,0,2.39-.22,17.06,17.06,0,0,0,2.42-.68c1.06-.39,2.08-.87,3.12-1.3,0,0,.05,0,.14-.13A6.11,6.11,0,0,0,170.54,76Z"/><path class="cls-3" d="M146.7,82.3a9.12,9.12,0,0,0-4.82-.44,11.24,11.24,0,0,0-2.25.81,10.64,10.64,0,0,0-1.08.51,1.42,1.42,0,0,0-.3.24,2,2,0,0,0,.33.19,11,11,0,0,0,6.4.46c1.14-.28,2.28-.51,3.43-.77a2.1,2.1,0,0,0,.24-.06l0-.12Z"/><path class="cls-3" d="M138.53,80.4a10.71,10.71,0,0,1,1.25-1.18c.76-.64,1.56-1.24,2.32-1.87a7.47,7.47,0,0,0,1.79-2.24c.38-.69.78-1.36,1.16-2a2,2,0,0,0,.13-.29c-.1,0-.17,0-.21,0-1.29.75-2.61,1.46-3.86,2.27a7.64,7.64,0,0,0-1.61,1.5A6.44,6.44,0,0,0,138.2,79a10.38,10.38,0,0,1-.65,1.45c-.11.26-.21.53-.32.79l.11,0A4.62,4.62,0,0,0,138.53,80.4Z"/><path class="cls-3" d="M151.42,76.79a23.79,23.79,0,0,0,4.05-2.15A6.24,6.24,0,0,0,157.14,73c.44-.65.82-1.33,1.22-2l0-.07a6.4,6.4,0,0,0-.62.2,23.33,23.33,0,0,0-4.61,2.5,6.08,6.08,0,0,0-1.84,2A3.94,3.94,0,0,1,150,77.05l0,.12A8.82,8.82,0,0,0,151.42,76.79Z"/><path class="cls-3" d="M126.18,83.45a19.12,19.12,0,0,0-2.69,3.7,7.3,7.3,0,0,0-1.08,3.55c0,.41.1.81.15,1.22h.11l.24-.26c.4-.43.77-.9,1.21-1.29a6.25,6.25,0,0,0,1.79-3.11c.14-.49.19-1,.28-1.51.13-.69.27-1.37.39-2.06a3.37,3.37,0,0,0,0-.55l-.11,0Z"/><path class="cls-3" d="M162.35,80.26c-.87-.49-1.73-1-2.61-1.45a5.68,5.68,0,0,0-2.88-.47c-.65,0-1.3-.09-2-.13-.37,0-.74,0-1.12,0l0,.13a2.63,2.63,0,0,0,.54.42,10.59,10.59,0,0,1,2,1.41,4.48,4.48,0,0,0,4.16,1c.64-.19,1.28-.41,1.92-.62a.48.48,0,0,0,.11-.08C162.44,80.35,162.41,80.29,162.35,80.26Z"/><path class="cls-3" d="M149,75c.47-.81,1-1.61,1.43-2.42.07-.13.1-.28.19-.5l-.28.1a22.58,22.58,0,0,0-4.2,2.9,7.52,7.52,0,0,0-1.79,2.06,4.5,4.5,0,0,0-.32,1.1c0,.15.07.32.09.45A7.56,7.56,0,0,0,149,75Z"/><path class="cls-3" d="M134,79.26c-.81.71-1.6,1.45-2.35,2.22a8.12,8.12,0,0,0-1.67,2.68,3.18,3.18,0,0,0-.21.86c0,.32.15.48.45.37a3.84,3.84,0,0,0,1-.52A9.49,9.49,0,0,0,134,81.61c.45-.87.89-1.75,1.34-2.61.12-.23.28-.42.41-.64s.2-.41.3-.61l-.1-.07C135.27,78.2,134.58,78.7,134,79.26Z"/><path class="cls-3" d="M138.88,85.53c-1.18,0-2.36,0-3.54,0a4.75,4.75,0,0,0-2.5.9l-1.6,1.07a1.78,1.78,0,0,0-.46.45h.15a6.1,6.1,0,0,1,1.28,0,6.18,6.18,0,0,0,3.11-.13,28.85,28.85,0,0,0,4.42-1.71c.19-.1.38-.23.56-.34v-.08C139.82,85.64,139.35,85.54,138.88,85.53Z"/><path class="cls-3" d="M154.79,82.07l-1.68-1.21a19,19,0,0,0-1.63-1.2,5.39,5.39,0,0,0-2.84-.66l-.18,0c-.61.07-.78.4-.45.92a4.05,4.05,0,0,0,1.59,1.43,11.3,11.3,0,0,0,1.88.74,14.61,14.61,0,0,0,3.66.56,1.22,1.22,0,0,0,.27,0l.11-.07Z"/><path class="cls-3" d="M134.87,89.86c-1-.08-2-.18-3-.24a8.05,8.05,0,0,0-4.68,1.23,2.27,2.27,0,0,0-.4.29.48.48,0,0,0,.18.87,4.75,4.75,0,0,0,1.41.09,17.55,17.55,0,0,0,4-.93c.86-.28,1.7-.62,2.55-1,.1,0,.2-.1.3-.15V90A2.26,2.26,0,0,0,134.87,89.86Z"/><path class="cls-3" d="M157.91,75.81a29.69,29.69,0,0,0,3.1-.73,7.43,7.43,0,0,0,3.55-2.7.41.41,0,0,0,0-.09l-.22,0c-.93.21-1.84.45-2.77.62a7,7,0,0,0-3.65,1.72c-.43.39-.92.71-1.4,1.07A2.55,2.55,0,0,0,157.91,75.81Z"/><path class="cls-3" d="M171.28,76.08a6.11,6.11,0,0,0-.74-.1c-1.62,0-3.24-.09-4.86-.1a12.06,12.06,0,0,0-4,.72,1,1,0,0,0-.32.14c-.24.26-.53.22-.84.2a50.71,50.71,0,0,0-6.86.17,39.83,39.83,0,0,0-6.05,1,37.12,37.12,0,0,0-3.74,1.07,51.8,51.8,0,0,0-12.8,6.34,40.81,40.81,0,0,0-5.79,4.71A12.65,12.65,0,0,0,122.5,94a13.69,13.69,0,0,0-.46,1.58c-.05.21.07.31.26.33a.67.67,0,0,0,.69-.35,16.2,16.2,0,0,1,3.86-5.1,44,44,0,0,1,6.57-5.22,49.49,49.49,0,0,1,18.26-7.16,42.09,42.09,0,0,1,9.18-.63.45.45,0,0,1,.24.07,4.08,4.08,0,0,0,2.11.9,5.22,5.22,0,0,0,2.39-.22,17.06,17.06,0,0,0,2.42-.68c1.06-.39,2.08-.87,3.12-1.3C171.17,76.2,171.19,76.17,171.28,76.08Z"/><path class="cls-3" d="M148.69,83.12l-2-.82a9.12,9.12,0,0,0-4.82-.44,11.24,11.24,0,0,0-2.25.81,10.64,10.64,0,0,0-1.08.51,1.42,1.42,0,0,0-.3.24,2,2,0,0,0,.33.19,11,11,0,0,0,6.4.46c1.14-.28,2.28-.51,3.43-.77a2.1,2.1,0,0,0,.24-.06Z"/><path class="cls-3" d="M137.34,81.33a4.62,4.62,0,0,0,1.19-.93,10.71,10.71,0,0,1,1.25-1.18c.76-.64,1.56-1.24,2.32-1.87a7.47,7.47,0,0,0,1.79-2.24c.38-.69.78-1.36,1.16-2a2,2,0,0,0,.13-.29c-.1,0-.17,0-.21,0-1.29.75-2.61,1.46-3.86,2.27a7.64,7.64,0,0,0-1.61,1.5A6.44,6.44,0,0,0,138.2,79a10.38,10.38,0,0,1-.65,1.45c-.11.26-.21.53-.32.79Z"/><path class="cls-3" d="M150.06,77.17a8.82,8.82,0,0,0,1.36-.38,23.79,23.79,0,0,0,4.05-2.15A6.24,6.24,0,0,0,157.14,73c.44-.65.82-1.33,1.22-2l0-.07a6.4,6.4,0,0,0-.62.2,23.33,23.33,0,0,0-4.61,2.5,6.08,6.08,0,0,0-1.84,2A3.94,3.94,0,0,1,150,77.05Z"/><path class="cls-3" d="M126.49,83.12l-.31.33a19.12,19.12,0,0,0-2.69,3.7,7.3,7.3,0,0,0-1.08,3.55c0,.41.1.81.15,1.22h.11l.24-.26c.4-.43.77-.9,1.21-1.29a6.25,6.25,0,0,0,1.79-3.11c.14-.49.19-1,.28-1.51.13-.69.27-1.37.39-2.06a3.37,3.37,0,0,0,0-.55Z"/><path class="cls-3" d="M162.5,80.4c-.06-.05-.09-.11-.15-.14-.87-.49-1.73-1-2.61-1.45a5.68,5.68,0,0,0-2.88-.47c-.65,0-1.3-.09-2-.13-.37,0-.74,0-1.12,0l0,.13a2.63,2.63,0,0,0,.54.42,10.59,10.59,0,0,1,2,1.41,4.48,4.48,0,0,0,4.16,1c.64-.19,1.28-.41,1.92-.62A.48.48,0,0,0,162.5,80.4Z"/><path class="cls-3" d="M144.11,78.71A7.56,7.56,0,0,0,149,75c.47-.81,1-1.61,1.43-2.42.07-.13.1-.28.19-.5l-.28.1a22.58,22.58,0,0,0-4.2,2.9,7.52,7.52,0,0,0-1.79,2.06,4.5,4.5,0,0,0-.32,1.1C144,78.41,144.09,78.58,144.11,78.71Z"/><path class="cls-3" d="M135.93,77.68c-.66.52-1.35,1-2,1.58-.81.71-1.6,1.45-2.35,2.22a8.12,8.12,0,0,0-1.67,2.68,3.18,3.18,0,0,0-.21.86c0,.32.15.48.45.37a3.84,3.84,0,0,0,1-.52A9.49,9.49,0,0,0,134,81.61c.45-.87.89-1.75,1.34-2.61.12-.23.28-.42.41-.64s.2-.41.3-.61Z"/><path class="cls-3" d="M140.29,85.69c-.47,0-.94-.15-1.41-.16-1.18,0-2.36,0-3.54,0a4.75,4.75,0,0,0-2.5.9l-1.6,1.07a1.78,1.78,0,0,0-.46.45h.15a6.1,6.1,0,0,1,1.28,0,6.18,6.18,0,0,0,3.11-.13,28.85,28.85,0,0,0,4.42-1.71c.19-.1.38-.23.56-.34Z"/><path class="cls-3" d="M155.52,82.6l-.73-.53-1.68-1.21a19,19,0,0,0-1.63-1.2,5.39,5.39,0,0,0-2.84-.66l-.18,0c-.61.07-.78.4-.45.92a4.05,4.05,0,0,0,1.59,1.43,11.3,11.3,0,0,0,1.88.74,14.61,14.61,0,0,0,3.66.56,1.22,1.22,0,0,0,.27,0Z"/><path class="cls-3" d="M135.24,90a2.26,2.26,0,0,0-.37-.11c-1-.08-2-.18-3-.24a8.05,8.05,0,0,0-4.68,1.23,2.27,2.27,0,0,0-.4.29.48.48,0,0,0,.18.87,4.75,4.75,0,0,0,1.41.09,17.55,17.55,0,0,0,4-.93c.86-.28,1.7-.62,2.55-1,.1,0,.2-.1.3-.15Z"/><path class="cls-3" d="M156.54,75.73a2.55,2.55,0,0,0,1.37.08,29.69,29.69,0,0,0,3.1-.73,7.43,7.43,0,0,0,3.55-2.7.41.41,0,0,0,0-.09l-.22,0c-.93.21-1.84.45-2.77.62a7,7,0,0,0-3.65,1.72C157.51,75.05,157,75.37,156.54,75.73Z"/></svg>
