<svg id="Layer_1" data-name="Layer 1" xmlns="http://www.w3.org/2000/svg" viewBox="0 0 500 500"><defs><style>.cls-1,.cls-2{fill:#fff;}.cls-2{font-size:130px;font-family:AmaticSC-Bold, Amatic SC;font-weight:700;}</style></defs><title>topArrow</title><path class="cls-1" d="M125.71,307.63c-.13.12,0,.07.28-.3a3.21,3.21,0,0,0,.21-.3Z"/><path class="cls-1" d="M128.12,305.36c.36-.46.63-1.14.22-1a10,10,0,0,1-.62,1.28c-.34.36-.64.58-.61.48-.1.15-.53.56-.67.79a10.06,10.06,0,0,0,1.61-1.64C128.21,305.13,128.12,305.3,128.12,305.36Z"/><path class="cls-1" d="M165.6,275.07h-.42A.6.6,0,0,0,165.6,275.07Z"/><path class="cls-1" d="M188.3,255.75a.49.49,0,0,0,.1.59C188.45,256.08,188.48,255.86,188.3,255.75Z"/><path class="cls-1" d="M193.77,254.16a2.62,2.62,0,0,0-.33.09C193.67,254.33,193.84,254.34,193.77,254.16Z"/><path class="cls-1" d="M165.6,275.07h1.08C166.2,274.47,166,274.93,165.6,275.07Z"/><path class="cls-1" d="M131.92,299.72a1.62,1.62,0,0,0-.16.45l.21-.36A.41.41,0,0,0,131.92,299.72Z"/><path class="cls-1" d="M157,285.05l-.2.15q.17.33.42.75Z"/><path class="cls-1" d="M149,291.27c.23-.09-.65-1.15-1-1.65.29.5.34.8.25,1A4.24,4.24,0,0,0,149,291.27Z"/><path class="cls-1" d="M135.1,299.82l-.16.24A2.5,2.5,0,0,0,135.1,299.82Z"/><path class="cls-1" d="M162.91,280.87a4.36,4.36,0,0,0,.55.47A3,3,0,0,0,162.91,280.87Z"/><path class="cls-1" d="M367.72,297.53s0,.06-.07.08S367.77,297.6,367.72,297.53Z"/><path class="cls-1" d="M374.29,307.63l-.13-.1,0,0Z"/><path class="cls-1" d="M202.31,249.68h-.06C202.22,250,202.3,249.89,202.31,249.68Z"/><path class="cls-1" d="M252.9,206.16c.49-1.95,2.69-.59,2.95-3C255.43,203.81,252.79,204.5,252.9,206.16Z"/><path class="cls-1" d="M132.14,299.56l.25-.33A1.34,1.34,0,0,0,132.14,299.56Z"/><path class="cls-1" d="M255.85,203.15h0l0-.24Z"/><path class="cls-1" d="M217.23,234.23a3.45,3.45,0,0,0-.75-.48A2.6,2.6,0,0,0,217.23,234.23Z"/><path class="cls-1" d="M203.61,243l.47-.08A.73.73,0,0,0,203.61,243Z"/><path class="cls-1" d="M221.42,226.55c.26,0,.5.11.54-.28a1.17,1.17,0,0,0-.23-.11C221.83,226.43,221.81,226.61,221.42,226.55Z"/><path class="cls-1" d="M227.74,220.67a3.26,3.26,0,0,0-.38-.18l-.13.26Z"/><path class="cls-1" d="M351.67,276.25a9.64,9.64,0,0,1-.85,1.5C351.61,276.71,352.7,277.4,351.67,276.25Z"/><path class="cls-1" d="M132.13,299.93a.38.38,0,0,1,0-.37l-.17.25C132,299.88,132.06,299.94,132.13,299.93Z"/><path class="cls-1" d="M211.12,214.93l1.21-.72A3.17,3.17,0,0,0,211.12,214.93Z"/><path class="cls-1" d="M306.51,233.85l.39,0C306.84,233.78,306.72,233.74,306.51,233.85Z"/><path class="cls-1" d="M215.11,211.23a3.5,3.5,0,0,0,1.5.47,3.38,3.38,0,0,0-.23-.48Z"/><path class="cls-1" d="M350.81,277.77v0Z"/><path class="cls-1" d="M358.85,282.39c-.71-1.16-1.61.83-2.51,1.4-1.35-.84.52-1.63.89-2.81-.9-.46-2.65.33-3.06-.3.2-.3.2-.51.6-.69-.89.2-1.38-.39-1.93-1a2,2,0,0,0-2.33-.71,2.56,2.56,0,0,1,.3-.55,17.08,17.08,0,0,1-2.07,2.51c-.43-.4-1.79.33-.87-1,.21.29.67-.15,1.11-.38l-.88,0c1.18-2.09,1.1,0,2.22-1.17-1.25-.41-3.53,0-3.7-1.17,1.48-1.88,1.95,1.05,2.55-1.4l.33,1.74c1.73-3.46.36.88,2.32-2.7-.67-2-2-.89-2.76-2.83-1.21.68-1.27,1.56-2.47,2.25-3.56-.07,2.62-5.89-1.09-4.76-1.48.85-3.68,2.94-3.62.84l2.17-1.65c-1.15-1.42-3.38,2.13-3.54-.48,1-.55,1.64.31,1.66-.11.54-2.39-1.67.53-2.36-.11l1.47-1.88c-1.66-1-4.39-1.22-6.25-2.35.57-.44,1.34-.74,1.47-1.61-2.78-1-4-4.12-4.95-6.92l-2.12.83c-.16-.17.31-1,.77-1.09-.21-1.26-.93.92-1.83,1.18-.52-.28.24-1.38.93-1.58-2.49.06-6.28-.71-6.16-3.6l.68-.2c-.5-1.61-4.07,2-3.76-.36l.43-.09c-1.72-2.82-5.57-3.83-5.24-7.75-2.35,1.86-1.41-3.1-4.37-.22.06-2.73.95-2.92,0-5.66-.37-.61-2.5,1.19-3.41.94l1.45-1.6-2.38.88,1.31-2.3-1-.14a1.93,1.93,0,0,1-.62,1.59c-1.57-.12-1.19-3.15-.46-4l-3.39-.65c.64-.59,1.2-.48,1.86-.62-2.64.55,1.34-1.86-1.08-1.35-.19.49-.95.87-1.27,1.17.36-1.44-.82-2.56-2.07-3l1.18-.93c-1.34-1.76-3.84-2.59-5.61-4.27.17,1.11-1.73,2.86-2.42,2.56l1.34-1.87c-1.3.72,0,1.14-1.9,1.76-.49-.81,1.31-2.32,2.2-2.51l-1.35-.17c.42-.54.85-.63,1.49-1.22-1.3.73.16-3-2-1.62l.42-.54c-1.77-1.67-3.11-1.84-4.65-3.1-1.36,1.41-1.63.56-3.15,1.33-.64-1.45-.77-3.69-2.17-4.76-1.57-.12-1.4,1-2.6,1.46,1.15-1.37-.25-2.44,1.29-2.77a11.44,11.44,0,0,0-5.16-2.31c-.28.73-.26,1.19-.8,1.52-.56-.11-.3-1.3.34-1.88l.22,0c-4-.06-1.51-8.53-5.8-7.41l.23,0-3.14-.25c-.62-1,1.42-.53,1.56-1.91-4,.38-2.79-3.18-5.76-3.21a4.72,4.72,0,0,0,.48-1.62,3.17,3.17,0,0,0,0-.63,5.3,5.3,0,0,0-.48-.82,13.37,13.37,0,0,0-3.05-2.82,29.64,29.64,0,0,1-3.32-2.58,9.5,9.5,0,0,1-2.45-3.84l-.1,1.61c-1,.7-.79-1.71-1.38-2.64-.05,1.27.67,2.15.08,2.52a22.56,22.56,0,0,1-3.38-2.61,51.73,51.73,0,0,1-8.57,6.17c-1.58,1-3.27,2-5,3.13l-1.31.86c-.33.18-.53.26-.79.4-.5.25-1,.51-1.46.79-1.6,1,3.6,5.45-.16,4.88l-1.08-2.15c-.9,4.61-5.76,5.21-6.88,9.46-.2-.54-.67-1.06-.4-1.3-1.72-.69-2.18,1.92-1.26,2.93-.53.28-.94-.82-1.68-1.08-1.25-.2,0,2.91-1.43,2-.24-.15-.21-.55-.19-.74.17.94-1.9,1.47-.22,2.56-1.65.27-1.37,2.45-3,2.36.94,2.08-2.47.86-.55,3.27-2.08-2.39-3.53-.21-3.16,1.48-.44-.9-1.24-.21-1.89-1.41a1.77,1.77,0,0,0,.25,2.84c-3.93-1.51-.66,4.78-4.73,1.93a36.57,36.57,0,0,1-3.75,8.38c-2.07-2.38,2-2.26-.37-4.61-1,2.69-.22,5.68-2.59,6.84-.78.13-.66-1.26-.87-1.8-1,2.69-3.81,3.14-4.3,5.94a1.43,1.43,0,0,1-.23-.95c-.26.38-1.08.36-.07,1.38l.06-.58c1.94,1,1.66,4.4,2.35,5.26-2.24-3.53-2.35.77-5-3.87a2.45,2.45,0,0,0,.86,1.81c-.51.09-1-.22-1.41-1.33-.64,1.67.81,2.4-.27,3.36-.47-.51-.44-.91-.89-1.61.39,1.49.77,3-.53,3.39-.23-.35-.71-.66-.43-.9-1.4,1.59-.18,5.09-2.76,5.7-1.56-2.68-1.26-.2-3.12-2l-.38,1.42,1.22.59c-.82.71-.23,2.76-1.5,2.76l-.14-1.34-1.16,1.76,1.52-.06c.11,1.73,2.34,2.34.78,2.79,0-.39-.82.72-2.28,0h0c.18,1,.36,2-.67,2.06-.72-.47-1.84-2.23-2.32-2.54,1.1,2-1.45,2.17-.36,4.34a5.81,5.81,0,0,0-1.38-1.73l.88,1.61c-.75-.07-1-.23-1.68-1.08-1.33.79,2.61,2.1.32,2.28,0-.2-.23-.35-.19-.75-1.84.68-1.8,3.2-3.61,3.69-2.15-1.6.63-1.46-1.29-2.71-1.44,2-1.5,5.69-3.62,6.81l.52-.08c2.29,2.94-2.52-.17-2.19,1.91,0-.4-1.12-1.77-.9-1.41-1.56.64-1.75,2.87-2.72,5.36l-.43-.9c-1.27,0-2.14,1.32-3.18,1.68.43.91-.1,1.18,1.1,2-3-.93-3.69.5-4.13,2.15s-.79,3.32-3.2,2.75c.22-.25,0-1.17-.19-1-.33.8-.67,1.6-1,2.38,1.13.94.81.42,2,.92a2.1,2.1,0,0,1-.05,2.22c.11-1.44-1.61-1.72-2.45-2,.35.27.57.74.9,1-2.56-1,1.79,2.23-.56,2.16l-.43-.59c-.19.72,0,1.79-.61,2.11-1.23-.91,0-1-.83-1.94-.58.78.59,3.4-1,2.93,0-.58.42-1,.43-1.58-1.83-.59-1.59-.17-2.24.15l.07,0-1.57.68h.57c.81,1.75.47,2.27,0,2.75a2.33,2.33,0,0,0-.91,2.21c-.22-2.53-.59-1-1.43-2.1-.54,0-1.22.2-1.36-.21.22,1.35-1.35.41-1,2.32-.29-.25-.55.6-1.09-.24-.42,1,.59.3.88.73-.06,1.05-.94,1.42-1.78,2a3.6,3.6,0,0,0-1.89,2.56c-.87,1.84-.53,2.72-1.55,4.18-.34.07-.39-.16-.36-.41a2.85,2.85,0,0,1,.13-.54A4,4,0,0,0,133,300c0-.25-.22-.23-.54-.17-.44.58.11.83-.71,1.34a3.69,3.69,0,0,1,0-1,20,20,0,0,1-1.32,2.35c-.31,0,.12-.64.2-1a15,15,0,0,0-1.55,2.54l.51-.39c-.24.27-.29,0-.15-.28.39-.82.89-.84,1-.77l-.39.51c.46,0,.92-.4,1.34-1a13.21,13.21,0,0,1,1.23-1.78c0,.31.1.62.14.92a14,14,0,0,0,.48-1.38c.34,0,.82.2.44.71,1-.28.38-.77,1.3-.91.12,0,.13.06.09.14l.47-.79c0,.27.6.43.08.66a2.64,2.64,0,0,0,1.47-1.28c.27-.45.45-.84,1-.7l-.05.14c.72-.84.59-1.05.37-1.27s-.55-.44-.35-1.44c.8.32,1.64.68,2.5,1.07l-.53-.9c.2-.12.59-.35.82,0,.14-1.09-.43-.25-.53-1.08a2.65,2.65,0,0,0,1.7-1,1.06,1.06,0,0,1,1.69-.11c-.35-.95-1.28.16-.86-1.09.85.67,1.06.39,1.21-.06s.24-1.09,1-1c.59,1.09-.59,1.2.92,1.36-.45-.93,0-1.17.62-1.25s1.44,0,1.63-.42c-1.17-1.32.92-1.69,1.58-3.06.37.53,2.79-.89,4.37-1.11l.22.29c-1.28-1.76,0-2.33.47-3.31.92,1.05,1.16,1.56,1.14,2.34l.74-.57a1.76,1.76,0,0,1-.09-1.73l1,1.45c1-.78.51-3.1,2.63-3.15-1.19-1.41-4.35-2.83-4-4.88.72.68,1.91,1.88,1.86,2.47,0-.19-.18-.95.32-.83l.63,1.66c1,.06-.66-1.27-.13-1.54,1,1,1,.45,1.71,1.33,0,.2-.77-.09-.56.46a3.31,3.31,0,0,1,2.72.43c-.59-.55-1.29-1.39-1.08-1.86.81-.94,1.45.94,2.45,1-.45-.93.79-.75-.61-2.28.27-.24,1,.42,1.46.74-.16-1.11,2-2.22,0-3.35h-.21s0-.08,0-.14h0c.14-2.93,4-2.1,4.9-4.16l.47.51c.37-1.42,1.71-2.21,1.34-3.91.27-.24,1.5.34,1.94,1.05.34-1-.11-1.67,1.67-1.76.12,1.53,1,.56-.11,1.31,1.3-.4,2.26.22,1.95-2.06.87,1.6,2.19,1,2.26.22l-1.49-.34a2.68,2.68,0,0,1,1.36-1.2l1.36,1.92c3.77.36.05-6.63,4.68-4.45-.62-1.65-1.78.09-2.64-1.71,1.06-.56,4.22,1.07,4.49.83,2-.14-1.23-3.51.59-4-.72-.46-2.38-1.95-2-3.37,1.06-.56,3.42,1.59,3.33,2.57-.15.24-.43.14-.61-.07a1.07,1.07,0,0,0,.76,1.42l-.46-.72c1,.24,2.11-.91,2.76.34.11-1.18-.65-1.25-1.42-1.13,1.91-.13,1.73-1.55,3.4-2-.49-.17-1.32-.73-1.13-.89,2.34-.78-.35-1.83.52-3.13,1.49.34,1.83,2.43,2.23.61,1.27,0,1.64,1.48,1.83,2.23-.07-2.13,2.63-1,3.41-1.33l-.08,1a1.43,1.43,0,0,1,.59-1.07l-1.43-.94c.51-.08.78-.32,1.25.19-.42-1.1-2.13-1.79-2.5-3.48,1,.22.67-1.86,2.32-.38-1.84.68,1.65,1.49.77,2.79,0-.39.31-.63.82-.71a.63.63,0,0,1,.27.55c2.61.27-1.11-2.37.24-3.55.67,1.06,1.9,1.44,1.94,1.05-.55.47-1.67-1.29-1.83-2.43,1.5-.08.43-1.38,1-1.71l-.81.13c-.68-1.06-.15-1.34.18-2.17.7.66-.09,1,.41,1.1-.83-2.2,3,.29,2.93-1.63,1,.22,1.63,1.67,2.38,1.75-.07-2.13,2.27.22,2.43-1.75-1.44-.94-1.22-.59-1.57-2.48l-1,2.49-.52-2.83c-.55.48-.41,1.82-.92,1.9-.39-1.5-.16-1.14-1.36-1.92,2.43,1.16.45-2.41,2.44-1.95l2.79,3.06c2.52.17.8-3.64,3.15-4.4l-1,0c-.9-1.41.86-1.11.93-2.09a5.51,5.51,0,0,0,2.38,1.54c-.72-.73,1.27-1.05-.46-3.21l2,.65c1.84-.68-1.16-4.29.43-5.13.64,1.46,1.89,1.64,1.76,3.22.44-.38,1-.55.35-1.26.83.4-.09-2.46,1.2-1.86-.24-.62-1.16-1.73-.61-2.09a2,2,0,0,1,.47.5c-.47-.5.11-1.37-1.35-2.11,4.25,1.95,3.46-3.63,7.12-2a17.05,17.05,0,0,1,2.2-3.42c.23.35.47.5.21.55,2-.14-2-3.58.32-3.75,2.2,1,.12,1.54,1.12,1.77,3.27,3.16,1.17-1.94,3.87-.82l0,.39c1.74.51.5-2.8,1.83-3.59a2.22,2.22,0,0,0,.46.51c-.82-2.41.1-4.31.74-5.77.87,1.61.15,1.14,1.58,2.27.31-.63-2.11-2-1.5-3.25,1,.42,2.24.4,3.65,1.73L241,208c2.16,1.4,1.11-1.15,1.88-1.27l.68.85c1.14-1.54-.71-3.57.91-4.81l-.71-.46c-.53-1.37-.07-1.28.38-1.05s.9.57.58-.52c.63.68,1.23,1.38,1.81,2.1a11,11,0,0,1-.11-2.15,7.64,7.64,0,0,1,.55-2.62c.23,2.59.05,4.18.42,5.5.24-.19.64-.88.34-2.45,0,.39.1,1.19-.18.87-.59-2.42-.15-4.29.73-5,.64,4.19,1.18,3,1.75,3a6.17,6.17,0,0,1,.44,3.28c.43-.94.87-.25,1,.47s.13,1.55.51,1.69c1.2-1.74,1.24-1.74,1.39-1.66s.15.08.39-.09a6.3,6.3,0,0,0,1.4-1.3c.7.27.84.5.7.75l-.2,3.3c-.48,1.25-1.12.24-1.73,1,.89,1.27-.76,1.76-.8,3.28.89-1.26,1.88-1.25,2.12-.23l.44-2.28c3.11-.22-1.09,3.89,2,3.69l-1.41.53c1.34.16,2.95,2.77,6.08,1-.2.5-.8,1.53-1.37,1.43,1.58,2.16,6.77,1.29,6.83,4.23l-.86.63c.57.11,2-.86,1.7.33-.32.29-.86.63-.73.83.43-.09,2.2-.46,2.26.43l-1.21.48c.95,2.75,4.83.57,6.9,1.51a4.68,4.68,0,0,0-.91,5.41l-.32.29c1.93,2.31,5.45,1.57,8.3,2.56-1,3.62,3.3,5,4.05,8.23.07-.7,1.68-1.72,2.25-1.61.05.9,2.76-.35.77,1.65l-.14-.2c-1.53,2.37-.05,2.73.66,3.49l2.64-2.59c-1.67,5.78,6.55,3.38,4.37,7.92,1.1-.23,1.69.33,2.8.09L299,249.94a8.37,8.37,0,0,0,3.45,3.58l-1.3.73c.84,1,5.06-3.1,6-2.39l-1.75,2.4c1.65,1.47,1.52,4.89,4.94,4.41-.32.29-.95.87-1.29.72.71.76,1.58,4.2,4.07,1-1.78,1.95,1.49,1.73,3.16,1.69l-1.47,1.3c2.44-1.14,2.92-1.62,4.42-1.17.07.41-.85,1.34-.83.68.12,1.5,1.89-.77,2.17.91l-1.22.57c.74.89,1.13.34,2.58-.3,1.05-.09,1.25,1.83.17,3.24.85-.69,2.28-1.31,2.43-.48a1.86,1.86,0,0,1-1.08.75c.5,2.27,3.63.26,3.29,2.56a2.66,2.66,0,0,0-.63,1c-1.08-1.06-1.9-2-1.72-2-1.23,1.32-.54,2.39-2.95,3.55,1.65-.33,4.88-1.35,5.18.08a2.76,2.76,0,0,1-.31.57l-.22.06c.08.32.37.37.75.3a1.89,1.89,0,0,0,.35,1.07c-.9,1.19.49,1.54.89,2,1.3-1.47,1.67-.7,2.23-2.4,0,.17-.25.09-.6-.12a.61.61,0,0,0-.33,0l.15-.1c-.34-.23-.75-.55-1.21-.93,1-.41,2-.68,1.73.58,1.09-.72,2.23-1.43,2.78-1.75-1.25,2.58-1.08,4.76-2.06,6.16,1.05.23,2,.83,3.07,1.16a4.62,4.62,0,0,0,4-.58c.71,0-.3,1.22-.56,1.8-.48.06-.69-.24-1.18,0,1.38.07,2.53,1.89,4.53.11.22,1.72-2.24,1.31-.51,2.14l-.74.43c.07,2.58,2.45,2.17,4.58,2.11s4.06.15,4.19,3a1,1,0,0,1,.12-.83c1.17,2.1,3.38,3.17,5.39,4.45a14.15,14.15,0,0,1,5.08,4.72c.81,1,1.47.51,2.45.59l-.41.85q.91,0,1.77.06c1,.35,1.25,1.25,1.72,2.05a3.65,3.65,0,0,0,2.38,1.88v-.47c.65.58,2.27,1.57,1.93,1.72a.62.62,0,0,1,.59.28l-.12.16c.65.34,1.28.7,1.88,1.09.61.55.49.59.44.69s0,.24,1,.88c.4.22,1,.54,1.38.8a4.46,4.46,0,0,1,.54.37,4.45,4.45,0,0,1-.71-.62l.61.53a.85.85,0,0,1,.15.13,9.41,9.41,0,0,1-.81-1.21,13.66,13.66,0,0,0-.91-1.08c-.06-.15-.12-.31-.17-.47l.68,1a3.5,3.5,0,0,0-1-1.26,1.87,1.87,0,0,0-.21-.64,9,9,0,0,0-1.1-.82c0-.29.62.23.17-.63-.54-.36.06.84-.71.11-.24-.72.06-.76-.6-1.2.06-.22.24-.17.47,0-.56-.43-1.14-1.48-1.67-1.45-.08-.93-1.55-1.77-.85-2.43a3.83,3.83,0,0,1-1.72-.89c1.63,0-1.41-2-.12-2.94-.7.13-1.28-.39-1.86-1a5.2,5.2,0,0,0-1.94-1.69c.15,0,.44-.1.46.07a4.66,4.66,0,0,1-.29-2.14c-1.1,1-2.17.21-3.35.42.43-2,1.74-.93,2.57-2.31-.87,1-2-.52-2.61.64.2-1.41-.1-.92.67-2.36-1.64,1.56-.71-.34-2.11.18.08-1.8,1.36-1.9.08-2.41a.89.89,0,0,1,.78-.79A1.68,1.68,0,0,1,358.85,282.39Zm-24.27-18.73,0,0,.54.35C335,263.91,334.87,263.81,334.58,263.66Zm-1.9-1.72a4.67,4.67,0,0,0,.76.81c-.39.56-.94,1-1.1.8C332.75,263.32,332.57,262.62,332.68,261.94Zm-5.29,13.68c-.49-.07-.33-.44-.09-.78a2.58,2.58,0,0,0,.68.31l.2-.14A5.66,5.66,0,0,1,327.39,275.62Z"/><path class="cls-1" d="M329.68,274.23c.07,0,.15,0,.22,0a4.89,4.89,0,0,0,.12-.49l-.52.35Z"/><path class="cls-1" d="M165.11,275.08h.07a.93.93,0,0,1-.27-.13Z"/><polygon class="cls-1" points="309.27 235.08 308.93 235.45 309.39 235.28 309.27 235.08"/><path class="cls-1" d="M150.46,280.06a.83.83,0,0,0-.43-.18A1.35,1.35,0,0,0,150.46,280.06Z"/><path class="cls-1" d="M146.1,284.34l-.93.27A3.29,3.29,0,0,0,146.1,284.34Z"/><path class="cls-1" d="M142.53,287.39a2.94,2.94,0,0,0,.31.47h0Z"/><path class="cls-1" d="M194.42,233.61a.32.32,0,0,0,.07-.19C194.54,232.85,194.43,233.16,194.42,233.61Z"/><path class="cls-1" d="M181.26,252.08a5,5,0,0,1-.1-1.17C180.76,251.07,180.51,251.25,181.26,252.08Z"/><path class="cls-1" d="M211,215l0,0,.11-.11Z"/><path class="cls-1" d="M181.94,250.23a.65.65,0,0,0-.78.68C181.48,250.79,181.9,250.68,181.94,250.23Z"/><path class="cls-1" d="M129.27,303l-.14.17s0,0,0,.06Z"/><path class="cls-1" d="M129.14,303.24l-.13.22A.53.53,0,0,0,129.14,303.24Z"/><path class="cls-1" d="M128.72,303.93l.29-.47A1.2,1.2,0,0,0,128.72,303.93Z"/><path class="cls-1" d="M133.36,298.28l-.11-.22A.41.41,0,0,0,133.36,298.28Z"/><path class="cls-1" d="M134.53,296.77c-.34.3-1.07.5-1.36,1.11l.08.18C133.19,297.56,134.53,297.4,134.53,296.77Z"/><path class="cls-1" d="M142.92,294.22l-1.45.77c.48.11,1.15.29.63.79C144.52,295.46,141.17,295.38,142.92,294.22Z"/><path class="cls-1" d="M147.27,291.7c-.53.68.5.52.66.76C148.06,291.81,148.08,291.64,147.27,291.7Z"/><path class="cls-1" d="M174.3,268.71l1.15,1.37C175.76,269.45,175,269.57,174.3,268.71Z"/><polygon class="cls-1" points="172.97 257.31 171.75 256.93 172.64 258.34 172.97 257.31"/><polygon class="cls-1" points="184.58 263.94 184.54 264.33 184.9 263.11 184.58 263.94"/><path class="cls-1" d="M227.8,223l-1.64-1.48C226.1,222.1,227.72,224,227.8,223Z"/><path class="cls-1" d="M245.12,203.87a2,2,0,0,0,1.29.41.49.49,0,0,0,.21-.08s0,0,0-.1a1.38,1.38,0,0,0-.2-.49C246.26,203.6,245.11,203.49,245.12,203.87Z"/><polygon class="cls-1" points="292.24 243.41 291.36 243.6 292.49 243.82 292.24 243.41"/><text class="cls-2" transform="translate(195.18 367.91)">TOP</text></svg>
