<svg id="Layer_1" data-name="Layer 1" xmlns="http://www.w3.org/2000/svg" viewBox="0 0 248 116"><defs><style>.cls-1,.cls-2{fill:#fff;}.cls-2{font-size:72px;font-family:AmaticSC-Bold, Amatic SC;font-weight:700;}</style></defs><title>menu_knap3</title><path class="cls-1" d="M227.19,107c-.34,0-.15.1.76,0a4.61,4.61,0,0,0,.64-.16C228.13,106.94,227.65,106.94,227.19,107Z"/><path class="cls-1" d="M233.11,105.58c.93-.57,1.8-1.47,1.2-1.12a5.27,5.27,0,0,1-.93.76c-.28.19-.56.41-1,.7a3.24,3.24,0,0,1-1.36.48,4.83,4.83,0,0,1-.86.26c-.36.11-.75.19-1,.25a9.08,9.08,0,0,0,4-1.43C233.43,105.32,233.17,105.52,233.11,105.58Z"/><path class="cls-1" d="M239.61,17.28l.08.63A3.19,3.19,0,0,0,239.61,17.28Z"/><path class="cls-1" d="M186.74,6.91c.43,0,.61-.11.63-.2C187,6.77,186.65,6.83,186.74,6.91Z"/><path class="cls-1" d="M177.19,5.77l.56.07A.69.69,0,0,0,177.19,5.77Z"/><path class="cls-1" d="M239.61,17.28a15.22,15.22,0,0,0-.31-1.61C239.05,15.65,239.46,16.51,239.61,17.28Z"/><path class="cls-1" d="M238.8,95.34c0,.31,0,.56,0,.79v-.74S238.81,95.37,238.8,95.34Z"/><path class="cls-1" d="M240.22,42.16v.46a2.53,2.53,0,0,0,.18.37Z"/><path class="cls-1" d="M240,61.09c0-.43-.26-.58-.38-.74a2.65,2.65,0,0,1,.18.93C239.81,61.29,239.88,61.23,240,61.09Z"/><path class="cls-1" d="M239.33,91.11v.53C239.34,91.5,239.33,91.27,239.33,91.11Z"/><path class="cls-1" d="M240.57,28.61a.42.42,0,0,0,.18-.17C240.69,28.44,240.63,28.51,240.57,28.61Z"/><path class="cls-1" d="M205.24,106.86s0,0,0,0S205.39,106.86,205.24,106.86Z"/><path class="cls-1" d="M227.19,107.21h-.31s-.06,0-.06.05Z"/><path class="cls-1" d="M159.71,4.57h.07C160.24,4.49,160,4.5,159.71,4.57Z"/><path class="cls-1" d="M6.15,23.59c.56-1.82.75,3,1.38.22C7.28,24.07,6.51,21.33,6.15,23.59Z"/><path class="cls-1" d="M238.82,94.86c0-.26,0-.52,0-.78C238.82,94.44,238.82,94.67,238.82,94.86Z"/><path class="cls-1" d="M7.53,23.81h0l.06-.28Z"/><path class="cls-1" d="M119.42,5.12a1.37,1.37,0,0,0,.41.38C119.82,5.41,119.73,5.3,119.42,5.12Z"/><path class="cls-1" d="M149.43,6.31l-.74-.12A3.4,3.4,0,0,0,149.43,6.31Z"/><path class="cls-1" d="M103.84,6.41a2.13,2.13,0,0,0-1.09-.06.69.69,0,0,0,.17.1A1.09,1.09,0,0,1,103.84,6.41Z"/><path class="cls-1" d="M87.62,6.51c.09.06.2.1.3.16l.51,0Z"/><path class="cls-1" d="M156,106.55a7.49,7.49,0,0,1,.75.14C156.45,106.59,158.83,106.58,156,106.55Z"/><path class="cls-1" d="M238.87,95.34a2.76,2.76,0,0,1-.05-.48c0,.19,0,.37,0,.53S238.86,95.45,238.87,95.34Z"/><path class="cls-1" d="M103.18,13l-2.58-.15A24.28,24.28,0,0,0,103.18,13Z"/><path class="cls-1" d="M39.6,105.26l.59-.05A1.53,1.53,0,0,0,39.6,105.26Z"/><path class="cls-1" d="M93,12.93a4.74,4.74,0,0,0-1.45-.58,1.14,1.14,0,0,0-.3.21Z"/><path class="cls-1" d="M156.71,106.7h0Z"/><path class="cls-1" d="M173.68,106.59c-2.46,0-1.15.13-1.67.2-2.93,0-1.36-.11-2.36-.2-1.83,0-3.23.14-4.6.13-.1,0-.36,0-.05-.08-1.94.12-5.74-.06-8,.11l-.29,0c.36.1.42.19.34.26a14.42,14.42,0,0,1-2.45,0,4.22,4.22,0,0,0,1-.09l-1.15,0c-1-.19,1.57,0,1.57-.19-2.24,0-4.87.19-6.59.12-.36-.21,4,0,1.73-.23l2.67.1c-2-.33,1.62,0-.25-.3-3.51-.12-3.93,0-7.43-.08-.79.12.26.19-.53.3-5,.19-3.91-.64-7.57-.38a10.08,10.08,0,0,1-3.92.28l.89-.29c-3.4-.09-1.94.42-5.5.17.63-.13,2.67-.08,2.16-.12-2.31-.29-1.63.16-3.41.14l-.36-.3c-3.62,0-7.6.17-11.61.19.22-.1.91-.2,0-.32-5,.11-10.79-.18-15.66-.51l-1.86.34c-.43,0-.8-.18-.34-.24-1.89-.16-.09.23-1,.36-1.08,0-1.42-.23-.74-.33-3.35.26-9.55.61-13.08.15l.69-.11c-2.75-.2-3.1.81-5.65.41l.49-.07c-6-.24-12.57.14-17.12-.57-.87.65-5.91-.34-6.29.59-3.41-.48-2.43-.65-7.23-1-1.28-.06-1.91.58-3.5.68l0-.51-2.15.52-1.14-.62-1.49.12c.59,0,1.26.24,1.17.39-2.32.22-5.66-.4-5.72-.68l-5.49.41c.12-.21,1-.28,1.77-.41-2.93.52-.54-.57-3.22-.09.36.12-.2.32-.26.43A29.08,29.08,0,0,0,21.8,105l.43-.38-1.52,0a10.22,10.22,0,0,1-1.23-.11,9.74,9.74,0,0,1-2.46-.66,10.15,10.15,0,0,1-2.28-1.35,9.68,9.68,0,0,1-1.83-2c.62,1.15-.06,1.4-.81.47.09-.25.18-.49.28-.72-.7-.44.42,1.15-.76.08-.61-1.39.21-1.17.71-.56L11.87,99c-.14-.24-.25-.5-.39-.75.14-.15.37.18.62.19-.3-.24-.38-1-.37-1.71,0-.37,0-.73,0-1.07a1.78,1.78,0,0,0-.08-.47,1.72,1.72,0,0,0-.18-.51l.19-.12c.05-4.57-.15-6.65-.16-10.37-.55-.07-.42-1.53-.86-2.64.19-2.73.65-5.77.63-9.07-.28-2.31-.49-.67-.82-1.72.52-.17.49-3.46.86-1.75-.06-4-.07-5.06-.48-10.06-.23.54-.33,1.15-.51.84-.08-.91.24-2.07.5-1.94l0,.24c-.81-5.62,1.7-13,.56-17.44l.06.25-.6-4.64c.11-2.13.43,1.28.79-.29-.93-5,.19-7.91-.44-12A8.12,8.12,0,0,0,12,20.8a15.16,15.16,0,0,1,.58-3c.61-2.07,2.3-4,4-4.26l-.37-.27a.74.74,0,0,1,.76-.44,4.09,4.09,0,0,0,.8,0c-.2-.31-1,0-.59-.43a8.24,8.24,0,0,1,2.59-.81,5.34,5.34,0,0,1,.69-.05l.35,0h.43l1.81,0c2.42.05,4.86.18,7.3.33,4.9.31,9.82.75,14.65,1,3.54.17,2-2.33,6.47-1.2l-1.27.84c7.13-1,14.59.2,21.57-.64-.42.2-.43.47-1.11.46,1.47.68,5.45.1,5.48-.45,1.09.07.25.49.92.78,1.48.41,3.71-.82,4.5-.14.13.11-.42.21-.69.26,1-.31,4.5.14,3.57-.66,2.62.4,5-.31,7.11.18,1.36-.89,4.48.48,4.92-.8-.19,1.33,4.59,1.12,6.25.49-.56.41,1.44.44.79,1,1.89,0,3.62-.24,3.29-.94,3.49,1.67,7-1.29,9,.84,5.61-.71,10.81-1.2,15.87-1.52-.19,1.4-5.59.12-5.37,1.59,4.79-.55,7.56-1.76,12.31-1.42,1.23.2-.7.62-1.11.86,4.78-.58,9.26.13,13.52-.65,0,.13-.47.28-.91.39.84,0,2,.2,1.86-.44l-.82.17c-1.34-.92,3.34-1.94,3.49-2.43-1.43,1.83,4.21.46,1.94,2.77.55-.12,1.25-.43,1.12-.85.82.12,1.08.37.25.85,3-.35,1.94-1,4.66-1,0,.31-.56.43-.84.79a8.91,8.91,0,0,1,5.07-.95c-.14.18.13.42-.56.42,4-.11,6.75-1.6,11.09-1-1.28,1.3,1.47.42,1.7,1.54l2.34-.35-.94-.53c2,0,3.85-.82,5.61-.46l-1.52.46,3.83-.23-2.17-.4c2.07-.58-.22-1.4,2.5-1.1-.55.11,2,0,3.11.65h0a6.53,6.53,0,0,1,3.57-.45c.39.34-.32,1.19-.06,1.41,1-.89,4.78-.29,6.05-1.22-.43.22-.45.77-.31.88l.84-.72c.95.22,1.08.33.93.77,2.85.1-.9-1.31,2.48-.77-.27.06-.14.16-.7.27,3.4.26,6.56-.47,9.68-.17.92,1-2.72.27-1.67,1.09,4.5-.26,9.32-1.26,13.67-1.08l-.81-.09c.29-.63,1.14-.5,2.09-.24a11.37,11.37,0,0,0,3,.72c-.5,0-.78.5-.63.4a18.15,18.15,0,0,1,3.75,1.64,10.32,10.32,0,0,1,3.72,3.75l-.48-.33a25.3,25.3,0,0,1,.84,2.74,12.51,12.51,0,0,1,.19,3c.27.56.24,1.65.61,1a25.74,25.74,0,0,0-.2,8.42,30.08,30.08,0,0,1,0,7.93c0-.62-.21-1.48-.2-1l.26,4.42c.32-.35.19-.58.44-1.51a10.72,10.72,0,0,1,.35,2.9c-.22-2-.52,0-.68.88.1-.14.21.15.3.08-.52,2.31.63.39.27,3.54l-.15-.17a33.37,33.37,0,0,1,.24,3.54c-.32.53-.15-1.25-.42-1.33,0,1.78.61,3.52.31,5.14-.09-.76-.09-1.85-.18-2.61a13.32,13.32,0,0,0-.29,3.28v-.13l-.11,3,.08-.77c.73,2.24.18,4.56.62,7.57-.4-2.93-.23-.48-.5-.71-.07.77-.13,1.94-.21,1.61.23,1.43-.12,2.38.2,4.39-.07.09,0,1.52-.18,1.2.09,1.85.12-.44.22-.28.27,2.85-.19,6.71.15,10.82.15,3.54.33,4.19.41,7.48-.08,1.11-.18-.91-.18-.91-.07,1.79,0,3.13,0,4.82,0-.34-.07,0-.12.52,0,.68,0,.89,0,1.17a5,5,0,0,1-.16,1.48c0-.31,0-.71,0-1.34a11.55,11.55,0,0,1-1.15,4.55c-.26.35.38-.91.48-1.48a11.5,11.5,0,0,1-1.37,2.77c-.57.85-1.16,1.49-1.33,1.72.3-.26.55-.56.83-.84-.45.5-.29.2,0-.17.44-.65.77-1.1,1-1.42a5,5,0,0,1,.39-.5c-.18.34-.39.68-.58,1A7.55,7.55,0,0,0,238.49,99a14.31,14.31,0,0,0,.55-3.89l.13,1c0-.81,0-1.61-.11-2.42.05-.52.16-.87.19.3.1-1.7-.07-1.51,0-3,0-.16,0-.09,0,.06l-.06-1.66c0,.32.15-.28.12.74.14-3-.15-4.8,0-5.92v.25c-.06-4.12-.17-.4-.39-3.49l.49-2.09-.2-.4c0-.43,0-1.27.11-1.11-.14-1.59-.09.27-.23-.65.21-2-.1-5.65.29-6.12-.18-.73-.15,2-.27-.22.43-.63-.07-2.53.14-4.41.23.58.09,2.35.32.48-.4-1.13.12-3.65.07-5.23-.36-.07-.12-3.43-.23-6.08.13.17.27-5,.48-7.45l.08.07c-.46-.48-.36-3-.44-4.87.3.07.42.4.54,1.41l0-1.74a6.8,6.8,0,0,1-.29-2.09l.39.44c0-2.32-.42-4.67-.08-7.65-.43-.16-1.16,2.37-1.45-.78.23-.12.62-.23.71.59a5.15,5.15,0,0,1-.08-1.5l.37,1.25c.19-1.35-.31-.71-.27-1.79.33,0,.24-.8.51-.65a6.63,6.63,0,0,0,0,1.36,10.88,10.88,0,0,1,.57-3.19c-.2.11-.46,0-.5-.89,0-2.32.44-.8.65-2.15-.24-.56.05-2-.51-2.08a1.55,1.55,0,0,1,.43-1.06,12.41,12.41,0,0,1-.1-1.36,17.24,17.24,0,0,0-.16-1.88c-.19-1.19-.56-2-.68-1.17,0,.11,0,.21,0,.33,0-.06,0-.13-.06-.2h0a21.33,21.33,0,0,0-2.89-5.66,10.29,10.29,0,0,0-5.11-3.82l.09-.21a14.1,14.1,0,0,0-3.95-.6,11.63,11.63,0,0,0-3.22.37c-.69,0-1.62-.45-1.33-.74a11.39,11.39,0,0,1-4.55,0c1.79-.41-.62-.39,1.84-.29-2.32-.24-2.84-.66-5.32,0,.84-.63-1.74-.85-2.84-.66L214,7A25.59,25.59,0,0,1,210.59,7l.6-.87c-4.73-1.2-8.54,1.78-12.14-.14-1.25.64,2.57.48,1.45,1.23-2.17-.13-4.44-1.52-5.12-1.53-3-.57-2.78,1.37-5.9,1,.39.35.77,1.27-1.56,1.59-2.18-.13-2.68-1.48-1.3-1.75.52,0,.77.09.75.21.7-.12,1.63-.27.76-.65l-.28.35c-1.08-.37-4.08-.36-3.37-.93-1.65.32-.71.58.51.77-2.79-.53-4.36,0-7.24-.41.46.2.88.62.43.61-4.22-.46-1.86.67-4.72.82-1.62-.55.58-1.31-2.29-.86-1.76-.38-.37-1,.32-1.25-2.62.68-4.89-.49-6.39-.63l1.38-.29a10.09,10.09,0,0,1-2.19.16l.79.73c-.81-.13-1.5-.13-1.48-.44-.84.48.64,1.22-1,1.87-1.08-.37-3.29.4-3.67-.58,3.4.34-.37-1,2.51-1.13a5.69,5.69,0,0,1-2,0c-.12-.11.12-.2.34-.25-3.25-.89-1.5,1.1-4.87,1.07.43-.56-.78-1.06-1.33-.94,1.36,0,.65.92-.6,1.35-2.16-.44-2.34.31-3.48.26l1.3.21c-.44.55-1.52.48-3,.65-.13-.43,1.37-.3.83-.49-1.67,1-3.78-1-6.11-.35-1.08-.38-.11-1-1-1.3-2.62.72-2.84-.76-5.58-.16.79.74.93.56-1,1.29l4.52-.53-2.9,1.09c1.36,0,2.88-.47,3.69-.35-1.38.61-1.24.43-.58,1-1.87-1.12-3.7.65-5.86-.1l.07-1.85c-3.24-.81-5.76,1-10,.51l1.35.31c-.56.73-2.6.11-4,.41.13-.61-.72-.83-1.31-1.2.07.44-3.08,0-3.46,1.18l-1.88-.79c-3.4-.3-3.88,1.73-7.15,1.53,1-.65-.5-1.06,1.69-1.54-1.09,0-2.07-.1-2.09.31-.63-.37-3,.81-4,.26-.46.26-.61.88-1.84.83-.13-.12,0-.29,0-.29,0,.29-1.92.4-.85,1-3.36-1.81-9.39.15-12.32-1.37-2.38.2-5.25.4-7.41.45.14-.17,0-.28.42-.22-3-.5-1.84,1.6-5.23,1-1.73-.88,1.8-.49.72-.82-.47-1.8-4.09.27-6.38-.76l.56-.11c-1.75-.58-4.26.7-7.11.59,0,0,.14-.15,0-.26-1.95.9-5.65,1.2-8.39,1.45.85-.67,1.25-.36.73-1-1.23.11.36,1.09-2.1,1.28C53,7.9,51.18,7.59,51,6.88l2.31,0c-1.18-.92-3,0-4.21-.1l.15-.41c-3.54.16-3.59,1.16-7.41,1.1l.4.3c-2.09,1-1.75-.55-3.83.18l-.63-1c-1.37.25-4.81,1-7.28,1.15,1.4-.72,4.28-1.1,6.07-1.54-1.36,0-4.63.1-5.34.58A4.36,4.36,0,0,1,33,6.92a15.77,15.77,0,0,1-6.59,1.13c.24-.93-1.53-1-3.6-1.1l-1.59,0c-.5,0-1.19,0-1.74,0l-1.59,0a4.57,4.57,0,0,1-1.23-.11A25.89,25.89,0,0,0,12.81,8.9a18.69,18.69,0,0,0-3.28,2.9,13.35,13.35,0,0,0-3.42,8.75c.74-1.17.73-.65.71.05s0,1.45.73,1.29a4.85,4.85,0,0,1,0,1.92l-.82,4c-.4.94-.31-1.24-.62-1.12-.09,2.85-.59,1.2-.94,3.09.49-.39.72,1,.54,2.62l.62-2.3c.75,4-1.13,3.45-.38,7.47l-.44-1.27c.26,2.07,0,7.61,1.13,9.64-.15.36-.51.84-.61-.07-.12,4.94,1.19,11,.56,14.81l-.31-.37c.09.92.6,1.6.29,2.75-.13-.06-.32-.37-.33.06a12.23,12.23,0,0,1,.38,3.66l-.35-1c-.37,4.81.89,7.38,1.11,11.42-.89,0-1.16,3.77-1.28,5.66L6,82.7a61.6,61.6,0,0,0,.42,7.51c.13,1.16.26,2.31.39,3.5.07.6.14,1.22.21,1.85l.14,1.07.23,1.08c-.16,1.88,1,5.14,3.5,7.63a14.54,14.54,0,0,0,4.43,3,16.86,16.86,0,0,0,4.9,1.28c-.47-.1-.42-.25-.12-.38a4.92,4.92,0,0,1,1.28-.3c1.21.15,3.35-.56,3.16.16h-.43c.91.7,3.41.48,5.36.49l.32-.93c5.1,1.29,13.35-.55,16.14.58,1.22-.23,2.75-.23,4-.46l-.07.46c3.41.09,5.11.13,9.32,0l-.86.32c2.38,0,3-1.29,5.2-1.32l.66.64c4.14,0,8.34.47,12.43-.12-.07.09-.19.26-.86.29,2,0,7.55.32,6.84-.48,0,.53,4.28,0,6.51-.23l-.34.38a15.6,15.6,0,0,1,4.58-.77c.63,0,.55.29-.28.2,2.09.17,1.63-.35,4.15-.17l-.94.23a8.7,8.7,0,0,0,3.15-.37,12.17,12.17,0,0,1,4.39.35,6.18,6.18,0,0,1,2.72-.36c.17.11-.29.18-.52.22,3.59.17,5.33-.4,7.8-.12,0,.09.21.14.41.17-2.84,0-5.14,0-4.92,0,0,.29,2.3.3.47.72a46,46,0,0,1,7.24-.63,1.18,1.18,0,0,1,.3.09l-.23,0a9.18,9.18,0,0,0,1.42-.06c.71,0,1.17.05,1.85.05a20.79,20.79,0,0,0,3.79.06c-.1-.26,1.4-.24,0-.43a4.13,4.13,0,0,1-1,0c-.17,0-.38,0-.49,0l.08,0-2.85,0a10.6,10.6,0,0,1,3.12-.14c.59-.17,1.23-.35,1.6-.43,1.57.36,4.59.5,5,.7,3.5-.18,8.25-.2,10.45-.6a4.13,4.13,0,0,1,1.51.15c-.57,0-1.25.05-1.56.1,2-.11,5.89-.1,6.37-.34,2.51.09-1.41.23,2,.16l-.47.08c3.39.15,6.15,0,9-.17s5.79-.22,9.55-.07a6.24,6.24,0,0,1-.89-.06c8.58.08,17.67-.17,26.13,0,2.41,0,2.67,0,4.13-.09l.52.07,2.51-.09c3.56-.06,6.17.18,10.67.07l-.58-.06c1.62,0,5.12,0,4.85,0a8.07,8.07,0,0,1,1.17,0l0,0,4-.06c3.08,0-.48.16,4,.19a39.76,39.76,0,0,0,4.13-.16,12.6,12.6,0,0,1-1.78-.08l1.53,0c.28-.14,1.45-.29-2.3-.37l-2.61.1-.84-.06,2.2,0c-1.25,0-2,0-2.93,0a10.5,10.5,0,0,0-1.1-.06l-2.56.13c-.31,0,1.15-.1-.57-.12-1.21.05,1.15.1-.84.14a17.69,17.69,0,0,0-2.36,0c-.2,0,.11,0,.69-.06-1.31,0-3.46,0-4.13.08-1.31-.06-4.41,0-4.29-.09-.41,0-2.3.08-3.5.09,2.2-.13-4.49,0-3.91-.16-1.62.12-5.86,0-8.74.1.16,0,.48,0,.73,0-1.62,0-2.09-.06-3.13-.09-.2.11-2.72.13-4.08.2-2-.13,1.2-.14.58-.25.1.09-3.45.07-2.77.16a14.17,14.17,0,0,1-2.09-.16,19.88,19.88,0,0,1-2.67.11,21.2,21.2,0,0,0-3-.14C171.54,106.63,173.68,106.59,173.68,106.59Zm-57.35-.17h0Zm-4.82,0,2.09,0c.17.1,0,.21-.5.2C113.37,106.54,112.23,106.47,111.51,106.38Zm10.2,2a2.53,2.53,0,0,1-1.13,0l1.34,0,.09,0A.77.77,0,0,1,121.71,108.33Z"/><path class="cls-1" d="M123.08,108l.31,0-.45-.06-.27.09Z"/><path class="cls-1" d="M239.7,18v-.11a.86.86,0,0,1,0,.24C239.67,18.07,239.69,18.07,239.7,18Z"/><polygon class="cls-1" points="44.97 105.07 44.97 105.19 45.39 105.09 44.97 105.07"/><path class="cls-1" d="M238.44,44.72a1.07,1.07,0,0,0-.09.35A1,1,0,0,0,238.44,44.72Z"/><path class="cls-1" d="M238.52,56.19l-.08,1.62C238.49,57.11,238.51,56.6,238.52,56.19Z"/><path class="cls-1" d="M238.51,65a.32.32,0,0,0,.11.17h0Z"/><path class="cls-1" d="M150,12.19a1.27,1.27,0,0,0-.34,0C148.9,12.4,149.45,12.33,150,12.19Z"/><path class="cls-1" d="M191.75,10a10.28,10.28,0,0,1-1.34.39C191.15,10.49,191.73,10.51,191.75,10Z"/><path class="cls-1" d="M103.46,13.05s0,0,0,0h0Z"/><path class="cls-1" d="M188.47,10.43a4.51,4.51,0,0,0,1.94,0A7,7,0,0,0,188.47,10.43Z"/><path class="cls-1" d="M236.33,102.42a2.73,2.73,0,0,1-.27.31s0,0,0,0A3.26,3.26,0,0,0,236.33,102.42Z"/><path class="cls-1" d="M236,102.78l-.3.35A2.56,2.56,0,0,0,236,102.78Z"/><path class="cls-1" d="M235.08,103.84a6.31,6.31,0,0,0,.66-.71C235.53,103.39,235.22,103.67,235.08,103.84Z"/><path class="cls-1" d="M238.82,91.54l0-.13C238.78,91.48,238.8,91.53,238.82,91.54Z"/><path class="cls-1" d="M238.78,88c0,.85-.09,2.13-.05,3.31l0,.11C238.69,90.85,238.87,88.8,238.78,88Z"/><path class="cls-1" d="M239.55,73.19l-.08,3c.08-.52.19-1.2.19.15C239.94,72.57,239.48,77.09,239.55,73.19Z"/><path class="cls-1" d="M239.78,64c0,1.59.15,0,.2.06C239.91,63,239.89,62.78,239.78,64Z"/><path class="cls-1" d="M222.59,7.24l.16-.62C221.52,6.69,222.74,6.86,222.59,7.24Z"/><polygon class="cls-1" points="209.86 10.63 211.06 11.04 211.63 10.41 209.86 10.63"/><polygon class="cls-1" points="202.34 5.64 202.88 5.55 200.83 5.78 202.34 5.64"/><path class="cls-1" d="M90.51,5.77l.37.91C91.71,6.51,91.88,5.48,90.51,5.77Z"/><path class="cls-1" d="M42.23,7a3.23,3.23,0,0,0-2.72-.25A21.8,21.8,0,0,0,42.23,7Z"/><polygon class="cls-1" points="32.16 109.34 31.19 109.53 33.02 109.36 32.16 109.34"/><text class="cls-2" transform="translate(68.42 88.1)">MENU</text></svg>
